<?xml version="1.0" encoding="UTF-8"?><svg id="a" xmlns="http://www.w3.org/2000/svg" viewBox="0 0 102.5 100"><path d="M80.7,78.9q0,.4-.1,1c-.3,2.1-1.7,4-3.5,5.2-.8,.3-2.5,1-5.9,1H31c-3.4,0-5.2-.7-5.9-1-1.9-1.1-3.1-3-3.5-5.2q-.1-.4-.1-1c-.1-1.1-.1-1.9-.1-2.8,.1-3.5,1.3-6.1,2-7.1,3.3-5.3,10.5-9.1,17.8-12.2,1.8-.8,2.5-1.8,2.8-2.4,.3-.9,.3-1.8,.2-2.7-2.1-2.8-4.5-4.6-6.3-7.4-3.9-5.8-4.7-14.1-2.1-20.4,2.5-6.4,8.4-10.2,15.4-10.1,7-.1,12.9,3.7,15.4,10.1,2.5,6.3,1.8,14.6-2.1,20.4-1.9,2.8-4.2,4.6-6.3,7.4-.1,.9,0,1.8,.2,2.7,.2,.7,1,1.7,2.8,2.4,7.2,3.1,14.5,7,17.8,12.2,.7,1,1.9,3.5,2,7.1-.2,.9-.2,1.7-.3,2.8Z"/></svg>