<?xml version="1.0" encoding="UTF-8"?><svg id="a" xmlns="http://www.w3.org/2000/svg" viewBox="0 0 102.5 100"><rect x="59" y="32.2" width="19" height="3.2"/><path d="M68.7,39.2h-2c-7.4,.5-12.9,7-12.4,14.3v2.8c-.1,.8-.1,1.6,0,2.4,.8,7.5,7.5,12.9,15,12.2,6.3,.6,12.3-3.5,13.7-9.9h-7.7c-.8,2.8-3.5,4.4-6.3,4.1h-.9c-3.7-.4-6.3-3.8-6-7.5v-1h20.9v-4.8c-.5-7.4-7-13.1-14.3-12.6Zm6.7,12.5h-13.1v-.6c0-3.5,2.8-6.3,6.3-6.3,.4,0,.6,0,1,.1,3.5,.2,6.2,3.4,5.8,6.8Z"/><path d="M41.8,48.3c4.3-.9,7.2-4.8,7.1-9.1,0-6.3-4.9-10.1-12.3-10.1H19.5v41.2h17.1c8.2,0,14.6-4.3,14.6-11.5v-.5c.1-5.4-4.1-9.9-9.4-10Zm-14.3-13.2h7.2c3.8,0,6.1,2.2,6.1,5.5,0,3.7-2.3,5.6-7.9,5.6h-5.5v-11.1h.1Zm6.3,29.1h-6.3v-12.3h7.7c4.8,0,7.7,1.6,7.7,6s-2.7,6.3-9.1,6.3Z"/></svg>