<?xml version="1.0" encoding="utf-8"?>
<!-- Generator: Adobe Illustrator 26.2.1, SVG Export Plug-In . SVG Version: 6.00 Build 0)  -->
<svg version="1.1" id="a" xmlns="http://www.w3.org/2000/svg" xmlns:xlink="http://www.w3.org/1999/xlink" x="0px" y="0px"
	 viewBox="0 0 102.5 100" style="enable-background:new 0 0 102.5 100;" xml:space="preserve">
<g>
	<g>
		<g>
			<path d="M58.7,76.9c-3,0-5.8-0.7-8.4-2H32.7c-1.6,0-2.9-1.3-2.9-2.9v-9.1c0-1.6,1.3-2.9,2.9-2.9h8c0-0.4,0-0.7,0-1.1
				c0-1.4,0.1-2.7,0.4-4H24.6v-4.9h16.3c1.4,0,2.5-1.1,2.5-2.5c0-1.4-1.1-2.5-2.5-2.5H24.6v-4.9h8.1h29.7c1.3,0,2.4,0.9,2.8,2.1
				c1.9,0.7,3.6,1.8,5.2,3.1v-2.2c0-1-0.2-2-0.6-2.9h6.5c1.4,0,2.5-1.1,2.5-2.5c0-1.4-1.1-2.5-2.5-2.5h-0.7V19.9h0.7
				c1.4,0,2.5-1.1,2.5-2.5c0-1.4-1.1-2.5-2.5-2.5H32.7c-4.4,0-8,3.6-8,8v9.1c0,1,0.2,2,0.6,2.9h-6.5c-1.4,0-2.5,1.1-2.5,2.5
				s1.1,2.5,2.5,2.5h0.7v14.9h-0.7c-1.4,0-2.5,1.1-2.5,2.5c0,1.4,1.1,2.5,2.5,2.5h6.5c-0.4,0.9-0.6,1.9-0.6,2.9V72c0,4.4,3.6,8,8,8
				h36.2l-4.1-4.1C62.9,76.6,60.8,76.9,58.7,76.9z M29.8,22.9c0-1.6,1.3-2.9,2.9-2.9h37.8v4.9H54.2c-1.4,0-2.5,1.1-2.5,2.5
				s1.1,2.5,2.5,2.5h16.3v4.9H32.7c-1.6,0-2.9-1.3-2.9-2.9V22.9z"/>
			<path d="M84.9,79.1L72.2,66.4c3.4-6,2.6-13.8-2.5-18.9c-6.1-6.1-16.1-6.1-22.3,0c-6.1,6.1-6.1,16.1,0,22.3
				c5.1,5.1,12.9,6,18.9,2.5L79,85c1.6,1.6,4.3,1.6,5.9,0C86.5,83.4,86.5,80.7,84.9,79.1z M66.5,66.6c-4.4,4.4-11.6,4.4-16,0
				c-4.4-4.4-4.4-11.6,0-16c4.4-4.4,11.6-4.4,16,0C70.9,55.1,70.9,62.2,66.5,66.6z"/>
		</g>
	</g>
</g>
</svg>
