<?xml version="1.0" encoding="UTF-8"?><svg id="a" xmlns="http://www.w3.org/2000/svg" viewBox="0 0 102.5 100"><path d="M20.7,33.72c.6-3.6,3.8-6.6,7.9-6.9,6.6-.6,15.7-.9,22.7-.9s16.4,.6,22.7,.9c4.1,.3,7.2,3,7.9,6.6,0,.6-.3,1.5-.9,1.8l-3.8,1.8-24,12.6c-1.3,.6-2.5,.6-3.8,0l-27.7-14.4c-.6-.3-1.3-.9-1-1.5Z"/><path d="M81.8,66.12c0,4.2-3.5,7.8-7.9,8.1-6.6,.6-15.8,.9-22.7,.9s-16.1-.6-22.7-.9c-4.4-.3-7.9-3.9-7.9-8.1v-26.1l4.7,2.4,21.7,11.4c1.3,.6,2.8,.9,4.1,.9s2.8-.3,4.1-.9l21.7-11.4,4.7-2.4v26.1h.2Z"/></svg>