<?xml version="1.0" encoding="utf-8"?>
<!-- Generator: Adobe Illustrator 26.2.1, SVG Export Plug-In . SVG Version: 6.00 Build 0)  -->
<svg version="1.1" id="a" xmlns="http://www.w3.org/2000/svg" xmlns:xlink="http://www.w3.org/1999/xlink" x="0px" y="0px"
	 viewBox="0 0 102.5 100" style="enable-background:new 0 0 102.5 100;" xml:space="preserve">
<g>
	<path d="M88.4,47.9C87.8,47,75.2,27.1,51.3,27.1c-24,0-36.6,19.9-37.1,20.8c-0.8,1.3-0.8,2.9,0,4.2c0.5,0.8,13.1,20.8,37.1,20.8
		c23.9,0,36.6-19.9,37.1-20.7C89.2,50.8,89.2,49.2,88.4,47.9z M40.3,50c0-6.1,4.9-11,11-11c6.1,0,11,4.9,11,11s-4.9,11-11,11
		S40.3,56.1,40.3,50z M28.9,56.5c-2.9-2.4-5.1-4.9-6.4-6.5c1.3-1.7,3.5-4.1,6.4-6.5c2.2-1.8,4.6-3.4,7-4.6c-2.3,3.1-3.6,7-3.6,11.1
		c0,4.2,1.3,8,3.6,11.1C33.5,59.9,31.1,58.4,28.9,56.5z M73.6,56.5c-2.2,1.8-4.6,3.4-7,4.6c2.3-3.1,3.6-7,3.6-11.1
		c0-4.1-1.3-8-3.6-11.1c2.4,1.2,4.7,2.8,7,4.6c2.9,2.4,5.1,4.8,6.4,6.5C78.7,51.7,76.5,54.1,73.6,56.5z"/>
	<path d="M57.2,50c0-0.5-0.1-1-0.2-1.4c-0.5,0.3-1.1,0.5-1.7,0.5c-1.8,0-3.3-1.5-3.3-3.3c0-0.6,0.2-1.2,0.4-1.6
		c-0.4-0.1-0.8-0.1-1.3-0.1c-3.3,0-6,2.7-6,6s2.7,6,6,6C54.6,56,57.2,53.3,57.2,50z"/>
</g>
</svg>
