<?xml version="1.0" encoding="UTF-8"?><svg id="a" xmlns="http://www.w3.org/2000/svg" viewBox="0 0 102.5 100"><path d="M38.9,86.2c2.6,0,3.2-1,3.2-2.3v-7.9c-12.9,2.8-15.7-6.2-15.7-6.2-2.1-5.3-5.2-6.8-5.2-6.8-4.2-2.9,.4-2.8,.4-2.8,4.6,.3,7.1,4.8,7.1,4.8,4.2,7.1,10.9,5.1,13.5,3.9,.4-3,1.6-5.1,2.9-6.2-10.3-1.2-21.1-5.2-21.1-22.9,0-5.1,1.8-9.2,4.8-12.5-.5-1.2-2.1-5.9,.5-12.3,0,0,3.9-1.3,12.8,4.8,3.7-1,7.7-1.5,11.6-1.5s7.9,.5,11.6,1.5c8.8-6,12.7-4.8,12.7-4.8,2.5,6.4,.9,11.1,.5,12.3,3,3.3,4.7,7.4,4.7,12.5,0,17.8-10.9,21.7-21.2,22.9,1.6,1.4,3.2,4.3,3.2,8.6,0,6.2-.1,11.2-.1,12.7,0,1.2,.8,2.2,3.2,2.2h-29.4Z"/></svg>