<?xml version="1.0" encoding="UTF-8"?><svg id="a" xmlns="http://www.w3.org/2000/svg" viewBox="0 0 54.68 12.55"><g><polygon points="38.44 10.99 38.44 10.7 38.69 10.55 38.95 10.7 38.95 10.99 38.69 11.14 38.44 10.99" fill="none" stroke="#61dfff" stroke-miterlimit="10" stroke-width=".05"/><polygon points="45.37 10.99 45.37 10.7 45.62 10.55 45.88 10.7 45.88 10.99 45.62 11.14 45.37 10.99" fill="none" stroke="#61dfff" stroke-miterlimit="10" stroke-width=".05"/><polygon points="46.91 10.99 46.91 10.7 47.16 10.55 47.42 10.7 47.42 10.99 47.16 11.14 46.91 10.99" fill="none" stroke="#61dfff" stroke-miterlimit="10" stroke-width=".05"/><polygon points="49.99 10.99 49.99 10.7 50.24 10.55 50.49 10.7 50.49 10.99 50.24 11.14 49.99 10.99" fill="none" stroke="#61dfff" stroke-miterlimit="10" stroke-width=".05"/><polygon points="52.3 10.99 52.3 10.7 52.55 10.55 52.8 10.7 52.8 10.99 52.55 11.14 52.3 10.99" fill="none" stroke="#61dfff" stroke-miterlimit="10" stroke-width=".05"/><polygon points="54.61 10.99 54.61 10.7 54.86 10.55 55.11 10.7 55.11 10.99 54.86 11.14 54.61 10.99" fill="none" stroke="#61dfff" stroke-miterlimit="10" stroke-width=".05"/><polygon points="35.75 11.66 35.75 11.37 36 11.22 36.25 11.37 36.25 11.66 36 11.8 35.75 11.66" fill="none" stroke="#61dfff" stroke-miterlimit="10" stroke-width=".05"/><polygon points="38.06 11.66 38.06 11.37 38.31 11.22 38.56 11.37 38.56 11.66 38.31 11.8 38.06 11.66" fill="none" stroke="#61dfff" stroke-miterlimit="10" stroke-width=".05"/><polygon points="44.98 11.66 44.98 11.37 45.24 11.22 45.49 11.37 45.49 11.66 45.24 11.8 44.98 11.66" fill="none" stroke="#61dfff" stroke-miterlimit="10" stroke-width=".05"/><polygon points="47.29 11.66 47.29 11.37 47.55 11.22 47.8 11.37 47.8 11.66 47.55 11.8 47.29 11.66" fill="none" stroke="#61dfff" stroke-miterlimit="10" stroke-width=".05"/><polygon points="48.06 11.66 48.06 11.37 48.32 11.22 48.57 11.37 48.57 11.66 48.32 11.8 48.06 11.66" fill="none" stroke="#61dfff" stroke-miterlimit="10" stroke-width=".05"/><polygon points="48.83 11.66 48.83 11.37 49.09 11.22 49.34 11.37 49.34 11.66 49.09 11.8 48.83 11.66" fill="none" stroke="#61dfff" stroke-miterlimit="10" stroke-width=".05"/><polygon points="51.91 11.66 51.91 11.37 52.17 11.22 52.42 11.37 52.42 11.66 52.17 11.8 51.91 11.66" fill="none" stroke="#61dfff" stroke-miterlimit="10" stroke-width=".05"/><polygon points="53.45 11.66 53.45 11.37 53.7 11.22 53.96 11.37 53.96 11.66 53.7 11.8 53.45 11.66" fill="none" stroke="#61dfff" stroke-miterlimit="10" stroke-width=".05"/><polygon points="40.37 10.33 40.37 10.03 40.62 9.89 40.87 10.03 40.87 10.33 40.62 10.47 40.37 10.33" fill="none" stroke="#61dfff" stroke-miterlimit="10" stroke-width=".05"/><polygon points="41.13 10.33 41.13 10.03 41.39 9.89 41.64 10.03 41.64 10.33 41.39 10.47 41.13 10.33" fill="none" stroke="#61dfff" stroke-miterlimit="10" stroke-width=".05"/><polygon points="40.75 10.99 40.75 10.7 41 10.55 41.26 10.7 41.26 10.99 41 11.14 40.75 10.99" fill="none" stroke="#61dfff" stroke-miterlimit="10" stroke-width=".05"/><polygon points="41.52 10.99 41.52 10.7 41.77 10.55 42.03 10.7 42.03 10.99 41.77 11.14 41.52 10.99" fill="none" stroke="#61dfff" stroke-miterlimit="10" stroke-width=".05"/><polygon points="39.6 11.66 39.6 11.37 39.85 11.22 40.1 11.37 40.1 11.66 39.85 11.8 39.6 11.66" fill="none" stroke="#61dfff" stroke-miterlimit="10" stroke-width=".05"/><polygon points="41.9 11.66 41.9 11.37 42.16 11.22 42.41 11.37 42.41 11.66 42.16 11.8 41.9 11.66" fill="none" stroke="#61dfff" stroke-miterlimit="10" stroke-width=".05"/><polygon points="29.2 12.33 29.2 12.03 29.46 11.89 29.71 12.03 29.71 12.33 29.46 12.47 29.2 12.33" fill="none" stroke="#61dfff" stroke-miterlimit="10" stroke-width=".05"/><polygon points="30.74 12.33 30.74 12.03 31 11.89 31.25 12.03 31.25 12.33 31 12.47 30.74 12.33" fill="none" stroke="#61dfff" stroke-miterlimit="10" stroke-width=".05"/><polygon points="32.28 12.33 32.28 12.03 32.54 11.89 32.79 12.03 32.79 12.33 32.54 12.47 32.28 12.33" fill="none" stroke="#61dfff" stroke-miterlimit="10" stroke-width=".05"/><polygon points="34.59 12.33 34.59 12.03 34.84 11.89 35.1 12.03 35.1 12.33 34.84 12.47 34.59 12.33" fill="none" stroke="#61dfff" stroke-miterlimit="10" stroke-width=".05"/><polygon points="42.29 12.33 42.29 12.03 42.54 11.89 42.8 12.03 42.8 12.33 42.54 12.47 42.29 12.33" fill="none" stroke="#61dfff" stroke-miterlimit="10" stroke-width=".05"/><polygon points="44.21 10.33 44.21 10.03 44.47 9.89 44.72 10.03 44.72 10.33 44.47 10.47 44.21 10.33" fill="none" stroke="#61dfff" stroke-miterlimit="10" stroke-width=".05"/><polygon points="37.67 10.99 37.67 10.7 37.92 10.55 38.18 10.7 38.18 10.99 37.92 11.14 37.67 10.99" fill="none" stroke="#61dfff" stroke-miterlimit="10" stroke-width=".05"/><polygon points="53.84 10.99 53.84 10.7 54.09 10.55 54.34 10.7 54.34 10.99 54.09 11.14 53.84 10.99" fill="none" stroke="#61dfff" stroke-miterlimit="10" stroke-width=".05"/><polygon points="36.52 11.66 36.52 11.37 36.77 11.22 37.02 11.37 37.02 11.66 36.77 11.8 36.52 11.66" fill="none" stroke="#61dfff" stroke-miterlimit="10" stroke-width=".05"/><polygon points="52.68 11.66 52.68 11.37 52.93 11.22 53.19 11.37 53.19 11.66 52.93 11.8 52.68 11.66" fill="none" stroke="#61dfff" stroke-miterlimit="10" stroke-width=".05"/><polygon points="44.6 12.33 44.6 12.03 44.85 11.89 45.11 12.03 45.11 12.33 44.85 12.47 44.6 12.33" fill="none" stroke="#61dfff" stroke-miterlimit="10" stroke-width=".05"/><polygon points="26.89 12.33 26.89 12.03 27.15 11.89 27.4 12.03 27.4 12.33 27.15 12.47 26.89 12.33" fill="none" stroke="#61dfff" stroke-miterlimit="10" stroke-width=".05"/><polygon points="42.67 10.33 42.67 10.03 42.93 9.89 43.18 10.03 43.18 10.33 42.93 10.47 42.67 10.33" fill="none" stroke="#61dfff" stroke-miterlimit="10" stroke-width=".05"/><polygon points="39.98 10.99 39.98 10.7 40.23 10.55 40.49 10.7 40.49 10.99 40.23 11.14 39.98 10.99" fill="none" stroke="#61dfff" stroke-miterlimit="10" stroke-width=".05"/><polygon points="31.51 12.33 31.51 12.03 31.77 11.89 32.02 12.03 32.02 12.33 31.77 12.47 31.51 12.33" fill="none" stroke="#61dfff" stroke-miterlimit="10" stroke-width=".05"/><polygon points="38.44 12.33 38.44 12.03 38.69 11.89 38.95 12.03 38.95 12.33 38.69 12.47 38.44 12.33" fill="none" stroke="#61dfff" stroke-miterlimit="10" stroke-width=".05"/><polygon points="6.49 10.33 6.49 10.03 6.75 9.89 7 10.03 7 10.33 6.75 10.47 6.49 10.33" fill="none" stroke="#61dfff" stroke-miterlimit="10" stroke-width=".05"/><polygon points="3.8 10.99 3.8 10.7 4.05 10.55 4.31 10.7 4.31 10.99 4.05 11.14 3.8 10.99" fill="none" stroke="#61dfff" stroke-miterlimit="10" stroke-width=".05"/><polygon points="6.88 10.99 6.88 10.7 7.13 10.55 7.39 10.7 7.39 10.99 7.13 11.14 6.88 10.99" fill="none" stroke="#61dfff" stroke-miterlimit="10" stroke-width=".05"/><polygon points="7.65 10.99 7.65 10.7 7.9 10.55 8.15 10.7 8.15 10.99 7.9 11.14 7.65 10.99" fill="none" stroke="#61dfff" stroke-miterlimit="10" stroke-width=".05"/><polygon points="26.89 10.99 26.89 10.7 27.15 10.55 27.4 10.7 27.4 10.99 27.15 11.14 26.89 10.99" fill="none" stroke="#61dfff" stroke-miterlimit="10" stroke-width=".05"/><polygon points="-.43 11.66 -.43 11.37 -.18 11.22 .07 11.37 .07 11.66 -.18 11.8 -.43 11.66" fill="none" stroke="#61dfff" stroke-miterlimit="10" stroke-width=".05"/><polygon points="5.72 11.66 5.72 11.37 5.98 11.22 6.23 11.37 6.23 11.66 5.98 11.8 5.72 11.66" fill="none" stroke="#61dfff" stroke-miterlimit="10" stroke-width=".05"/><polygon points="6.49 11.66 6.49 11.37 6.75 11.22 7 11.37 7 11.66 6.75 11.8 6.49 11.66" fill="none" stroke="#61dfff" stroke-miterlimit="10" stroke-width=".05"/><polygon points="7.26 11.66 7.26 11.37 7.52 11.22 7.77 11.37 7.77 11.66 7.52 11.8 7.26 11.66" fill="none" stroke="#61dfff" stroke-miterlimit="10" stroke-width=".05"/><polygon points="14.19 11.66 14.19 11.37 14.44 11.22 14.7 11.37 14.7 11.66 14.44 11.8 14.19 11.66" fill="none" stroke="#61dfff" stroke-miterlimit="10" stroke-width=".05"/><polygon points="15.73 11.66 15.73 11.37 15.98 11.22 16.24 11.37 16.24 11.66 15.98 11.8 15.73 11.66" fill="none" stroke="#61dfff" stroke-miterlimit="10" stroke-width=".05"/><polygon points="18.81 11.66 18.81 11.37 19.06 11.22 19.32 11.37 19.32 11.66 19.06 11.8 18.81 11.66" fill="none" stroke="#61dfff" stroke-miterlimit="10" stroke-width=".05"/><polygon points="24.2 11.66 24.2 11.37 24.45 11.22 24.71 11.37 24.71 11.66 24.45 11.8 24.2 11.66" fill="none" stroke="#61dfff" stroke-miterlimit="10" stroke-width=".05"/><polygon points="6.11 12.33 6.11 12.03 6.36 11.89 6.62 12.03 6.62 12.33 6.36 12.47 6.11 12.33" fill="none" stroke="#61dfff" stroke-miterlimit="10" stroke-width=".05"/><polygon points="6.88 12.33 6.88 12.03 7.13 11.89 7.39 12.03 7.39 12.33 7.13 12.47 6.88 12.33" fill="none" stroke="#61dfff" stroke-miterlimit="10" stroke-width=".05"/><polygon points="10.73 12.33 10.73 12.03 10.98 11.89 11.23 12.03 11.23 12.33 10.98 12.47 10.73 12.33" fill="none" stroke="#61dfff" stroke-miterlimit="10" stroke-width=".05"/><polygon points="11.5 12.33 11.5 12.03 11.75 11.89 12 12.03 12 12.33 11.75 12.47 11.5 12.33" fill="none" stroke="#61dfff" stroke-miterlimit="10" stroke-width=".05"/><polygon points="15.35 12.33 15.35 12.03 15.6 11.89 15.85 12.03 15.85 12.33 15.6 12.47 15.35 12.33" fill="none" stroke="#61dfff" stroke-miterlimit="10" stroke-width=".05"/><polygon points="25.35 12.33 25.35 12.03 25.61 11.89 25.86 12.03 25.86 12.33 25.61 12.47 25.35 12.33" fill="none" stroke="#61dfff" stroke-miterlimit="10" stroke-width=".05"/><polygon points="1.49 12.33 1.49 12.03 1.74 11.89 2 12.03 2 12.33 1.74 12.47 1.49 12.33" fill="none" stroke="#61dfff" stroke-miterlimit="10" stroke-width=".05"/><polygon points="12.27 12.33 12.27 12.03 12.52 11.89 12.77 12.03 12.77 12.33 12.52 12.47 12.27 12.33" fill="none" stroke="#61dfff" stroke-miterlimit="10" stroke-width=".05"/><polygon points="13.81 12.33 13.81 12.03 14.06 11.89 14.31 12.03 14.31 12.33 14.06 12.47 13.81 12.33" fill="none" stroke="#61dfff" stroke-miterlimit="10" stroke-width=".05"/><polygon points="19.97 12.33 19.97 12.03 20.22 11.89 20.47 12.03 20.47 12.33 20.22 12.47 19.97 12.33" fill="none" stroke="#61dfff" stroke-miterlimit="10" stroke-width=".05"/><polygon points="20.74 12.33 20.74 12.03 20.99 11.89 21.24 12.03 21.24 12.33 20.99 12.47 20.74 12.33" fill="none" stroke="#61dfff" stroke-miterlimit="10" stroke-width=".05"/><polygon points="21.51 12.33 21.51 12.03 21.76 11.89 22.01 12.03 22.01 12.33 21.76 12.47 21.51 12.33" fill="none" stroke="#61dfff" stroke-miterlimit="10" stroke-width=".05"/><polygon points="22.28 12.33 22.28 12.03 22.53 11.89 22.78 12.03 22.78 12.33 22.53 12.47 22.28 12.33" fill="none" stroke="#61dfff" stroke-miterlimit="10" stroke-width=".05"/><polygon points="23.81 12.33 23.81 12.03 24.07 11.89 24.32 12.03 24.32 12.33 24.07 12.47 23.81 12.33" fill="none" stroke="#61dfff" stroke-miterlimit="10" stroke-width=".05"/><polygon points="5.72 10.33 5.72 10.03 5.98 9.89 6.23 10.03 6.23 10.33 5.98 10.47 5.72 10.33" fill="none" stroke="#61dfff" stroke-miterlimit="10" stroke-width=".05"/><polygon points="4.57 10.99 4.57 10.7 4.82 10.55 5.08 10.7 5.08 10.99 4.82 11.14 4.57 10.99" fill="none" stroke="#61dfff" stroke-miterlimit="10" stroke-width=".05"/><polygon points="26.12 10.99 26.12 10.7 26.38 10.55 26.63 10.7 26.63 10.99 26.38 11.14 26.12 10.99" fill="none" stroke="#61dfff" stroke-miterlimit="10" stroke-width=".05"/><polygon points="28.05 11.66 28.05 11.37 28.3 11.22 28.55 11.37 28.55 11.66 28.3 11.8 28.05 11.66" fill="none" stroke="#61dfff" stroke-miterlimit="10" stroke-width=".05"/><polygon points="8.03 11.66 8.03 11.37 8.29 11.22 8.54 11.37 8.54 11.66 8.29 11.8 8.03 11.66" fill="none" stroke="#61dfff" stroke-miterlimit="10" stroke-width=".05"/><polygon points="13.42 11.66 13.42 11.37 13.68 11.22 13.93 11.37 13.93 11.66 13.68 11.8 13.42 11.66" fill="none" stroke="#61dfff" stroke-miterlimit="10" stroke-width=".05"/><polygon points="17.27 11.66 17.27 11.37 17.52 11.22 17.78 11.37 17.78 11.66 17.52 11.8 17.27 11.66" fill="none" stroke="#61dfff" stroke-miterlimit="10" stroke-width=".05"/><polygon points="18.43 12.33 18.43 12.03 18.68 11.89 18.93 12.03 18.93 12.33 18.68 12.47 18.43 12.33" fill="none" stroke="#61dfff" stroke-miterlimit="10" stroke-width=".05"/><polygon points="2.65 11.66 2.65 11.37 2.9 11.22 3.15 11.37 3.15 11.66 2.9 11.8 2.65 11.66" fill="none" stroke="#61dfff" stroke-miterlimit="10" stroke-width=".05"/><polygon points="21.89 11.66 21.89 11.37 22.14 11.22 22.4 11.37 22.4 11.66 22.14 11.8 21.89 11.66" fill="none" stroke="#61dfff" stroke-miterlimit="10" stroke-width=".05"/><polygon points="23.43 11.66 23.43 11.37 23.68 11.22 23.94 11.37 23.94 11.66 23.68 11.8 23.43 11.66" fill="none" stroke="#61dfff" stroke-miterlimit="10" stroke-width=".05"/><polygon points="24.58 12.33 24.58 12.03 24.84 11.89 25.09 12.03 25.09 12.33 24.84 12.47 24.58 12.33" fill="none" stroke="#61dfff" stroke-miterlimit="10" stroke-width=".05"/><polygon points="30.52 6.23 30.52 6.13 30.61 6.08 30.7 6.13 30.7 6.23 30.61 6.28 30.52 6.23" fill="none" stroke="#61dfff" stroke-miterlimit="10" stroke-width=".05"/><polygon points="38.27 6.2 38.27 6.15 38.31 6.13 38.35 6.15 38.35 6.2 38.31 6.23 38.27 6.2" fill="none" stroke="#61dfff" stroke-miterlimit="10" stroke-width=".05"/><polygon points="1.15 6.3 1.15 6.06 1.36 5.94 1.56 6.06 1.56 6.3 1.36 6.42 1.15 6.3" fill="none" stroke="#61dfff" stroke-miterlimit="10" stroke-width=".05"/><polygon points="2.74 6.27 2.74 6.09 2.9 6 3.06 6.09 3.06 6.27 2.9 6.36 2.74 6.27" fill="none" stroke="#61dfff" stroke-miterlimit="10" stroke-width=".05"/><polygon points="4.4 6.2 4.4 6.16 4.44 6.14 4.47 6.16 4.47 6.2 4.44 6.22 4.4 6.2" fill="none" stroke="#61dfff" stroke-miterlimit="10" stroke-width=".05"/><polygon points="33.27 6.86 33.27 6.83 33.31 6.81 33.34 6.83 33.34 6.86 33.31 6.88 33.27 6.86" fill="none" stroke="#61dfff" stroke-miterlimit="10" stroke-width=".05"/><polygon points="36.27 6.91 36.27 6.78 36.38 6.71 36.5 6.78 36.5 6.91 36.38 6.98 36.27 6.91" fill="none" stroke="#61dfff" stroke-miterlimit="10" stroke-width=".05"/><polygon points="41.67 6.9 41.67 6.79 41.77 6.73 41.87 6.79 41.87 6.9 41.77 6.96 41.67 6.9" fill="none" stroke="#61dfff" stroke-miterlimit="10" stroke-width=".05"/><polygon points="42.48 6.88 42.48 6.81 42.54 6.77 42.61 6.81 42.61 6.88 42.54 6.92 42.48 6.88" fill="none" stroke="#61dfff" stroke-miterlimit="10" stroke-width=".05"/><polygon points="44.71 6.93 44.71 6.76 44.85 6.68 45 6.76 45 6.93 44.85 7.01 44.71 6.93" fill="none" stroke="#61dfff" stroke-miterlimit="10" stroke-width=".05"/><polygon points="29.75 7.57 29.75 7.46 29.84 7.41 29.93 7.46 29.93 7.57 29.84 7.62 29.75 7.57" fill="none" stroke="#61dfff" stroke-miterlimit="10" stroke-width=".05"/><polygon points="30.5 7.58 30.5 7.45 30.61 7.38 30.72 7.45 30.72 7.58 30.61 7.64 30.5 7.58" fill="none" stroke="#61dfff" stroke-miterlimit="10" stroke-width=".05"/><polygon points="31.23 7.6 31.23 7.43 31.38 7.34 31.53 7.43 31.53 7.6 31.38 7.69 31.23 7.6" fill="none" stroke="#61dfff" stroke-miterlimit="10" stroke-width=".05"/><polygon points="33.58 7.57 33.58 7.45 33.69 7.39 33.8 7.45 33.8 7.57 33.69 7.64 33.58 7.57" fill="none" stroke="#61dfff" stroke-miterlimit="10" stroke-width=".05"/><polygon points="35.01 7.64 35.01 7.38 35.23 7.25 35.45 7.38 35.45 7.64 35.23 7.77 35.01 7.64" fill="none" stroke="#61dfff" stroke-miterlimit="10" stroke-width=".05"/><polygon points="38.18 7.58 38.18 7.44 38.31 7.37 38.43 7.44 38.43 7.58 38.31 7.66 38.18 7.58" fill="none" stroke="#61dfff" stroke-miterlimit="10" stroke-width=".05"/><polygon points="-.38 7.63 -.38 7.4 -.18 7.29 .01 7.4 .01 7.63 -.18 7.74 -.38 7.63" fill="none" stroke="#61dfff" stroke-miterlimit="10" stroke-width=".05"/><polygon points="5.09 7.58 5.09 7.44 5.21 7.38 5.33 7.44 5.33 7.58 5.21 7.65 5.09 7.58" fill="none" stroke="#61dfff" stroke-miterlimit="10" stroke-width=".05"/><polygon points="7.29 7.64 7.29 7.38 7.52 7.25 7.74 7.38 7.74 7.64 7.52 7.77 7.29 7.64" fill="none" stroke="#61dfff" stroke-miterlimit="10" stroke-width=".05"/><polygon points="8.12 7.61 8.12 7.42 8.29 7.32 8.45 7.42 8.45 7.61 8.29 7.7 8.12 7.61" fill="none" stroke="#61dfff" stroke-miterlimit="10" stroke-width=".05"/><polygon points="31.69 8.23 31.69 8.13 31.77 8.08 31.85 8.13 31.85 8.23 31.77 8.27 31.69 8.23" fill="none" stroke="#61dfff" stroke-miterlimit="10" stroke-width=".05"/><polygon points="33.9 8.28 33.9 8.08 34.08 7.97 34.25 8.08 34.25 8.28 34.08 8.39 33.9 8.28" fill="none" stroke="#61dfff" stroke-miterlimit="10" stroke-width=".05"/><polygon points="37.78 8.26 37.78 8.1 37.92 8.01 38.07 8.1 38.07 8.26 37.92 8.35 37.78 8.26" fill="none" stroke="#61dfff" stroke-miterlimit="10" stroke-width=".05"/><polygon points="40.93 8.22 40.93 8.14 41 8.1 41.07 8.14 41.07 8.22 41 8.26 40.93 8.22" fill="none" stroke="#61dfff" stroke-miterlimit="10" stroke-width=".05"/><polygon points="41.56 8.31 41.56 8.05 41.77 7.93 41.99 8.05 41.99 8.31 41.77 8.43 41.56 8.31" fill="none" stroke="#61dfff" stroke-miterlimit="10" stroke-width=".05"/><polygon points="52.5 8.21 52.5 8.15 52.55 8.12 52.6 8.15 52.6 8.21 52.55 8.24 52.5 8.21" fill="none" stroke="#61dfff" stroke-miterlimit="10" stroke-width=".05"/><polygon points="53.27 8.21 53.27 8.15 53.32 8.12 53.37 8.15 53.37 8.21 53.32 8.24 53.27 8.21" fill="none" stroke="#61dfff" stroke-miterlimit="10" stroke-width=".05"/><polygon points="1.52 8.31 1.52 8.05 1.74 7.92 1.97 8.05 1.97 8.31 1.74 8.44 1.52 8.31" fill="none" stroke="#61dfff" stroke-miterlimit="10" stroke-width=".05"/><polygon points="9.27 8.28 9.27 8.08 9.44 7.98 9.62 8.08 9.62 8.28 9.44 8.38 9.27 8.28" fill="none" stroke="#61dfff" stroke-miterlimit="10" stroke-width=".05"/><polygon points="10.15 8.21 10.15 8.15 10.21 8.11 10.27 8.15 10.27 8.21 10.21 8.25 10.15 8.21" fill="none" stroke="#61dfff" stroke-miterlimit="10" stroke-width=".05"/><polygon points="13.13 8.27 13.13 8.08 13.29 7.99 13.45 8.08 13.45 8.27 13.29 8.37 13.13 8.27" fill="none" stroke="#61dfff" stroke-miterlimit="10" stroke-width=".05"/><polygon points="29.04 8.86 29.04 8.83 29.07 8.81 29.1 8.83 29.1 8.86 29.07 8.88 29.04 8.86" fill="none" stroke="#61dfff" stroke-miterlimit="10" stroke-width=".05"/><polygon points="32.01 8.93 32.01 8.76 32.15 8.68 32.29 8.76 32.29 8.93 32.15 9.01 32.01 8.93" fill="none" stroke="#61dfff" stroke-miterlimit="10" stroke-width=".05"/><polygon points="35.97 8.86 35.97 8.83 36 8.82 36.02 8.83 36.02 8.86 36 8.88 35.97 8.86" fill="none" stroke="#61dfff" stroke-miterlimit="10" stroke-width=".05"/><polygon points="36.72 8.87 36.72 8.82 36.77 8.79 36.82 8.82 36.82 8.87 36.77 8.9 36.72 8.87" fill="none" stroke="#61dfff" stroke-miterlimit="10" stroke-width=".05"/><polygon points="38.25 8.88 38.25 8.81 38.31 8.77 38.37 8.81 38.37 8.88 38.31 8.92 38.25 8.88" fill="none" stroke="#61dfff" stroke-miterlimit="10" stroke-width=".05"/><polygon points="40.38 8.98 40.38 8.71 40.62 8.57 40.86 8.71 40.86 8.98 40.62 9.12 40.38 8.98" fill="none" stroke="#61dfff" stroke-miterlimit="10" stroke-width=".05"/><polygon points="48.14 8.95 48.14 8.74 48.32 8.64 48.5 8.74 48.5 8.95 48.32 9.05 48.14 8.95" fill="none" stroke="#61dfff" stroke-miterlimit="10" stroke-width=".05"/><polygon points="51.25 8.93 51.25 8.76 51.4 8.67 51.54 8.76 51.54 8.93 51.4 9.02 51.25 8.93" fill="none" stroke="#61dfff" stroke-miterlimit="10" stroke-width=".05"/><polygon points="2.83 8.88 2.83 8.81 2.9 8.77 2.97 8.81 2.97 8.88 2.9 8.92 2.83 8.88" fill="none" stroke="#61dfff" stroke-miterlimit="10" stroke-width=".05"/><polygon points="5.79 8.96 5.79 8.73 5.98 8.62 6.17 8.73 6.17 8.96 5.98 9.07 5.79 8.96" fill="none" stroke="#61dfff" stroke-miterlimit="10" stroke-width=".05"/><polygon points="9.03 8.86 9.03 8.83 9.06 8.82 9.08 8.83 9.08 8.86 9.06 8.88 9.03 8.86" fill="none" stroke="#61dfff" stroke-miterlimit="10" stroke-width=".05"/><polygon points="9.69 8.92 9.69 8.77 9.83 8.69 9.96 8.77 9.96 8.92 9.83 9 9.69 8.92" fill="none" stroke="#61dfff" stroke-miterlimit="10" stroke-width=".05"/><polygon points="10.54 8.88 10.54 8.81 10.6 8.78 10.65 8.81 10.65 8.88 10.6 8.91 10.54 8.88" fill="none" stroke="#61dfff" stroke-miterlimit="10" stroke-width=".05"/><polygon points="11.91 8.97 11.91 8.72 12.14 8.59 12.36 8.72 12.36 8.97 12.14 9.1 11.91 8.97" fill="none" stroke="#61dfff" stroke-miterlimit="10" stroke-width=".05"/><polygon points="15.14 8.89 15.14 8.8 15.22 8.76 15.29 8.8 15.29 8.89 15.22 8.94 15.14 8.89" fill="none" stroke="#61dfff" stroke-miterlimit="10" stroke-width=".05"/><polygon points="23.65 8.86 23.65 8.83 23.68 8.81 23.71 8.83 23.71 8.86 23.68 8.88 23.65 8.86" fill="none" stroke="#61dfff" stroke-miterlimit="10" stroke-width=".05"/><polygon points="29.42 9.54 29.42 9.49 29.46 9.47 29.5 9.49 29.5 9.54 29.46 9.56 29.42 9.54" fill="none" stroke="#61dfff" stroke-miterlimit="10" stroke-width=".05"/><polygon points="30.1 9.58 30.1 9.44 30.23 9.37 30.35 9.44 30.35 9.58 30.23 9.66 30.1 9.58" fill="none" stroke="#61dfff" stroke-miterlimit="10" stroke-width=".05"/><polygon points="34.7 9.6 34.7 9.43 34.84 9.34 34.99 9.43 34.99 9.6 34.84 9.68 34.7 9.6" fill="none" stroke="#61dfff" stroke-miterlimit="10" stroke-width=".05"/><polygon points="36.36 9.53 36.36 9.5 36.38 9.48 36.41 9.5 36.41 9.53 36.38 9.54 36.36 9.53" fill="none" stroke="#61dfff" stroke-miterlimit="10" stroke-width=".05"/><polygon points="37.05 9.57 37.05 9.45 37.15 9.39 37.26 9.45 37.26 9.57 37.15 9.63 37.05 9.57" fill="none" stroke="#61dfff" stroke-miterlimit="10" stroke-width=".05"/><polygon points="43.86 9.64 43.86 9.38 44.08 9.25 44.31 9.38 44.31 9.64 44.08 9.77 43.86 9.64" fill="none" stroke="#61dfff" stroke-miterlimit="10" stroke-width=".05"/><polygon points="45.38 9.65 45.38 9.37 45.62 9.23 45.87 9.37 45.87 9.65 45.62 9.79 45.38 9.65" fill="none" stroke="#61dfff" stroke-miterlimit="10" stroke-width=".05"/><polygon points="46.22 9.61 46.22 9.41 46.39 9.31 46.57 9.41 46.57 9.61 46.39 9.71 46.22 9.61" fill="none" stroke="#61dfff" stroke-miterlimit="10" stroke-width=".05"/><polygon points="47.82 9.58 47.82 9.45 47.93 9.38 48.04 9.45 48.04 9.58 47.93 9.64 47.82 9.58" fill="none" stroke="#61dfff" stroke-miterlimit="10" stroke-width=".05"/><polygon points="50.86 9.6 50.86 9.42 51.01 9.34 51.16 9.42 51.16 9.6 51.01 9.69 50.86 9.6" fill="none" stroke="#61dfff" stroke-miterlimit="10" stroke-width=".05"/><polygon points="51.57 9.64 51.57 9.39 51.78 9.27 51.99 9.39 51.99 9.64 51.78 9.76 51.57 9.64" fill="none" stroke="#61dfff" stroke-miterlimit="10" stroke-width=".05"/><polygon points="52.49 9.54 52.49 9.48 52.55 9.45 52.61 9.48 52.61 9.54 52.55 9.58 52.49 9.54" fill="none" stroke="#61dfff" stroke-miterlimit="10" stroke-width=".05"/><polygon points="53.91 9.62 53.91 9.41 54.09 9.3 54.27 9.41 54.27 9.62 54.09 9.73 53.91 9.62" fill="none" stroke="#61dfff" stroke-miterlimit="10" stroke-width=".05"/><polygon points="1.57 9.61 1.57 9.41 1.74 9.32 1.91 9.41 1.91 9.61 1.74 9.71 1.57 9.61" fill="none" stroke="#61dfff" stroke-miterlimit="10" stroke-width=".05"/><polygon points="10.07 9.59 10.07 9.43 10.21 9.35 10.35 9.43 10.35 9.59 10.21 9.67 10.07 9.59" fill="none" stroke="#61dfff" stroke-miterlimit="10" stroke-width=".05"/><polygon points="10.9 9.56 10.9 9.47 10.98 9.42 11.06 9.47 11.06 9.56 10.98 9.6 10.9 9.56" fill="none" stroke="#61dfff" stroke-miterlimit="10" stroke-width=".05"/><polygon points="11.63 9.58 11.63 9.44 11.75 9.37 11.87 9.44 11.87 9.58 11.75 9.65 11.63 9.58" fill="none" stroke="#61dfff" stroke-miterlimit="10" stroke-width=".05"/><polygon points="13.24 9.54 13.24 9.48 13.29 9.46 13.34 9.48 13.34 9.54 13.29 9.57 13.24 9.54" fill="none" stroke="#61dfff" stroke-miterlimit="10" stroke-width=".05"/><polygon points="13.92 9.6 13.92 9.43 14.06 9.35 14.2 9.43 14.2 9.6 14.06 9.68 13.92 9.6" fill="none" stroke="#61dfff" stroke-miterlimit="10" stroke-width=".05"/><polygon points="15.56 9.53 15.56 9.49 15.6 9.47 15.64 9.49 15.64 9.53 15.6 9.56 15.56 9.53" fill="none" stroke="#61dfff" stroke-miterlimit="10" stroke-width=".05"/><polygon points="16.29 9.56 16.29 9.47 16.37 9.42 16.45 9.47 16.45 9.56 16.37 9.6 16.29 9.56" fill="none" stroke="#61dfff" stroke-miterlimit="10" stroke-width=".05"/><polygon points="20.9 9.57 20.9 9.46 20.99 9.41 21.08 9.46 21.08 9.57 20.99 9.62 20.9 9.57" fill="none" stroke="#61dfff" stroke-miterlimit="10" stroke-width=".05"/><polygon points="22.41 9.58 22.41 9.44 22.53 9.38 22.65 9.44 22.65 9.58 22.53 9.65 22.41 9.58" fill="none" stroke="#61dfff" stroke-miterlimit="10" stroke-width=".05"/><polygon points="23.86 9.63 23.86 9.39 24.07 9.27 24.28 9.39 24.28 9.63 24.07 9.76 23.86 9.63" fill="none" stroke="#61dfff" stroke-miterlimit="10" stroke-width=".05"/><polygon points="25.55 9.54 25.55 9.48 25.61 9.45 25.66 9.48 25.66 9.54 25.61 9.57 25.55 9.54" fill="none" stroke="#61dfff" stroke-miterlimit="10" stroke-width=".05"/><polygon points="28.91 10.27 28.91 10.08 29.07 9.99 29.24 10.08 29.24 10.27 29.07 10.37 28.91 10.27" fill="none" stroke="#61dfff" stroke-miterlimit="10" stroke-width=".05"/><polygon points="32.79 10.25 32.79 10.11 32.92 10.03 33.05 10.11 33.05 10.25 32.92 10.33 32.79 10.25" fill="none" stroke="#61dfff" stroke-miterlimit="10" stroke-width=".05"/><polygon points="33.48 10.3 33.48 10.06 33.69 9.93 33.9 10.06 33.9 10.3 33.69 10.43 33.48 10.3" fill="none" stroke="#61dfff" stroke-miterlimit="10" stroke-width=".05"/><polygon points="34.42 10.2 34.42 10.16 34.46 10.14 34.5 10.16 34.5 10.2 34.46 10.22 34.42 10.2" fill="none" stroke="#61dfff" stroke-miterlimit="10" stroke-width=".05"/><polygon points="35.85 10.27 35.85 10.09 36 10.01 36.15 10.09 36.15 10.27 36 10.35 35.85 10.27" fill="none" stroke="#61dfff" stroke-miterlimit="10" stroke-width=".05"/><polygon points="49.8 10.21 49.8 10.15 49.86 10.12 49.91 10.15 49.91 10.21 49.86 10.24 49.8 10.21" fill="none" stroke="#61dfff" stroke-miterlimit="10" stroke-width=".05"/><polygon points="51.17 10.31 51.17 10.05 51.4 9.91 51.62 10.05 51.62 10.31 51.4 10.44 51.17 10.31" fill="none" stroke="#61dfff" stroke-miterlimit="10" stroke-width=".05"/><polygon points="-.39 10.3 -.39 10.06 -.18 9.94 .03 10.06 .03 10.3 -.18 10.42 -.39 10.3" fill="none" stroke="#61dfff" stroke-miterlimit="10" stroke-width=".05"/><polygon points="2.03 10.24 2.03 10.12 2.13 10.06 2.23 10.12 2.23 10.24 2.13 10.29 2.03 10.24" fill="none" stroke="#61dfff" stroke-miterlimit="10" stroke-width=".05"/><polygon points="12.77 10.26 12.77 10.1 12.91 10.02 13.04 10.1 13.04 10.26 12.91 10.34 12.77 10.26" fill="none" stroke="#61dfff" stroke-miterlimit="10" stroke-width=".05"/><polygon points="13.47 10.3 13.47 10.06 13.68 9.94 13.88 10.06 13.88 10.3 13.68 10.41 13.47 10.3" fill="none" stroke="#61dfff" stroke-miterlimit="10" stroke-width=".05"/><polygon points="21.93 10.3 21.93 10.05 22.14 9.93 22.36 10.05 22.36 10.3 22.14 10.43 21.93 10.3" fill="none" stroke="#61dfff" stroke-miterlimit="10" stroke-width=".05"/><polygon points="22.81 10.24 22.81 10.12 22.91 10.06 23.02 10.12 23.02 10.24 22.91 10.3 22.81 10.24" fill="none" stroke="#61dfff" stroke-miterlimit="10" stroke-width=".05"/><polygon points="26.63 10.25 26.63 10.1 26.76 10.03 26.89 10.1 26.89 10.25 26.76 10.33 26.63 10.25" fill="none" stroke="#61dfff" stroke-miterlimit="10" stroke-width=".05"/><polygon points="28.61 10.89 28.61 10.8 28.69 10.76 28.76 10.8 28.76 10.89 28.69 10.94 28.61 10.89" fill="none" stroke="#61dfff" stroke-miterlimit="10" stroke-width=".05"/><polygon points="30.9 10.9 30.9 10.79 31 10.73 31.09 10.79 31.09 10.9 31 10.96 30.9 10.9" fill="none" stroke="#61dfff" stroke-miterlimit="10" stroke-width=".05"/><polygon points="34.68 10.94 34.68 10.75 34.84 10.66 35.01 10.75 35.01 10.94 34.84 11.03 34.68 10.94" fill="none" stroke="#61dfff" stroke-miterlimit="10" stroke-width=".05"/><polygon points="10.17 10.87 10.17 10.82 10.21 10.79 10.26 10.82 10.26 10.87 10.21 10.9 10.17 10.87" fill="none" stroke="#61dfff" stroke-miterlimit="10" stroke-width=".05"/><polygon points="12.46 10.88 12.46 10.81 12.52 10.78 12.58 10.81 12.58 10.88 12.52 10.91 12.46 10.88" fill="none" stroke="#61dfff" stroke-miterlimit="10" stroke-width=".05"/><polygon points="14.62 10.96 14.62 10.73 14.83 10.61 15.04 10.73 15.04 10.96 14.83 11.08 14.62 10.96" fill="none" stroke="#61dfff" stroke-miterlimit="10" stroke-width=".05"/><polygon points="18.49 10.95 18.49 10.74 18.68 10.63 18.86 10.74 18.86 10.95 18.68 11.06 18.49 10.95" fill="none" stroke="#61dfff" stroke-miterlimit="10" stroke-width=".05"/><polygon points="20 10.97 20 10.72 20.22 10.59 20.44 10.72 20.44 10.97 20.22 11.1 20 10.97" fill="none" stroke="#61dfff" stroke-miterlimit="10" stroke-width=".05"/><polygon points="20.88 10.91 20.88 10.78 20.99 10.72 21.1 10.78 21.1 10.91 20.99 10.97 20.88 10.91" fill="none" stroke="#61dfff" stroke-miterlimit="10" stroke-width=".05"/><polygon points="21.68 10.89 21.68 10.8 21.76 10.76 21.84 10.8 21.84 10.89 21.76 10.94 21.68 10.89" fill="none" stroke="#61dfff" stroke-miterlimit="10" stroke-width=".05"/><polygon points="11.12 11.65 11.12 11.37 11.37 11.23 11.61 11.37 11.61 11.65 11.37 11.79 11.12 11.65" fill="none" stroke="#61dfff" stroke-miterlimit="10" stroke-width=".05"/><polygon points="32.34 10.96 32.34 10.73 32.54 10.62 32.73 10.73 32.73 10.96 32.54 11.07 32.34 10.96" fill="none" stroke="#61dfff" stroke-miterlimit="10" stroke-width=".05"/><polygon points="33.05 10.99 33.05 10.7 33.31 10.55 33.56 10.7 33.56 10.99 33.31 11.14 33.05 10.99" fill="none" stroke="#61dfff" stroke-miterlimit="10" stroke-width=".05"/><polygon points="33.88 10.96 33.88 10.73 34.08 10.62 34.27 10.73 34.27 10.96 34.08 11.07 33.88 10.96" fill="none" stroke="#61dfff" stroke-miterlimit="10" stroke-width=".05"/><polygon points="31.15 11.64 31.15 11.38 31.38 11.25 31.61 11.38 31.61 11.64 31.38 11.77 31.15 11.64" fill="none" stroke="#61dfff" stroke-miterlimit="10" stroke-width=".05"/><polygon points="32.02 11.59 32.02 11.44 32.15 11.36 32.28 11.44 32.28 11.59 32.15 11.66 32.02 11.59" fill="none" stroke="#61dfff" stroke-miterlimit="10" stroke-width=".05"/><polygon points="33.59 11.57 33.59 11.46 33.69 11.4 33.79 11.46 33.79 11.57 33.69 11.63 33.59 11.57" fill="none" stroke="#61dfff" stroke-miterlimit="10" stroke-width=".05"/><polygon points="33.92 12.27 33.92 12.09 34.08 12 34.23 12.09 34.23 12.27 34.08 12.36 33.92 12.27" fill="none" stroke="#61dfff" stroke-miterlimit="10" stroke-width=".05"/><polygon points="31.35 6.19 31.35 6.16 31.38 6.15 31.41 6.16 31.41 6.19 31.38 6.21 31.35 6.19" fill="none" stroke="#61dfff" stroke-miterlimit="10" stroke-width=".05"/><polygon points="42.07 6.23 42.07 6.13 42.16 6.08 42.24 6.13 42.24 6.23 42.16 6.28 42.07 6.23" fill="none" stroke="#61dfff" stroke-miterlimit="10" stroke-width=".05"/><polygon points="42.82 6.24 42.82 6.12 42.93 6.06 43.04 6.12 43.04 6.24 42.93 6.3 42.82 6.24" fill="none" stroke="#61dfff" stroke-miterlimit="10" stroke-width=".05"/><polygon points=".52 6.22 .52 6.14 .59 6.1 .66 6.14 .66 6.22 .59 6.26 .52 6.22" fill="none" stroke="#61dfff" stroke-miterlimit="10" stroke-width=".05"/><polygon points="30.76 6.98 30.76 6.71 31 6.58 31.23 6.71 31.23 6.98 31 7.11 30.76 6.98" fill="none" stroke="#61dfff" stroke-miterlimit="10" stroke-width=".05"/><polygon points="33.97 6.91 33.97 6.78 34.08 6.72 34.18 6.78 34.18 6.91 34.08 6.97 33.97 6.91" fill="none" stroke="#61dfff" stroke-miterlimit="10" stroke-width=".05"/><polygon points="36.56 7.63 36.56 7.39 36.77 7.27 36.98 7.39 36.98 7.63 36.77 7.76 36.56 7.63" fill="none" stroke="#61dfff" stroke-miterlimit="10" stroke-width=".05"/><polygon points="38.95 7.59 38.95 7.44 39.08 7.37 39.21 7.44 39.21 7.59 39.08 7.66 38.95 7.59" fill="none" stroke="#61dfff" stroke-miterlimit="10" stroke-width=".05"/><polygon points="44.26 7.63 44.26 7.39 44.47 7.27 44.67 7.39 44.67 7.63 44.47 7.75 44.26 7.63" fill="none" stroke="#61dfff" stroke-miterlimit="10" stroke-width=".05"/><polygon points="48.26 7.55 48.26 7.48 48.32 7.44 48.38 7.48 48.38 7.55 48.32 7.58 48.26 7.55" fill="none" stroke="#61dfff" stroke-miterlimit="10" stroke-width=".05"/><polygon points="29.43 8.2 29.43 8.16 29.46 8.15 29.48 8.16 29.48 8.2 29.46 8.21 29.43 8.2" fill="none" stroke="#61dfff" stroke-miterlimit="10" stroke-width=".05"/><polygon points="37.05 8.24 37.05 8.12 37.15 8.05 37.26 8.12 37.26 8.24 37.15 8.3 37.05 8.24" fill="none" stroke="#61dfff" stroke-miterlimit="10" stroke-width=".05"/><polygon points="38.63 8.21 38.63 8.15 38.69 8.11 38.75 8.15 38.75 8.21 38.69 8.25 38.63 8.21" fill="none" stroke="#61dfff" stroke-miterlimit="10" stroke-width=".05"/><polygon points="40 8.31 40 8.05 40.23 7.91 40.46 8.05 40.46 8.31 40.23 8.45 40 8.31" fill="none" stroke="#61dfff" stroke-miterlimit="10" stroke-width=".05"/><polygon points="2.3 8.31 2.3 8.05 2.51 7.93 2.73 8.05 2.73 8.3 2.51 8.43 2.3 8.31" fill="none" stroke="#61dfff" stroke-miterlimit="10" stroke-width=".05"/><polygon points="7.87 8.2 7.87 8.16 7.9 8.14 7.93 8.16 7.93 8.2 7.9 8.22 7.87 8.2" fill="none" stroke="#61dfff" stroke-miterlimit="10" stroke-width=".05"/><polygon points="31.23 8.93 31.23 8.76 31.38 8.67 31.54 8.76 31.54 8.93 31.38 9.02 31.23 8.93" fill="none" stroke="#61dfff" stroke-miterlimit="10" stroke-width=".05"/><polygon points="38.84 8.98 38.84 8.71 39.08 8.57 39.32 8.71 39.32 8.98 39.08 9.12 38.84 8.98" fill="none" stroke="#61dfff" stroke-miterlimit="10" stroke-width=".05"/><polygon points="41.91 8.99 41.91 8.7 42.16 8.56 42.41 8.7 42.41 8.99 42.16 9.13 41.91 8.99" fill="none" stroke="#61dfff" stroke-miterlimit="10" stroke-width=".05"/><polygon points="44.23 8.98 44.23 8.71 44.47 8.58 44.7 8.71 44.7 8.98 44.47 9.11 44.23 8.98" fill="none" stroke="#61dfff" stroke-miterlimit="10" stroke-width=".05"/><polygon points="52 8.94 52 8.75 52.17 8.66 52.33 8.75 52.33 8.94 52.17 9.03 52 8.94" fill="none" stroke="#61dfff" stroke-miterlimit="10" stroke-width=".05"/><polygon points="52.79 8.93 52.79 8.77 52.93 8.68 53.08 8.77 53.08 8.93 52.93 9.01 52.79 8.93" fill="none" stroke="#61dfff" stroke-miterlimit="10" stroke-width=".05"/><polygon points=".42 8.94 .42 8.75 .59 8.65 .76 8.75 .76 8.94 .59 9.04 .42 8.94" fill="none" stroke="#61dfff" stroke-miterlimit="10" stroke-width=".05"/><polygon points="1.91 8.97 1.91 8.72 2.13 8.59 2.35 8.72 2.35 8.97 2.13 9.1 1.91 8.97" fill="none" stroke="#61dfff" stroke-miterlimit="10" stroke-width=".05"/><polygon points="6.62 8.92 6.62 8.77 6.75 8.7 6.87 8.77 6.87 8.92 6.75 8.99 6.62 8.92" fill="none" stroke="#61dfff" stroke-miterlimit="10" stroke-width=".05"/><polygon points="7.43 8.9 7.43 8.79 7.52 8.74 7.61 8.79 7.61 8.9 7.52 8.95 7.43 8.9" fill="none" stroke="#61dfff" stroke-miterlimit="10" stroke-width=".05"/><polygon points="14.4 8.87 14.4 8.82 14.44 8.79 14.5 8.82 14.5 8.88 14.44 8.9 14.4 8.87" fill="none" stroke="#61dfff" stroke-miterlimit="10" stroke-width=".05"/><polygon points="25.18 8.87 25.18 8.82 25.22 8.8 25.26 8.82 25.26 8.87 25.22 8.89 25.18 8.87" fill="none" stroke="#61dfff" stroke-miterlimit="10" stroke-width=".05"/><polygon points="30.83 9.61 30.83 9.42 31 9.32 31.16 9.42 31.16 9.61 31 9.7 30.83 9.61" fill="none" stroke="#61dfff" stroke-miterlimit="10" stroke-width=".05"/><polygon points="48.65 9.54 48.65 9.48 48.7 9.46 48.75 9.48 48.75 9.54 48.7 9.57 48.65 9.54" fill="none" stroke="#61dfff" stroke-miterlimit="10" stroke-width=".05"/><polygon points="49.43 9.54 49.43 9.49 49.47 9.46 49.52 9.49 49.52 9.54 49.47 9.56 49.43 9.54" fill="none" stroke="#61dfff" stroke-miterlimit="10" stroke-width=".05"/><polygon points="53.13 9.62 53.13 9.41 53.32 9.3 53.5 9.41 53.5 9.62 53.32 9.73 53.13 9.62" fill="none" stroke="#61dfff" stroke-miterlimit="10" stroke-width=".05"/><polygon points="5.48 9.58 5.48 9.45 5.59 9.38 5.7 9.45 5.7 9.58 5.59 9.64 5.48 9.58" fill="none" stroke="#61dfff" stroke-miterlimit="10" stroke-width=".05"/><polygon points="6.95 9.62 6.95 9.41 7.13 9.3 7.31 9.41 7.31 9.62 7.13 9.72 6.95 9.62" fill="none" stroke="#61dfff" stroke-miterlimit="10" stroke-width=".05"/><polygon points="17.83 9.56 17.83 9.47 17.91 9.42 17.99 9.47 17.99 9.56 17.91 9.6 17.83 9.56" fill="none" stroke="#61dfff" stroke-miterlimit="10" stroke-width=".05"/><polygon points="29.63 10.3 29.63 10.06 29.84 9.94 30.05 10.06 30.05 10.3 29.84 10.42 29.63 10.3" fill="none" stroke="#61dfff" stroke-miterlimit="10" stroke-width=".05"/><polygon points="31.14 10.32 31.14 10.04 31.38 9.9 31.63 10.04 31.63 10.32 31.38 10.46 31.14 10.32" fill="none" stroke="#61dfff" stroke-miterlimit="10" stroke-width=".05"/><polygon points="45.92 10.23 45.92 10.13 46.01 10.08 46.09 10.13 46.09 10.23 46.01 10.28 45.92 10.23" fill="none" stroke="#61dfff" stroke-miterlimit="10" stroke-width=".05"/><polygon points="48.23 10.23 48.23 10.13 48.32 10.08 48.4 10.13 48.4 10.23 48.32 10.28 48.23 10.23" fill="none" stroke="#61dfff" stroke-miterlimit="10" stroke-width=".05"/><polygon points="48.9 10.29 48.9 10.07 49.09 9.96 49.28 10.07 49.28 10.29 49.09 10.4 48.9 10.29" fill="none" stroke="#61dfff" stroke-miterlimit="10" stroke-width=".05"/><polygon points="50.58 10.21 50.58 10.15 50.63 10.12 50.67 10.15 50.67 10.21 50.63 10.23 50.58 10.21" fill="none" stroke="#61dfff" stroke-miterlimit="10" stroke-width=".05"/><polygon points="2.77 10.25 2.77 10.1 2.9 10.03 3.03 10.1 3.03 10.25 2.9 10.33 2.77 10.25" fill="none" stroke="#61dfff" stroke-miterlimit="10" stroke-width=".05"/><polygon points="3.55 10.25 3.55 10.11 3.67 10.04 3.79 10.11 3.79 10.25 3.67 10.32 3.55 10.25" fill="none" stroke="#61dfff" stroke-miterlimit="10" stroke-width=".05"/><polygon points="8.96 10.24 8.96 10.12 9.06 10.07 9.16 10.12 9.16 10.24 9.06 10.29 8.96 10.24" fill="none" stroke="#61dfff" stroke-miterlimit="10" stroke-width=".05"/><polygon points="11.26 10.24 11.26 10.12 11.37 10.06 11.47 10.12 11.47 10.24 11.37 10.3 11.26 10.24" fill="none" stroke="#61dfff" stroke-miterlimit="10" stroke-width=".05"/><polygon points="14.21 10.32 14.21 10.04 14.44 9.91 14.68 10.04 14.68 10.32 14.44 10.45 14.21 10.32" fill="none" stroke="#61dfff" stroke-miterlimit="10" stroke-width=".05"/><polygon points="15.82 10.27 15.82 10.08 15.98 9.99 16.15 10.08 16.15 10.27 15.98 10.37 15.82 10.27" fill="none" stroke="#61dfff" stroke-miterlimit="10" stroke-width=".05"/><polygon points="18.24 10.21 18.24 10.15 18.29 10.12 18.34 10.15 18.34 10.21 18.29 10.24 18.24 10.21" fill="none" stroke="#61dfff" stroke-miterlimit="10" stroke-width=".05"/><polygon points="27.74 10.95 27.74 10.74 27.92 10.64 28.09 10.74 28.09 10.95 27.92 11.05 27.74 10.95" fill="none" stroke="#61dfff" stroke-miterlimit="10" stroke-width=".05"/><polygon points="29.33 10.92 29.33 10.77 29.46 10.7 29.58 10.77 29.58 10.92 29.46 10.99 29.33 10.92" fill="none" stroke="#61dfff" stroke-miterlimit="10" stroke-width=".05"/><polygon points="35.58 10.87 35.58 10.82 35.61 10.8 35.65 10.82 35.65 10.87 35.61 10.89 35.58 10.87" fill="none" stroke="#61dfff" stroke-miterlimit="10" stroke-width=".05"/><polygon points="10.88 10.91 10.88 10.79 10.98 10.72 11.09 10.79 11.09 10.91 10.98 10.97 10.88 10.91" fill="none" stroke="#61dfff" stroke-miterlimit="10" stroke-width=".05"/><polygon points="24 10.88 24 10.81 24.07 10.77 24.13 10.81 24.13 10.88 24.07 10.92 24 10.88" fill="none" stroke="#61dfff" stroke-miterlimit="10" stroke-width=".05"/><polygon points="41.57 9.63 41.57 9.4 41.77 9.28 41.98 9.4 41.98 9.63 41.77 9.75 41.57 9.63" fill="none" stroke="#61dfff" stroke-miterlimit="10" stroke-width=".05"/><polygon points="20.37 11.65 20.37 11.38 20.6 11.24 20.84 11.38 20.84 11.65 20.6 11.78 20.37 11.65" fill="none" stroke="#61dfff" stroke-miterlimit="10" stroke-width=".05"/><polygon points="10.54 6.21 10.54 6.14 10.6 6.11 10.66 6.14 10.66 6.21 10.6 6.25 10.54 6.21" fill="none" stroke="#61dfff" stroke-miterlimit="10" stroke-width=".05"/><polygon points="12.88 6.19 12.88 6.17 12.91 6.15 12.93 6.17 12.93 6.19 12.91 6.21 12.88 6.19" fill="none" stroke="#61dfff" stroke-miterlimit="10" stroke-width=".05"/><polygon points="15.08 6.26 15.08 6.1 15.22 6.02 15.35 6.1 15.35 6.26 15.22 6.34 15.08 6.26" fill="none" stroke="#61dfff" stroke-miterlimit="10" stroke-width=".05"/><polygon points="22.08 6.21 22.08 6.14 22.14 6.11 22.2 6.14 22.2 6.21 22.14 6.25 22.08 6.21" fill="none" stroke="#61dfff" stroke-miterlimit="10" stroke-width=".05"/><polygon points="25.84 6.27 25.84 6.09 25.99 6 26.14 6.09 26.14 6.27 25.99 6.35 25.84 6.27" fill="none" stroke="#61dfff" stroke-miterlimit="10" stroke-width=".05"/><polygon points="7.06 6.89 7.06 6.8 7.13 6.76 7.21 6.8 7.21 6.89 7.13 6.93 7.06 6.89" fill="none" stroke="#61dfff" stroke-miterlimit="10" stroke-width=".05"/><polygon points="10.93 6.87 10.93 6.82 10.98 6.79 11.03 6.82 11.03 6.87 10.98 6.9 10.93 6.87" fill="none" stroke="#61dfff" stroke-miterlimit="10" stroke-width=".05"/><polygon points="11.73 6.86 11.73 6.83 11.75 6.82 11.77 6.83 11.77 6.86 11.75 6.87 11.73 6.86" fill="none" stroke="#61dfff" stroke-miterlimit="10" stroke-width=".05"/><polygon points="16.27 6.9 16.27 6.79 16.37 6.73 16.47 6.79 16.47 6.9 16.37 6.96 16.27 6.9" fill="none" stroke="#61dfff" stroke-miterlimit="10" stroke-width=".05"/><polygon points="25.51 6.9 25.51 6.79 25.61 6.74 25.7 6.79 25.7 6.9 25.61 6.95 25.51 6.9" fill="none" stroke="#61dfff" stroke-miterlimit="10" stroke-width=".05"/><polygon points="19.79 7.54 19.79 7.49 19.83 7.46 19.88 7.49 19.88 7.54 19.83 7.56 19.79 7.54" fill="none" stroke="#61dfff" stroke-miterlimit="10" stroke-width=".05"/><polygon points="22.08 7.55 22.08 7.48 22.14 7.44 22.21 7.48 22.21 7.55 22.14 7.59 22.08 7.55" fill="none" stroke="#61dfff" stroke-miterlimit="10" stroke-width=".05"/><polygon points="22.87 7.53 22.87 7.49 22.91 7.47 22.95 7.49 22.95 7.53 22.91 7.56 22.87 7.53" fill="none" stroke="#61dfff" stroke-miterlimit="10" stroke-width=".05"/><polygon points="25.91 7.56 25.91 7.47 25.99 7.42 26.07 7.47 26.07 7.56 25.99 7.6 25.91 7.56" fill="none" stroke="#61dfff" stroke-miterlimit="10" stroke-width=".05"/><polygon points="19.33 8.25 19.33 8.11 19.45 8.04 19.57 8.11 19.57 8.25 19.45 8.31 19.33 8.25" fill="none" stroke="#61dfff" stroke-miterlimit="10" stroke-width=".05"/><polygon points="21.71 8.21 21.71 8.15 21.76 8.13 21.8 8.15 21.8 8.21 21.76 8.23 21.71 8.21" fill="none" stroke="#61dfff" stroke-miterlimit="10" stroke-width=".05"/><polygon points="22.48 8.21 22.48 8.15 22.53 8.12 22.58 8.15 22.58 8.21 22.53 8.24 22.48 8.21" fill="none" stroke="#61dfff" stroke-miterlimit="10" stroke-width=".05"/><polygon points="25.54 8.22 25.54 8.14 25.61 8.1 25.68 8.14 25.68 8.22 25.61 8.26 25.54 8.22" fill="none" stroke="#61dfff" stroke-miterlimit="10" stroke-width=".05"/><polygon points="20.49 8.91 20.49 8.78 20.6 8.71 20.72 8.78 20.72 8.91 20.6 8.98 20.49 8.91" fill="none" stroke="#61dfff" stroke-miterlimit="10" stroke-width=".05"/><polygon points="21.29 8.9 21.29 8.8 21.37 8.74 21.46 8.8 21.46 8.9 21.37 8.95 21.29 8.9" fill="none" stroke="#61dfff" stroke-miterlimit="10" stroke-width=".05"/><polygon points="22.87 8.87 22.87 8.82 22.91 8.8 22.95 8.82 22.95 8.87 22.91 8.89 22.87 8.87" fill="none" stroke="#61dfff" stroke-miterlimit="10" stroke-width=".05"/><polygon points="8.59 6.89 8.59 6.8 8.67 6.76 8.75 6.8 8.75 6.89 8.67 6.94 8.59 6.89" fill="none" stroke="#61dfff" stroke-miterlimit="10" stroke-width=".05"/><polygon points="12.42 6.9 12.42 6.79 12.52 6.73 12.62 6.79 12.62 6.9 12.52 6.96 12.42 6.9" fill="none" stroke="#61dfff" stroke-miterlimit="10" stroke-width=".05"/><polygon points="21.33 7.54 21.33 7.49 21.37 7.47 21.41 7.49 21.41 7.54 21.37 7.56 21.33 7.54" fill="none" stroke="#61dfff" stroke-miterlimit="10" stroke-width=".05"/><polygon points="44.98 10.33 44.98 10.03 45.24 9.89 45.49 10.03 45.49 10.33 45.24 10.47 44.98 10.33" fill="none" stroke="#61dfff" stroke-miterlimit="10" stroke-width=".05"/><polygon points="44.6 10.99 44.6 10.7 44.85 10.55 45.11 10.7 45.11 10.99 44.85 11.14 44.6 10.99" fill="none" stroke="#61dfff" stroke-miterlimit="10" stroke-width=".05"/><polygon points="37.29 11.66 37.29 11.37 37.54 11.22 37.79 11.37 37.79 11.66 37.54 11.8 37.29 11.66" fill="none" stroke="#61dfff" stroke-miterlimit="10" stroke-width=".05"/><polygon points="49.6 11.66 49.6 11.37 49.86 11.22 50.11 11.37 50.11 11.66 49.86 11.8 49.6 11.66" fill="none" stroke="#61dfff" stroke-miterlimit="10" stroke-width=".05"/><polygon points="50.37 11.66 50.37 11.37 50.63 11.22 50.88 11.37 50.88 11.66 50.63 11.8 50.37 11.66" fill="none" stroke="#61dfff" stroke-miterlimit="10" stroke-width=".05"/><polygon points="27.66 12.33 27.66 12.03 27.92 11.89 28.17 12.03 28.17 12.33 27.92 12.47 27.66 12.33" fill="none" stroke="#61dfff" stroke-miterlimit="10" stroke-width=".05"/><polygon points="36.13 12.33 36.13 12.03 36.38 11.89 36.64 12.03 36.64 12.33 36.38 12.47 36.13 12.33" fill="none" stroke="#61dfff" stroke-miterlimit="10" stroke-width=".05"/><polygon points="36.9 12.33 36.9 12.03 37.15 11.89 37.41 12.03 37.41 12.33 37.15 12.47 36.9 12.33" fill="none" stroke="#61dfff" stroke-miterlimit="10" stroke-width=".05"/><polygon points="37.67 12.33 37.67 12.03 37.92 11.89 38.18 12.03 38.18 12.33 37.92 12.47 37.67 12.33" fill="none" stroke="#61dfff" stroke-miterlimit="10" stroke-width=".05"/><polygon points="45.37 12.33 45.37 12.03 45.62 11.89 45.88 12.03 45.88 12.33 45.62 12.47 45.37 12.33" fill="none" stroke="#61dfff" stroke-miterlimit="10" stroke-width=".05"/><polygon points="46.14 12.33 46.14 12.03 46.39 11.89 46.64 12.03 46.64 12.33 46.39 12.47 46.14 12.33" fill="none" stroke="#61dfff" stroke-miterlimit="10" stroke-width=".05"/><polygon points="46.91 12.33 46.91 12.03 47.16 11.89 47.42 12.03 47.42 12.33 47.16 12.47 46.91 12.33" fill="none" stroke="#61dfff" stroke-miterlimit="10" stroke-width=".05"/><polygon points="47.68 12.33 47.68 12.03 47.93 11.89 48.18 12.03 48.18 12.33 47.93 12.47 47.68 12.33" fill="none" stroke="#61dfff" stroke-miterlimit="10" stroke-width=".05"/><polygon points="49.22 12.33 49.22 12.03 49.47 11.89 49.72 12.03 49.72 12.33 49.47 12.47 49.22 12.33" fill="none" stroke="#61dfff" stroke-miterlimit="10" stroke-width=".05"/><polygon points="50.76 12.33 50.76 12.03 51.01 11.89 51.26 12.03 51.26 12.33 51.01 12.47 50.76 12.33" fill="none" stroke="#61dfff" stroke-miterlimit="10" stroke-width=".05"/><polygon points="53.07 12.33 53.07 12.03 53.32 11.89 53.57 12.03 53.57 12.33 53.32 12.47 53.07 12.33" fill="none" stroke="#61dfff" stroke-miterlimit="10" stroke-width=".05"/><polygon points="54.61 12.33 54.61 12.03 54.86 11.89 55.11 12.03 55.11 12.33 54.86 12.47 54.61 12.33" fill="none" stroke="#61dfff" stroke-miterlimit="10" stroke-width=".05"/><polygon points="41.9 10.33 41.9 10.03 42.16 9.89 42.41 10.03 42.41 10.33 42.16 10.47 41.9 10.33" fill="none" stroke="#61dfff" stroke-miterlimit="10" stroke-width=".05"/><polygon points="42.29 10.99 42.29 10.7 42.54 10.55 42.8 10.7 42.8 10.99 42.54 11.14 42.29 10.99" fill="none" stroke="#61dfff" stroke-miterlimit="10" stroke-width=".05"/><polygon points="43.83 10.99 43.83 10.7 44.08 10.55 44.34 10.7 44.34 10.99 44.08 11.14 43.83 10.99" fill="none" stroke="#61dfff" stroke-miterlimit="10" stroke-width=".05"/><polygon points="40.37 11.66 40.37 11.37 40.62 11.22 40.87 11.37 40.87 11.66 40.62 11.8 40.37 11.66" fill="none" stroke="#61dfff" stroke-miterlimit="10" stroke-width=".05"/><polygon points="41.13 11.66 41.13 11.37 41.39 11.22 41.64 11.37 41.64 11.66 41.39 11.8 41.13 11.66" fill="none" stroke="#61dfff" stroke-miterlimit="10" stroke-width=".05"/><polygon points="29.97 12.33 29.97 12.03 30.23 11.89 30.48 12.03 30.48 12.33 30.23 12.47 29.97 12.33" fill="none" stroke="#61dfff" stroke-miterlimit="10" stroke-width=".05"/><polygon points="39.21 12.33 39.21 12.03 39.46 11.89 39.72 12.03 39.72 12.33 39.46 12.47 39.21 12.33" fill="none" stroke="#61dfff" stroke-miterlimit="10" stroke-width=".05"/><polygon points="40.75 12.33 40.75 12.03 41 11.89 41.26 12.03 41.26 12.33 41 12.47 40.75 12.33" fill="none" stroke="#61dfff" stroke-miterlimit="10" stroke-width=".05"/><polygon points="43.06 12.33 43.06 12.03 43.31 11.89 43.57 12.03 43.57 12.33 43.31 12.47 43.06 12.33" fill="none" stroke="#61dfff" stroke-miterlimit="10" stroke-width=".05"/><polygon points="43.44 10.33 43.44 10.03 43.7 9.89 43.95 10.03 43.95 10.33 43.7 10.47 43.44 10.33" fill="none" stroke="#61dfff" stroke-miterlimit="10" stroke-width=".05"/><polygon points="49.22 10.99 49.22 10.7 49.47 10.55 49.72 10.7 49.72 10.99 49.47 11.14 49.22 10.99" fill="none" stroke="#61dfff" stroke-miterlimit="10" stroke-width=".05"/><polygon points="50.76 10.99 50.76 10.7 51.01 10.55 51.26 10.7 51.26 10.99 51.01 11.14 50.76 10.99" fill="none" stroke="#61dfff" stroke-miterlimit="10" stroke-width=".05"/><polygon points="51.53 10.99 51.53 10.7 51.78 10.55 52.03 10.7 52.03 10.99 51.78 11.14 51.53 10.99" fill="none" stroke="#61dfff" stroke-miterlimit="10" stroke-width=".05"/><polygon points="45.75 11.66 45.75 11.37 46.01 11.22 46.26 11.37 46.26 11.66 46.01 11.8 45.75 11.66" fill="none" stroke="#61dfff" stroke-miterlimit="10" stroke-width=".05"/><polygon points="51.14 11.66 51.14 11.37 51.4 11.22 51.65 11.37 51.65 11.66 51.4 11.8 51.14 11.66" fill="none" stroke="#61dfff" stroke-miterlimit="10" stroke-width=".05"/><polygon points="48.45 12.33 48.45 12.03 48.7 11.89 48.96 12.03 48.96 12.33 48.7 12.47 48.45 12.33" fill="none" stroke="#61dfff" stroke-miterlimit="10" stroke-width=".05"/><polygon points="49.99 12.33 49.99 12.03 50.24 11.89 50.49 12.03 50.49 12.33 50.24 12.47 49.99 12.33" fill="none" stroke="#61dfff" stroke-miterlimit="10" stroke-width=".05"/><polygon points="53.84 12.33 53.84 12.03 54.09 11.89 54.34 12.03 54.34 12.33 54.09 12.47 53.84 12.33" fill="none" stroke="#61dfff" stroke-miterlimit="10" stroke-width=".05"/><polygon points="38.83 11.66 38.83 11.37 39.08 11.22 39.33 11.37 39.33 11.66 39.08 11.8 38.83 11.66" fill="none" stroke="#61dfff" stroke-miterlimit="10" stroke-width=".05"/><polygon points="42.67 11.66 42.67 11.37 42.93 11.22 43.18 11.37 43.18 11.66 42.93 11.8 42.67 11.66" fill="none" stroke="#61dfff" stroke-miterlimit="10" stroke-width=".05"/><polygon points="43.44 11.66 43.44 11.37 43.7 11.22 43.95 11.37 43.95 11.66 43.7 11.8 43.44 11.66" fill="none" stroke="#61dfff" stroke-miterlimit="10" stroke-width=".05"/><polygon points="44.21 11.66 44.21 11.37 44.47 11.22 44.72 11.37 44.72 11.66 44.47 11.8 44.21 11.66" fill="none" stroke="#61dfff" stroke-miterlimit="10" stroke-width=".05"/><polygon points="39.98 12.33 39.98 12.03 40.23 11.89 40.49 12.03 40.49 12.33 40.23 12.47 39.98 12.33" fill="none" stroke="#61dfff" stroke-miterlimit="10" stroke-width=".05"/><polygon points="43.83 12.33 43.83 12.03 44.08 11.89 44.34 12.03 44.34 12.33 44.08 12.47 43.83 12.33" fill="none" stroke="#61dfff" stroke-miterlimit="10" stroke-width=".05"/><polygon points="7.26 10.33 7.26 10.03 7.52 9.89 7.77 10.03 7.77 10.33 7.52 10.47 7.26 10.33" fill="none" stroke="#61dfff" stroke-miterlimit="10" stroke-width=".05"/><polygon points="-.05 10.99 -.05 10.7 .2 10.55 .46 10.7 .46 10.99 .2 11.14 -.05 10.99" fill="none" stroke="#61dfff" stroke-miterlimit="10" stroke-width=".05"/><polygon points=".72 10.99 .72 10.7 .97 10.55 1.23 10.7 1.23 10.99 .97 11.14 .72 10.99" fill="none" stroke="#61dfff" stroke-miterlimit="10" stroke-width=".05"/><polygon points="1.49 10.99 1.49 10.7 1.74 10.55 2 10.7 2 10.99 1.74 11.14 1.49 10.99" fill="none" stroke="#61dfff" stroke-miterlimit="10" stroke-width=".05"/><polygon points="3.03 10.99 3.03 10.7 3.28 10.55 3.54 10.7 3.54 10.99 3.28 11.14 3.03 10.99" fill="none" stroke="#61dfff" stroke-miterlimit="10" stroke-width=".05"/><polygon points="8.42 10.99 8.42 10.7 8.67 10.55 8.92 10.7 8.92 10.99 8.67 11.14 8.42 10.99" fill="none" stroke="#61dfff" stroke-miterlimit="10" stroke-width=".05"/><polygon points="15.35 10.99 15.35 10.7 15.6 10.55 15.85 10.7 15.85 10.99 15.6 11.14 15.35 10.99" fill="none" stroke="#61dfff" stroke-miterlimit="10" stroke-width=".05"/><polygon points="16.12 10.99 16.12 10.7 16.37 10.55 16.62 10.7 16.62 10.99 16.37 11.14 16.12 10.99" fill="none" stroke="#61dfff" stroke-miterlimit="10" stroke-width=".05"/><polygon points="24.58 10.99 24.58 10.7 24.84 10.55 25.09 10.7 25.09 10.99 24.84 11.14 24.58 10.99" fill="none" stroke="#61dfff" stroke-miterlimit="10" stroke-width=".05"/><polygon points="25.35 10.99 25.35 10.7 25.61 10.55 25.86 10.7 25.86 10.99 25.61 11.14 25.35 10.99" fill="none" stroke="#61dfff" stroke-miterlimit="10" stroke-width=".05"/><polygon points="3.42 11.66 3.42 11.37 3.67 11.22 3.92 11.37 3.92 11.66 3.67 11.8 3.42 11.66" fill="none" stroke="#61dfff" stroke-miterlimit="10" stroke-width=".05"/><polygon points="4.19 11.66 4.19 11.37 4.44 11.22 4.69 11.37 4.69 11.66 4.44 11.8 4.19 11.66" fill="none" stroke="#61dfff" stroke-miterlimit="10" stroke-width=".05"/><polygon points="4.95 11.66 4.95 11.37 5.21 11.22 5.46 11.37 5.46 11.66 5.21 11.8 4.95 11.66" fill="none" stroke="#61dfff" stroke-miterlimit="10" stroke-width=".05"/><polygon points="8.8 11.66 8.8 11.37 9.06 11.22 9.31 11.37 9.31 11.66 9.06 11.8 8.8 11.66" fill="none" stroke="#61dfff" stroke-miterlimit="10" stroke-width=".05"/><polygon points="12.65 11.66 12.65 11.37 12.91 11.22 13.16 11.37 13.16 11.66 12.91 11.8 12.65 11.66" fill="none" stroke="#61dfff" stroke-miterlimit="10" stroke-width=".05"/><polygon points="14.96 11.66 14.96 11.37 15.22 11.22 15.47 11.37 15.47 11.66 15.22 11.8 14.96 11.66" fill="none" stroke="#61dfff" stroke-miterlimit="10" stroke-width=".05"/><polygon points="18.04 11.66 18.04 11.37 18.29 11.22 18.55 11.37 18.55 11.66 18.29 11.8 18.04 11.66" fill="none" stroke="#61dfff" stroke-miterlimit="10" stroke-width=".05"/><polygon points="25.74 11.66 25.74 11.37 25.99 11.22 26.24 11.37 26.24 11.66 25.99 11.8 25.74 11.66" fill="none" stroke="#61dfff" stroke-miterlimit="10" stroke-width=".05"/><polygon points="26.51 11.66 26.51 11.37 26.76 11.22 27.02 11.37 27.02 11.66 26.76 11.8 26.51 11.66" fill="none" stroke="#61dfff" stroke-miterlimit="10" stroke-width=".05"/><polygon points="4.57 12.33 4.57 12.03 4.82 11.89 5.08 12.03 5.08 12.33 4.82 12.47 4.57 12.33" fill="none" stroke="#61dfff" stroke-miterlimit="10" stroke-width=".05"/><polygon points="5.34 12.33 5.34 12.03 5.59 11.89 5.85 12.03 5.85 12.33 5.59 12.47 5.34 12.33" fill="none" stroke="#61dfff" stroke-miterlimit="10" stroke-width=".05"/><polygon points="9.96 12.33 9.96 12.03 10.21 11.89 10.46 12.03 10.46 12.33 10.21 12.47 9.96 12.33" fill="none" stroke="#61dfff" stroke-miterlimit="10" stroke-width=".05"/><polygon points="14.58 12.33 14.58 12.03 14.83 11.89 15.08 12.03 15.08 12.33 14.83 12.47 14.58 12.33" fill="none" stroke="#61dfff" stroke-miterlimit="10" stroke-width=".05"/><polygon points="16.89 12.33 16.89 12.03 17.14 11.89 17.39 12.03 17.39 12.33 17.14 12.47 16.89 12.33" fill="none" stroke="#61dfff" stroke-miterlimit="10" stroke-width=".05"/><polygon points="17.66 12.33 17.66 12.03 17.91 11.89 18.16 12.03 18.16 12.33 17.91 12.47 17.66 12.33" fill="none" stroke="#61dfff" stroke-miterlimit="10" stroke-width=".05"/><polygon points=".34 11.66 .34 11.37 .59 11.22 .84 11.37 .84 11.66 .59 11.8 .34 11.66" fill="none" stroke="#61dfff" stroke-miterlimit="10" stroke-width=".05"/><polygon points="22.66 11.66 22.66 11.37 22.91 11.22 23.17 11.37 23.17 11.66 22.91 11.8 22.66 11.66" fill="none" stroke="#61dfff" stroke-miterlimit="10" stroke-width=".05"/><polygon points="-.05 12.33 -.05 12.03 .2 11.89 .46 12.03 .46 12.33 .2 12.47 -.05 12.33" fill="none" stroke="#61dfff" stroke-miterlimit="10" stroke-width=".05"/><polygon points=".72 12.33 .72 12.03 .97 11.89 1.23 12.03 1.23 12.33 .97 12.47 .72 12.33" fill="none" stroke="#61dfff" stroke-miterlimit="10" stroke-width=".05"/><polygon points="2.26 12.33 2.26 12.03 2.51 11.89 2.77 12.03 2.77 12.33 2.51 12.47 2.26 12.33" fill="none" stroke="#61dfff" stroke-miterlimit="10" stroke-width=".05"/><polygon points="13.04 12.33 13.04 12.03 13.29 11.89 13.54 12.03 13.54 12.33 13.29 12.47 13.04 12.33" fill="none" stroke="#61dfff" stroke-miterlimit="10" stroke-width=".05"/><polygon points="2.26 10.99 2.26 10.7 2.51 10.55 2.77 10.7 2.77 10.99 2.51 11.14 2.26 10.99" fill="none" stroke="#61dfff" stroke-miterlimit="10" stroke-width=".05"/><polygon points="5.34 10.99 5.34 10.7 5.59 10.55 5.85 10.7 5.85 10.99 5.59 11.14 5.34 10.99" fill="none" stroke="#61dfff" stroke-miterlimit="10" stroke-width=".05"/><polygon points="27.28 11.66 27.28 11.37 27.53 11.22 27.79 11.37 27.79 11.66 27.53 11.8 27.28 11.66" fill="none" stroke="#61dfff" stroke-miterlimit="10" stroke-width=".05"/><polygon points="7.65 12.33 7.65 12.03 7.9 11.89 8.15 12.03 8.15 12.33 7.9 12.47 7.65 12.33" fill="none" stroke="#61dfff" stroke-miterlimit="10" stroke-width=".05"/><polygon points="9.19 12.33 9.19 12.03 9.44 11.89 9.69 12.03 9.69 12.33 9.44 12.47 9.19 12.33" fill="none" stroke="#61dfff" stroke-miterlimit="10" stroke-width=".05"/><polygon points="16.12 12.33 16.12 12.03 16.37 11.89 16.62 12.03 16.62 12.33 16.37 12.47 16.12 12.33" fill="none" stroke="#61dfff" stroke-miterlimit="10" stroke-width=".05"/><polygon points="26.12 12.33 26.12 12.03 26.38 11.89 26.63 12.03 26.63 12.33 26.38 12.47 26.12 12.33" fill="none" stroke="#61dfff" stroke-miterlimit="10" stroke-width=".05"/><polygon points="1.88 11.66 1.88 11.37 2.13 11.22 2.38 11.37 2.38 11.66 2.13 11.8 1.88 11.66" fill="none" stroke="#61dfff" stroke-miterlimit="10" stroke-width=".05"/><polygon points="21.12 11.66 21.12 11.37 21.37 11.22 21.63 11.37 21.63 11.66 21.37 11.8 21.12 11.66" fill="none" stroke="#61dfff" stroke-miterlimit="10" stroke-width=".05"/><polygon points="19.2 12.33 19.2 12.03 19.45 11.89 19.7 12.03 19.7 12.33 19.45 12.47 19.2 12.33" fill="none" stroke="#61dfff" stroke-miterlimit="10" stroke-width=".05"/><polygon points="34.38 6.23 34.38 6.13 34.46 6.09 34.54 6.13 34.54 6.23 34.46 6.27 34.38 6.23" fill="none" stroke="#61dfff" stroke-miterlimit="10" stroke-width=".05"/><polygon points="35.9 6.24 35.9 6.12 36 6.07 36.1 6.12 36.1 6.24 36 6.29 35.9 6.24" fill="none" stroke="#61dfff" stroke-miterlimit="10" stroke-width=".05"/><polygon points="40.48 6.26 40.48 6.1 40.62 6.02 40.75 6.1 40.75 6.26 40.62 6.34 40.48 6.26" fill="none" stroke="#61dfff" stroke-miterlimit="10" stroke-width=".05"/><polygon points="45.17 6.22 45.17 6.14 45.24 6.1 45.31 6.14 45.31 6.22 45.24 6.26 45.17 6.22" fill="none" stroke="#61dfff" stroke-miterlimit="10" stroke-width=".05"/><polygon points="45.88 6.25 45.88 6.1 46.01 6.03 46.14 6.1 46.14 6.25 46.01 6.33 45.88 6.25" fill="none" stroke="#61dfff" stroke-miterlimit="10" stroke-width=".05"/><polygon points="34.76 6.9 34.76 6.8 34.84 6.75 34.93 6.8 34.93 6.9 34.84 6.95 34.76 6.9" fill="none" stroke="#61dfff" stroke-miterlimit="10" stroke-width=".05"/><polygon points="36.94 6.97 36.94 6.72 37.15 6.6 37.37 6.72 37.37 6.97 37.15 7.09 36.94 6.97" fill="none" stroke="#61dfff" stroke-miterlimit="10" stroke-width=".05"/><polygon points="50.89 6.91 50.89 6.78 51.01 6.71 51.13 6.78 51.13 6.91 51.01 6.98 50.89 6.91" fill="none" stroke="#61dfff" stroke-miterlimit="10" stroke-width=".05"/><polygon points=".09 6.91 .09 6.78 .2 6.71 .32 6.78 .32 6.91 .2 6.98 .09 6.91" fill="none" stroke="#61dfff" stroke-miterlimit="10" stroke-width=".05"/><polygon points="1.71 6.87 1.71 6.82 1.74 6.8 1.78 6.82 1.78 6.87 1.74 6.89 1.71 6.87" fill="none" stroke="#61dfff" stroke-miterlimit="10" stroke-width=".05"/><polygon points="37.42 7.58 37.42 7.44 37.54 7.37 37.66 7.44 37.66 7.58 37.54 7.66 37.42 7.58" fill="none" stroke="#61dfff" stroke-miterlimit="10" stroke-width=".05"/><polygon points="40.51 7.58 40.51 7.45 40.62 7.39 40.73 7.45 40.73 7.58 40.62 7.64 40.51 7.58" fill="none" stroke="#61dfff" stroke-miterlimit="10" stroke-width=".05"/><polygon points="41.98 7.62 41.98 7.41 42.16 7.31 42.34 7.41 42.34 7.62 42.16 7.72 41.98 7.62" fill="none" stroke="#61dfff" stroke-miterlimit="10" stroke-width=".05"/><polygon points="45.14 7.57 45.14 7.45 45.24 7.4 45.34 7.45 45.34 7.57 45.24 7.63 45.14 7.57" fill="none" stroke="#61dfff" stroke-miterlimit="10" stroke-width=".05"/><polygon points="51.3 7.57 51.3 7.46 51.4 7.4 51.49 7.46 51.49 7.57 51.4 7.62 51.3 7.57" fill="none" stroke="#61dfff" stroke-miterlimit="10" stroke-width=".05"/><polygon points="52.1 7.55 52.1 7.47 52.17 7.43 52.24 7.47 52.24 7.55 52.17 7.59 52.1 7.55" fill="none" stroke="#61dfff" stroke-miterlimit="10" stroke-width=".05"/><polygon points="2.8 7.57 2.8 7.46 2.9 7.4 2.99 7.46 2.99 7.57 2.9 7.62 2.8 7.57" fill="none" stroke="#61dfff" stroke-miterlimit="10" stroke-width=".05"/><polygon points="34.65 8.29 34.65 8.07 34.84 7.96 35.03 8.07 35.03 8.29 34.84 8.4 34.65 8.29" fill="none" stroke="#61dfff" stroke-miterlimit="10" stroke-width=".05"/><polygon points="35.59 8.2 35.59 8.16 35.61 8.15 35.64 8.16 35.64 8.2 35.61 8.21 35.59 8.2" fill="none" stroke="#61dfff" stroke-miterlimit="10" stroke-width=".05"/><polygon points="36.25 8.26 36.25 8.1 36.38 8.02 36.52 8.1 36.52 8.26 36.38 8.34 36.25 8.26" fill="none" stroke="#61dfff" stroke-miterlimit="10" stroke-width=".05"/><polygon points="39.34 8.25 39.34 8.11 39.46 8.03 39.59 8.11 39.59 8.25 39.46 8.32 39.34 8.25" fill="none" stroke="#61dfff" stroke-miterlimit="10" stroke-width=".05"/><polygon points="43.24 8.22 43.24 8.14 43.31 8.09 43.39 8.14 43.39 8.22 43.31 8.26 43.24 8.22" fill="none" stroke="#61dfff" stroke-miterlimit="10" stroke-width=".05"/><polygon points="44.02 8.21 44.02 8.15 44.08 8.11 44.14 8.15 44.14 8.21 44.08 8.25 44.02 8.21" fill="none" stroke="#61dfff" stroke-miterlimit="10" stroke-width=".05"/><polygon points="44.64 8.3 44.64 8.05 44.85 7.93 45.07 8.05 45.07 8.3 44.85 8.43 44.64 8.3" fill="none" stroke="#61dfff" stroke-miterlimit="10" stroke-width=".05"/><polygon points="45.43 8.29 45.43 8.07 45.62 7.96 45.82 8.07 45.82 8.29 45.62 8.4 45.43 8.29" fill="none" stroke="#61dfff" stroke-miterlimit="10" stroke-width=".05"/><polygon points="50.84 8.28 50.84 8.08 51.01 7.99 51.18 8.08 51.18 8.28 51.01 8.37 50.84 8.28" fill="none" stroke="#61dfff" stroke-miterlimit="10" stroke-width=".05"/><polygon points="51.72 8.21 51.72 8.15 51.78 8.11 51.84 8.15 51.84 8.21 51.78 8.24 51.72 8.21" fill="none" stroke="#61dfff" stroke-miterlimit="10" stroke-width=".05"/><polygon points="54.65 8.3 54.65 8.06 54.86 7.94 55.07 8.06 55.07 8.3 54.86 8.42 54.65 8.3" fill="none" stroke="#61dfff" stroke-miterlimit="10" stroke-width=".05"/><polygon points="0 8.3 0 8.06 .2 7.94 .41 8.06 .41 8.3 .2 8.42 0 8.3" fill="none" stroke="#61dfff" stroke-miterlimit="10" stroke-width=".05"/><polygon points="5.54 8.21 5.54 8.15 5.59 8.12 5.64 8.15 5.64 8.21 5.59 8.24 5.54 8.21" fill="none" stroke="#61dfff" stroke-miterlimit="10" stroke-width=".05"/><polygon points="8.45 8.31 8.45 8.05 8.67 7.92 8.9 8.05 8.9 8.31 8.67 8.44 8.45 8.31" fill="none" stroke="#61dfff" stroke-miterlimit="10" stroke-width=".05"/><polygon points="11.54 8.3 11.54 8.06 11.75 7.94 11.96 8.06 11.96 8.3 11.75 8.42 11.54 8.3" fill="none" stroke="#61dfff" stroke-miterlimit="10" stroke-width=".05"/><polygon points="12.48 8.21 12.48 8.15 12.52 8.13 12.57 8.15 12.57 8.2 12.52 8.23 12.48 8.21" fill="none" stroke="#61dfff" stroke-miterlimit="10" stroke-width=".05"/><polygon points="34.35 8.91 34.35 8.78 34.46 8.72 34.57 8.78 34.57 8.91 34.46 8.97 34.35 8.91" fill="none" stroke="#61dfff" stroke-miterlimit="10" stroke-width=".05"/><polygon points="37.37 8.94 37.37 8.75 37.54 8.66 37.7 8.75 37.7 8.94 37.54 9.04 37.37 8.94" fill="none" stroke="#61dfff" stroke-miterlimit="10" stroke-width=".05"/><polygon points="42.89 8.87 42.89 8.83 42.93 8.81 42.96 8.83 42.96 8.87 42.93 8.88 42.89 8.87" fill="none" stroke="#61dfff" stroke-miterlimit="10" stroke-width=".05"/><polygon points="45.16 8.89 45.16 8.8 45.24 8.75 45.32 8.8 45.32 8.89 45.24 8.94 45.16 8.89" fill="none" stroke="#61dfff" stroke-miterlimit="10" stroke-width=".05"/><polygon points="46.55 8.98 46.55 8.71 46.78 8.58 47 8.71 47 8.98 46.78 9.11 46.55 8.98" fill="none" stroke="#61dfff" stroke-miterlimit="10" stroke-width=".05"/><polygon points="47.36 8.95 47.36 8.74 47.55 8.64 47.73 8.74 47.73 8.95 47.55 9.06 47.36 8.95" fill="none" stroke="#61dfff" stroke-miterlimit="10" stroke-width=".05"/><polygon points="53.62 8.89 53.62 8.8 53.7 8.75 53.79 8.8 53.79 8.89 53.7 8.94 53.62 8.89" fill="none" stroke="#61dfff" stroke-miterlimit="10" stroke-width=".05"/><polygon points="54.41 8.89 54.41 8.81 54.47 8.77 54.54 8.81 54.54 8.89 54.47 8.92 54.41 8.89" fill="none" stroke="#61dfff" stroke-miterlimit="10" stroke-width=".05"/><polygon points="8.1 8.95 8.1 8.74 8.29 8.64 8.47 8.74 8.47 8.95 8.29 9.06 8.1 8.95" fill="none" stroke="#61dfff" stroke-miterlimit="10" stroke-width=".05"/><polygon points="13.53 8.93 13.53 8.76 13.68 8.68 13.82 8.76 13.82 8.93 13.68 9.02 13.53 8.93" fill="none" stroke="#61dfff" stroke-miterlimit="10" stroke-width=".05"/><polygon points="25.92 8.89 25.92 8.8 25.99 8.76 26.07 8.8 26.07 8.89 25.99 8.93 25.92 8.89" fill="none" stroke="#61dfff" stroke-miterlimit="10" stroke-width=".05"/><polygon points="28.46 9.64 28.46 9.38 28.69 9.26 28.91 9.38 28.91 9.64 28.69 9.77 28.46 9.64" fill="none" stroke="#61dfff" stroke-miterlimit="10" stroke-width=".05"/><polygon points="32.28 9.66 32.28 9.37 32.54 9.22 32.79 9.37 32.79 9.66 32.54 9.8 32.28 9.66" fill="none" stroke="#61dfff" stroke-miterlimit="10" stroke-width=".05"/><polygon points="33.97 9.57 33.97 9.45 34.08 9.39 34.18 9.45 34.18 9.57 34.08 9.63 33.97 9.57" fill="none" stroke="#61dfff" stroke-miterlimit="10" stroke-width=".05"/><polygon points="35.5 9.58 35.5 9.45 35.61 9.38 35.73 9.45 35.73 9.58 35.61 9.65 35.5 9.58" fill="none" stroke="#61dfff" stroke-miterlimit="10" stroke-width=".05"/><polygon points="37.69 9.65 37.69 9.38 37.92 9.24 38.16 9.38 38.16 9.65 37.92 9.78 37.69 9.65" fill="none" stroke="#61dfff" stroke-miterlimit="10" stroke-width=".05"/><polygon points="38.61 9.56 38.61 9.46 38.69 9.41 38.78 9.46 38.78 9.56 38.69 9.61 38.61 9.56" fill="none" stroke="#61dfff" stroke-miterlimit="10" stroke-width=".05"/><polygon points="39.39 9.56 39.39 9.47 39.46 9.43 39.54 9.47 39.54 9.56 39.46 9.6 39.39 9.56" fill="none" stroke="#61dfff" stroke-miterlimit="10" stroke-width=".05"/><polygon points="43.15 9.6 43.15 9.42 43.31 9.33 43.47 9.42 43.47 9.6 43.31 9.7 43.15 9.6" fill="none" stroke="#61dfff" stroke-miterlimit="10" stroke-width=".05"/><polygon points="46.93 9.65 46.93 9.38 47.16 9.24 47.4 9.38 47.4 9.65 47.16 9.78 46.93 9.65" fill="none" stroke="#61dfff" stroke-miterlimit="10" stroke-width=".05"/><polygon points="-.03 9.65 -.03 9.38 .2 9.24 .44 9.38 .44 9.65 .2 9.79 -.03 9.65" fill="none" stroke="#61dfff" stroke-miterlimit="10" stroke-width=".05"/><polygon points="2.35 9.61 2.35 9.42 2.51 9.32 2.68 9.42 2.68 9.61 2.51 9.71 2.35 9.61" fill="none" stroke="#61dfff" stroke-miterlimit="10" stroke-width=".05"/><polygon points="3.25 9.53 3.25 9.49 3.28 9.48 3.31 9.49 3.31 9.53 3.28 9.55 3.25 9.53" fill="none" stroke="#61dfff" stroke-miterlimit="10" stroke-width=".05"/><polygon points="7.77 9.59 7.77 9.44 7.9 9.36 8.03 9.44 8.03 9.59 7.9 9.66 7.77 9.59" fill="none" stroke="#61dfff" stroke-miterlimit="10" stroke-width=".05"/><polygon points="8.58 9.57 8.58 9.46 8.67 9.4 8.77 9.46 8.77 9.57 8.67 9.62 8.58 9.57" fill="none" stroke="#61dfff" stroke-miterlimit="10" stroke-width=".05"/><polygon points="12.46 9.55 12.46 9.48 12.52 9.44 12.58 9.48 12.58 9.55 12.52 9.58 12.46 9.55" fill="none" stroke="#61dfff" stroke-miterlimit="10" stroke-width=".05"/><polygon points="14.61 9.64 14.61 9.39 14.83 9.26 15.05 9.39 15.05 9.64 14.83 9.76 14.61 9.64" fill="none" stroke="#61dfff" stroke-miterlimit="10" stroke-width=".05"/><polygon points="17.05 9.56 17.05 9.46 17.14 9.41 17.23 9.46 17.23 9.56 17.14 9.61 17.05 9.56" fill="none" stroke="#61dfff" stroke-miterlimit="10" stroke-width=".05"/><polygon points="20.01 9.64 20.01 9.39 20.22 9.27 20.43 9.39 20.43 9.64 20.22 9.76 20.01 9.64" fill="none" stroke="#61dfff" stroke-miterlimit="10" stroke-width=".05"/><polygon points="21.72 9.54 21.72 9.49 21.76 9.46 21.8 9.49 21.8 9.54 21.76 9.56 21.72 9.54" fill="none" stroke="#61dfff" stroke-miterlimit="10" stroke-width=".05"/><polygon points="24.68 9.6 24.68 9.42 24.84 9.33 24.99 9.42 24.99 9.6 24.84 9.69 24.68 9.6" fill="none" stroke="#61dfff" stroke-miterlimit="10" stroke-width=".05"/><polygon points="26.98 9.61 26.98 9.41 27.15 9.31 27.32 9.41 27.32 9.61 27.15 9.71 26.98 9.61" fill="none" stroke="#61dfff" stroke-miterlimit="10" stroke-width=".05"/><polygon points="30.58 10.19 30.58 10.16 30.61 10.15 30.64 10.16 30.64 10.19 30.61 10.21 30.58 10.19" fill="none" stroke="#61dfff" stroke-miterlimit="10" stroke-width=".05"/><polygon points="35.2 10.2 35.2 10.16 35.23 10.14 35.26 10.16 35.26 10.2 35.23 10.22 35.2 10.2" fill="none" stroke="#61dfff" stroke-miterlimit="10" stroke-width=".05"/><polygon points="36.6 10.28 36.6 10.08 36.77 9.99 36.94 10.08 36.94 10.28 36.77 10.37 36.6 10.28" fill="none" stroke="#61dfff" stroke-miterlimit="10" stroke-width=".05"/><polygon points="37.51 10.2 37.51 10.16 37.54 10.14 37.57 10.16 37.57 10.2 37.54 10.22 37.51 10.2" fill="none" stroke="#61dfff" stroke-miterlimit="10" stroke-width=".05"/><polygon points="38.2 10.24 38.2 10.12 38.31 10.05 38.42 10.12 38.42 10.24 38.31 10.3 38.2 10.24" fill="none" stroke="#61dfff" stroke-miterlimit="10" stroke-width=".05"/><polygon points="46.71 10.22 46.71 10.14 46.78 10.11 46.84 10.14 46.84 10.22 46.78 10.25 46.71 10.22" fill="none" stroke="#61dfff" stroke-miterlimit="10" stroke-width=".05"/><polygon points="47.46 10.23 47.46 10.13 47.55 10.08 47.64 10.13 47.64 10.23 47.55 10.28 47.46 10.23" fill="none" stroke="#61dfff" stroke-miterlimit="10" stroke-width=".05"/><polygon points="52.86 10.22 52.86 10.14 52.93 10.09 53.01 10.14 53.01 10.22 52.93 10.27 52.86 10.22" fill="none" stroke="#61dfff" stroke-miterlimit="10" stroke-width=".05"/><polygon points="54.24 10.31 54.24 10.04 54.47 9.91 54.71 10.04 54.71 10.31 54.47 10.45 54.24 10.31" fill="none" stroke="#61dfff" stroke-miterlimit="10" stroke-width=".05"/><polygon points=".5 10.23 .5 10.13 .59 10.08 .68 10.13 .68 10.23 .59 10.28 .5 10.23" fill="none" stroke="#61dfff" stroke-miterlimit="10" stroke-width=".05"/><polygon points="4.4 10.2 4.4 10.16 4.44 10.14 4.47 10.16 4.47 10.2 4.44 10.22 4.4 10.2" fill="none" stroke="#61dfff" stroke-miterlimit="10" stroke-width=".05"/><polygon points="5.18 10.2 5.18 10.16 5.21 10.15 5.24 10.16 5.24 10.2 5.21 10.21 5.18 10.2" fill="none" stroke="#61dfff" stroke-miterlimit="10" stroke-width=".05"/><polygon points="8.07 10.31 8.07 10.05 8.29 9.92 8.51 10.05 8.51 10.31 8.29 10.43 8.07 10.31" fill="none" stroke="#61dfff" stroke-miterlimit="10" stroke-width=".05"/><polygon points="9.71 10.24 9.71 10.11 9.83 10.05 9.94 10.11 9.94 10.24 9.83 10.31 9.71 10.24" fill="none" stroke="#61dfff" stroke-miterlimit="10" stroke-width=".05"/><polygon points="11.91 10.31 11.91 10.05 12.14 9.92 12.36 10.05 12.36 10.31 12.14 10.44 11.91 10.31" fill="none" stroke="#61dfff" stroke-miterlimit="10" stroke-width=".05"/><polygon points="15.1 10.25 15.1 10.11 15.22 10.04 15.33 10.11 15.33 10.25 15.22 10.32 15.1 10.25" fill="none" stroke="#61dfff" stroke-miterlimit="10" stroke-width=".05"/><polygon points="17.5 10.2 17.5 10.16 17.52 10.15 17.55 10.16 17.55 10.2 17.52 10.21 17.5 10.2" fill="none" stroke="#61dfff" stroke-miterlimit="10" stroke-width=".05"/><polygon points="20.45 10.27 20.45 10.09 20.6 10.01 20.75 10.09 20.75 10.27 20.6 10.35 20.45 10.27" fill="none" stroke="#61dfff" stroke-miterlimit="10" stroke-width=".05"/><polygon points="21.25 10.25 21.25 10.11 21.37 10.03 21.5 10.11 21.5 10.25 21.37 10.32 21.25 10.25" fill="none" stroke="#61dfff" stroke-miterlimit="10" stroke-width=".05"/><polygon points="23.49 10.29 23.49 10.07 23.68 9.95 23.88 10.07 23.88 10.29 23.68 10.41 23.49 10.29" fill="none" stroke="#61dfff" stroke-miterlimit="10" stroke-width=".05"/><polygon points="24.41 10.21 24.41 10.15 24.45 10.13 24.5 10.15 24.5 10.21 24.45 10.23 24.41 10.21" fill="none" stroke="#61dfff" stroke-miterlimit="10" stroke-width=".05"/><polygon points="25.14 10.23 25.14 10.13 25.22 10.08 25.31 10.13 25.31 10.23 25.22 10.28 25.14 10.23" fill="none" stroke="#61dfff" stroke-miterlimit="10" stroke-width=".05"/><polygon points="36.34 10.87 36.34 10.82 36.38 10.79 36.43 10.82 36.43 10.87 36.38 10.9 36.34 10.87" fill="none" stroke="#61dfff" stroke-miterlimit="10" stroke-width=".05"/><polygon points="9.19 10.99 9.19 10.7 9.44 10.56 9.69 10.7 9.69 10.99 9.44 11.14 9.19 10.99" fill="none" stroke="#61dfff" stroke-miterlimit="10" stroke-width=".05"/><polygon points="11.55 10.96 11.55 10.73 11.75 10.61 11.95 10.73 11.95 10.96 11.75 11.08 11.55 10.96" fill="none" stroke="#61dfff" stroke-miterlimit="10" stroke-width=".05"/><polygon points="13.17 10.91 13.17 10.78 13.29 10.71 13.41 10.78 13.41 10.91 13.29 10.98 13.17 10.91" fill="none" stroke="#61dfff" stroke-miterlimit="10" stroke-width=".05"/><polygon points="13.9 10.94 13.9 10.75 14.06 10.66 14.22 10.75 14.22 10.94 14.06 11.03 13.9 10.94" fill="none" stroke="#61dfff" stroke-miterlimit="10" stroke-width=".05"/><polygon points="19.3 10.93 19.3 10.76 19.45 10.67 19.6 10.76 19.6 10.93 19.45 11.02 19.3 10.93" fill="none" stroke="#61dfff" stroke-miterlimit="10" stroke-width=".05"/><polygon points="28.85 11.64 28.85 11.38 29.07 11.25 29.3 11.38 29.3 11.64 29.07 11.77 28.85 11.64" fill="none" stroke="#61dfff" stroke-miterlimit="10" stroke-width=".05"/><polygon points="9.67 11.61 9.67 11.42 9.83 11.33 9.99 11.42 9.99 11.61 9.83 11.7 9.67 11.61" fill="none" stroke="#61dfff" stroke-miterlimit="10" stroke-width=".05"/><polygon points="10.52 11.55 10.52 11.47 10.6 11.43 10.67 11.47 10.67 11.55 10.6 11.6 10.52 11.55" fill="none" stroke="#61dfff" stroke-miterlimit="10" stroke-width=".05"/><polygon points="19.63 11.63 19.63 11.39 19.83 11.27 20.04 11.39 20.04 11.63 19.83 11.75 19.63 11.63" fill="none" stroke="#61dfff" stroke-miterlimit="10" stroke-width=".05"/><polygon points="40.14 9.57 40.14 9.46 40.23 9.41 40.33 9.46 40.33 9.57 40.23 9.62 40.14 9.57" fill="none" stroke="#61dfff" stroke-miterlimit="10" stroke-width=".05"/><polygon points="42.41 9.59 42.41 9.43 42.54 9.36 42.68 9.43 42.68 9.59 42.54 9.67 42.41 9.59" fill="none" stroke="#61dfff" stroke-miterlimit="10" stroke-width=".05"/><polygon points="31.72 10.87 31.72 10.82 31.77 10.79 31.81 10.82 31.81 10.87 31.77 10.9 31.72 10.87" fill="none" stroke="#61dfff" stroke-miterlimit="10" stroke-width=".05"/><polygon points="30.39 11.64 30.39 11.38 30.61 11.25 30.83 11.38 30.83 11.64 30.61 11.77 30.39 11.64" fill="none" stroke="#61dfff" stroke-miterlimit="10" stroke-width=".05"/><polygon points="32.84 11.56 32.84 11.46 32.92 11.42 33 11.46 33 11.56 32.92 11.61 32.84 11.56" fill="none" stroke="#61dfff" stroke-miterlimit="10" stroke-width=".05"/><polygon points="34.28 11.62 34.28 11.41 34.46 11.3 34.64 11.41 34.64 11.62 34.46 11.72 34.28 11.62" fill="none" stroke="#61dfff" stroke-miterlimit="10" stroke-width=".05"/><polygon points="33.09 12.3 33.09 12.06 33.31 11.94 33.52 12.06 33.52 12.3 33.31 12.42 33.09 12.3" fill="none" stroke="#61dfff" stroke-miterlimit="10" stroke-width=".05"/><polygon points="50.59 6.2 50.59 6.16 50.63 6.14 50.66 6.16 50.66 6.2 50.63 6.22 50.59 6.2" fill="none" stroke="#61dfff" stroke-miterlimit="10" stroke-width=".05"/><polygon points="30.11 6.92 30.11 6.78 30.23 6.71 30.35 6.78 30.35 6.92 30.23 6.98 30.11 6.92" fill="none" stroke="#61dfff" stroke-miterlimit="10" stroke-width=".05"/><polygon points="40.1 6.93 40.1 6.77 40.23 6.69 40.37 6.77 40.37 6.93 40.23 7 40.1 6.93" fill="none" stroke="#61dfff" stroke-miterlimit="10" stroke-width=".05"/><polygon points="34.3 7.61 34.3 7.42 34.46 7.33 34.62 7.42 34.62 7.61 34.46 7.7 34.3 7.61" fill="none" stroke="#61dfff" stroke-miterlimit="10" stroke-width=".05"/><polygon points="41.27 7.58 41.27 7.45 41.39 7.38 41.5 7.45 41.5 7.58 41.39 7.64 41.27 7.58" fill="none" stroke="#61dfff" stroke-miterlimit="10" stroke-width=".05"/><polygon points="47.45 7.57 47.45 7.45 47.55 7.4 47.65 7.45 47.65 7.57 47.55 7.63 47.45 7.57" fill="none" stroke="#61dfff" stroke-miterlimit="10" stroke-width=".05"/><polygon points="54.22 7.66 54.22 7.37 54.47 7.22 54.73 7.37 54.73 7.66 54.47 7.8 54.22 7.66" fill="none" stroke="#61dfff" stroke-miterlimit="10" stroke-width=".05"/><polygon points="2.01 7.58 2.01 7.45 2.13 7.38 2.24 7.45 2.24 7.58 2.13 7.65 2.01 7.58" fill="none" stroke="#61dfff" stroke-miterlimit="10" stroke-width=".05"/><polygon points="30.91 8.23 30.91 8.13 31 8.08 31.08 8.13 31.08 8.23 31 8.28 30.91 8.23" fill="none" stroke="#61dfff" stroke-miterlimit="10" stroke-width=".05"/><polygon points="47.04 8.25 47.04 8.11 47.16 8.03 47.29 8.11 47.29 8.25 47.16 8.32 47.04 8.25" fill="none" stroke="#61dfff" stroke-miterlimit="10" stroke-width=".05"/><polygon points="47.75 8.29 47.75 8.07 47.93 7.96 48.12 8.07 48.12 8.29 47.93 8.39 47.75 8.29" fill="none" stroke="#61dfff" stroke-miterlimit="10" stroke-width=".05"/><polygon points="48.54 8.27 48.54 8.09 48.7 8 48.86 8.09 48.86 8.27 48.7 8.36 48.54 8.27" fill="none" stroke="#61dfff" stroke-miterlimit="10" stroke-width=".05"/><polygon points="30.55 8.88 30.55 8.81 30.61 8.78 30.67 8.81 30.67 8.88 30.61 8.92 30.55 8.88" fill="none" stroke="#61dfff" stroke-miterlimit="10" stroke-width=".05"/><polygon points="39.75 8.9 39.75 8.79 39.85 8.74 39.94 8.79 39.94 8.9 39.85 8.95 39.75 8.9" fill="none" stroke="#61dfff" stroke-miterlimit="10" stroke-width=".05"/><polygon points="41.22 8.94 41.22 8.75 41.39 8.65 41.56 8.75 41.56 8.94 41.39 9.04 41.22 8.94" fill="none" stroke="#61dfff" stroke-miterlimit="10" stroke-width=".05"/><polygon points="49.03 8.88 49.03 8.82 49.09 8.79 49.14 8.82 49.14 8.88 49.09 8.91 49.03 8.88" fill="none" stroke="#61dfff" stroke-miterlimit="10" stroke-width=".05"/><polygon points="12.82 8.89 12.82 8.8 12.91 8.75 12.99 8.8 12.99 8.89 12.91 8.94 12.82 8.89" fill="none" stroke="#61dfff" stroke-miterlimit="10" stroke-width=".05"/><polygon points="26.58 8.95 26.58 8.74 26.76 8.63 26.95 8.74 26.95 8.95 26.76 9.06 26.58 8.95" fill="none" stroke="#61dfff" stroke-miterlimit="10" stroke-width=".05"/><polygon points="27.87 9.54 27.87 9.49 27.92 9.46 27.96 9.49 27.96 9.54 27.92 9.57 27.87 9.54" fill="none" stroke="#61dfff" stroke-miterlimit="10" stroke-width=".05"/><polygon points="31.72 9.54 31.72 9.49 31.77 9.46 31.81 9.49 31.81 9.54 31.77 9.56 31.72 9.54" fill="none" stroke="#61dfff" stroke-miterlimit="10" stroke-width=".05"/><polygon points="44.64 9.63 44.64 9.39 44.85 9.27 45.06 9.39 45.06 9.63 44.85 9.75 44.64 9.63" fill="none" stroke="#61dfff" stroke-miterlimit="10" stroke-width=".05"/><polygon points=".75 9.64 .75 9.38 .97 9.25 1.2 9.38 1.2 9.64 .97 9.77 .75 9.64" fill="none" stroke="#61dfff" stroke-miterlimit="10" stroke-width=".05"/><polygon points="6.27 9.57 6.27 9.46 6.36 9.4 6.46 9.46 6.46 9.57 6.36 9.62 6.27 9.57" fill="none" stroke="#61dfff" stroke-miterlimit="10" stroke-width=".05"/><polygon points="26.18 9.63 26.18 9.4 26.38 9.29 26.57 9.4 26.57 9.63 26.38 9.74 26.18 9.63" fill="none" stroke="#61dfff" stroke-miterlimit="10" stroke-width=".05"/><polygon points="28.14 10.27 28.14 10.08 28.3 9.99 28.47 10.08 28.47 10.27 28.3 10.37 28.14 10.27" fill="none" stroke="#61dfff" stroke-miterlimit="10" stroke-width=".05"/><polygon points="52.08 10.23 52.08 10.13 52.17 10.09 52.25 10.13 52.25 10.23 52.17 10.27 52.08 10.23" fill="none" stroke="#61dfff" stroke-miterlimit="10" stroke-width=".05"/><polygon points="53.55 10.27 53.55 10.09 53.7 10 53.86 10.09 53.86 10.27 53.7 10.36 53.55 10.27" fill="none" stroke="#61dfff" stroke-miterlimit="10" stroke-width=".05"/><polygon points="1.21 10.26 1.21 10.1 1.36 10.01 1.5 10.1 1.5 10.26 1.36 10.35 1.21 10.26" fill="none" stroke="#61dfff" stroke-miterlimit="10" stroke-width=".05"/><polygon points="10.36 10.31 10.36 10.04 10.6 9.91 10.83 10.04 10.83 10.31 10.6 10.45 10.36 10.31" fill="none" stroke="#61dfff" stroke-miterlimit="10" stroke-width=".05"/><polygon points="16.55 10.3 16.55 10.06 16.75 9.94 16.96 10.06 16.96 10.3 16.75 10.41 16.55 10.3" fill="none" stroke="#61dfff" stroke-miterlimit="10" stroke-width=".05"/><polygon points="30.15 10.89 30.15 10.8 30.23 10.75 30.31 10.8 30.31 10.89 30.23 10.94 30.15 10.89" fill="none" stroke="#61dfff" stroke-miterlimit="10" stroke-width=".05"/><polygon points="37.02 10.92 37.02 10.77 37.15 10.69 37.29 10.77 37.29 10.92 37.15 11 37.02 10.92" fill="none" stroke="#61dfff" stroke-miterlimit="10" stroke-width=".05"/><polygon points="47.69 10.99 47.69 10.71 47.93 10.57 48.17 10.71 48.17 10.99 47.93 11.13 47.69 10.99" fill="none" stroke="#61dfff" stroke-miterlimit="10" stroke-width=".05"/><polygon points="17.86 10.87 17.86 10.82 17.91 10.79 17.96 10.82 17.96 10.87 17.91 10.9 17.86 10.87" fill="none" stroke="#61dfff" stroke-miterlimit="10" stroke-width=".05"/><polygon points="22.36 10.94 22.36 10.75 22.53 10.65 22.7 10.75 22.7 10.94 22.53 11.04 22.36 10.94" fill="none" stroke="#61dfff" stroke-miterlimit="10" stroke-width=".05"/><polygon points="35.13 11.57 35.13 11.45 35.23 11.39 35.33 11.45 35.33 11.57 35.23 11.63 35.13 11.57" fill="none" stroke="#61dfff" stroke-miterlimit="10" stroke-width=".05"/><polygon points="40.76 9.65 40.76 9.37 41 9.24 41.24 9.37 41.24 9.65 41 9.79 40.76 9.65" fill="none" stroke="#61dfff" stroke-miterlimit="10" stroke-width=".05"/><polygon points="6.73 6.19 6.73 6.17 6.75 6.16 6.77 6.17 6.77 6.19 6.75 6.2 6.73 6.19" fill="none" stroke="#61dfff" stroke-miterlimit="10" stroke-width=".05"/><polygon points="7.47 6.2 7.47 6.15 7.52 6.13 7.56 6.15 7.56 6.2 7.52 6.23 7.47 6.2" fill="none" stroke="#61dfff" stroke-miterlimit="10" stroke-width=".05"/><polygon points="8.22 6.22 8.22 6.14 8.29 6.1 8.35 6.14 8.35 6.22 8.29 6.25 8.22 6.22" fill="none" stroke="#61dfff" stroke-miterlimit="10" stroke-width=".05"/><polygon points="11.25 6.25 11.25 6.11 11.37 6.04 11.49 6.11 11.49 6.25 11.37 6.32 11.25 6.25" fill="none" stroke="#61dfff" stroke-miterlimit="10" stroke-width=".05"/><polygon points="22.82 6.23 22.82 6.13 22.91 6.07 23 6.13 23 6.23 22.91 6.28 22.82 6.23" fill="none" stroke="#61dfff" stroke-miterlimit="10" stroke-width=".05"/><polygon points="26.71 6.21 26.71 6.15 26.76 6.11 26.82 6.15 26.82 6.21 26.76 6.24 26.71 6.21" fill="none" stroke="#61dfff" stroke-miterlimit="10" stroke-width=".05"/><polygon points="7.86 6.87 7.86 6.82 7.9 6.8 7.94 6.82 7.94 6.87 7.9 6.89 7.86 6.87" fill="none" stroke="#61dfff" stroke-miterlimit="10" stroke-width=".05"/><polygon points="21.72 6.87 21.72 6.82 21.76 6.8 21.8 6.82 21.8 6.87 21.76 6.89 21.72 6.87" fill="none" stroke="#61dfff" stroke-miterlimit="10" stroke-width=".05"/><polygon points="22.37 6.94 22.37 6.75 22.53 6.66 22.69 6.75 22.69 6.94 22.53 7.03 22.37 6.94" fill="none" stroke="#61dfff" stroke-miterlimit="10" stroke-width=".05"/><polygon points="26.33 6.88 26.33 6.82 26.38 6.79 26.43 6.82 26.43 6.88 26.38 6.9 26.33 6.88" fill="none" stroke="#61dfff" stroke-miterlimit="10" stroke-width=".05"/><polygon points="8.98 7.56 8.98 7.47 9.06 7.42 9.14 7.47 9.14 7.56 9.06 7.6 8.98 7.56" fill="none" stroke="#61dfff" stroke-miterlimit="10" stroke-width=".05"/><polygon points="12.06 7.56 12.06 7.47 12.14 7.43 12.21 7.47 12.21 7.56 12.14 7.6 12.06 7.56" fill="none" stroke="#61dfff" stroke-miterlimit="10" stroke-width=".05"/><polygon points="13.61 7.55 13.61 7.48 13.68 7.44 13.74 7.48 13.74 7.55 13.68 7.58 13.61 7.55" fill="none" stroke="#61dfff" stroke-miterlimit="10" stroke-width=".05"/><polygon points="15.89 7.57 15.89 7.46 15.98 7.4 16.08 7.46 16.08 7.57 15.98 7.63 15.89 7.57" fill="none" stroke="#61dfff" stroke-miterlimit="10" stroke-width=".05"/><polygon points="25.18 7.54 25.18 7.49 25.22 7.46 25.27 7.49 25.27 7.54 25.22 7.57 25.18 7.54" fill="none" stroke="#61dfff" stroke-miterlimit="10" stroke-width=".05"/><polygon points="13.98 8.23 13.98 8.13 14.06 8.09 14.14 8.13 14.14 8.23 14.06 8.27 13.98 8.23" fill="none" stroke="#61dfff" stroke-miterlimit="10" stroke-width=".05"/><polygon points="26.35 8.19 26.35 8.16 26.38 8.15 26.4 8.16 26.4 8.19 26.38 8.21 26.35 8.19" fill="none" stroke="#61dfff" stroke-miterlimit="10" stroke-width=".05"/><polygon points="26.99 8.27 26.99 8.09 27.15 8 27.3 8.09 27.3 8.27 27.15 8.36 26.99 8.27" fill="none" stroke="#61dfff" stroke-miterlimit="10" stroke-width=".05"/><polygon points="21.99 8.93 21.99 8.76 22.14 8.67 22.3 8.76 22.3 8.93 22.14 9.02 21.99 8.93" fill="none" stroke="#61dfff" stroke-miterlimit="10" stroke-width=".05"/><polygon points="12.09 6.2 12.09 6.15 12.14 6.13 12.18 6.15 12.18 6.2 12.14 6.23 12.09 6.2" fill="none" stroke="#61dfff" stroke-miterlimit="10" stroke-width=".05"/><polygon points="21.34 6.2 21.34 6.16 21.37 6.14 21.41 6.16 21.41 6.2 21.37 6.22 21.34 6.2" fill="none" stroke="#61dfff" stroke-miterlimit="10" stroke-width=".05"/><polygon points="18.98 7.56 18.98 7.46 19.06 7.41 19.15 7.46 19.15 7.56 19.06 7.61 18.98 7.56" fill="none" stroke="#61dfff" stroke-miterlimit="10" stroke-width=".05"/><polygon points="24.71 8.26 24.71 8.1 24.84 8.03 24.97 8.1 24.97 8.26 24.84 8.33 24.71 8.26" fill="none" stroke="#61dfff" stroke-miterlimit="10" stroke-width=".05"/><polygon points="24.31 8.93 24.31 8.77 24.45 8.69 24.59 8.77 24.59 8.93 24.45 9.01 24.31 8.93" fill="none" stroke="#61dfff" stroke-miterlimit="10" stroke-width=".05"/></g><g><polygon points="39.21 10.99 39.21 10.7 39.46 10.55 39.72 10.7 39.72 10.99 39.46 11.14 39.21 10.99" fill="#61dfff" stroke="#61dfff" stroke-miterlimit="10" stroke-width=".05"/><polygon points="39.6 10.33 39.6 10.03 39.85 9.89 40.1 10.03 40.1 10.33 39.85 10.47 39.6 10.33" fill="#61dfff" stroke="#61dfff" stroke-miterlimit="10" stroke-width=".05"/><polygon points="43.06 10.99 43.06 10.7 43.31 10.55 43.57 10.7 43.57 10.99 43.31 11.14 43.06 10.99" fill="#61dfff" stroke="#61dfff" stroke-miterlimit="10" stroke-width=".05"/><polygon points="16.89 10.99 16.89 10.7 17.14 10.55 17.39 10.7 17.39 10.99 17.14 11.14 16.89 10.99" fill="#61dfff" stroke="#61dfff" stroke-miterlimit="10" stroke-width=".05"/><polygon points="11.88 11.66 11.88 11.37 12.14 11.22 12.39 11.37 12.39 11.66 12.14 11.8 11.88 11.66" fill="#61dfff" stroke="#61dfff" stroke-miterlimit="10" stroke-width=".05"/><polygon points="24.97 11.66 24.97 11.37 25.22 11.22 25.48 11.37 25.48 11.66 25.22 11.8 24.97 11.66" fill="#61dfff" stroke="#61dfff" stroke-miterlimit="10" stroke-width=".05"/><polygon points="1.11 11.66 1.11 11.37 1.36 11.22 1.61 11.37 1.61 11.66 1.36 11.8 1.11 11.66" fill="#61dfff" stroke="#61dfff" stroke-miterlimit="10" stroke-width=".05"/><polygon points="3.03 12.33 3.03 12.03 3.28 11.89 3.54 12.03 3.54 12.33 3.28 12.47 3.03 12.33" fill="#61dfff" stroke="#61dfff" stroke-miterlimit="10" stroke-width=".05"/><polygon points="23.05 12.33 23.05 12.03 23.3 11.89 23.55 12.03 23.55 12.33 23.3 12.47 23.05 12.33" fill="#61dfff" stroke="#61dfff" stroke-miterlimit="10" stroke-width=".05"/><polygon points="16.5 11.66 16.5 11.37 16.75 11.22 17.01 11.37 17.01 11.66 16.75 11.8 16.5 11.66" fill="#61dfff" stroke="#61dfff" stroke-miterlimit="10" stroke-width=".05"/><polygon points="3.8 12.33 3.8 12.03 4.05 11.89 4.31 12.03 4.31 12.33 4.05 12.47 3.8 12.33" fill="#61dfff" stroke="#61dfff" stroke-miterlimit="10" stroke-width=".05"/><polygon points="45.54 6.89 45.54 6.8 45.62 6.75 45.7 6.8 45.7 6.89 45.62 6.94 45.54 6.89" fill="#61dfff" stroke="#61dfff" stroke-miterlimit="10" stroke-width=".05"/><polygon points="35.04 8.96 35.04 8.74 35.23 8.62 35.42 8.74 35.42 8.96 35.23 9.07 35.04 8.96" fill="#61dfff" stroke="#61dfff" stroke-miterlimit="10" stroke-width=".05"/><polygon points="25.85 10.26 25.85 10.1 25.99 10.02 26.13 10.1 26.13 10.26 25.99 10.34 25.85 10.26" fill="#61dfff" stroke="#61dfff" stroke-miterlimit="10" stroke-width=".05"/><polygon points="48.57 10.92 48.57 10.77 48.7 10.7 48.83 10.77 48.83 10.92 48.7 10.99 48.57 10.92" fill="#61dfff" stroke="#61dfff" stroke-miterlimit="10" stroke-width=".05"/><polygon points="54.05 6.87 54.05 6.82 54.09 6.8 54.13 6.82 54.13 6.87 54.09 6.89 54.05 6.87" fill="#61dfff" stroke="#61dfff" stroke-miterlimit="10" stroke-width=".05"/><polygon points="27.29 10.32 27.29 10.04 27.53 9.9 27.78 10.04 27.78 10.32 27.53 10.46 27.29 10.32" fill="#61dfff" stroke="#61dfff" stroke-miterlimit="10" stroke-width=".05"/><polygon points="19.36 6.9 19.36 6.79 19.45 6.74 19.54 6.79 19.54 6.9 19.45 6.95 19.36 6.9" fill="#61dfff" stroke="#61dfff" stroke-miterlimit="10" stroke-width=".05"/><polygon points="46.14 10.99 46.14 10.7 46.39 10.55 46.64 10.7 46.64 10.99 46.39 11.14 46.14 10.99" fill="#61dfff" stroke="#61dfff" stroke-miterlimit="10" stroke-width=".05"/><polygon points="53.07 10.99 53.07 10.7 53.32 10.55 53.57 10.7 53.57 10.99 53.32 11.14 53.07 10.99" fill="#61dfff" stroke="#61dfff" stroke-miterlimit="10" stroke-width=".05"/><polygon points="46.52 11.66 46.52 11.37 46.78 11.22 47.03 11.37 47.03 11.66 46.78 11.8 46.52 11.66" fill="#61dfff" stroke="#61dfff" stroke-miterlimit="10" stroke-width=".05"/><polygon points="54.22 11.66 54.22 11.37 54.47 11.22 54.73 11.37 54.73 11.66 54.47 11.8 54.22 11.66" fill="#61dfff" stroke="#61dfff" stroke-miterlimit="10" stroke-width=".05"/><polygon points="35.36 12.33 35.36 12.03 35.61 11.89 35.87 12.03 35.87 12.33 35.61 12.47 35.36 12.33" fill="#61dfff" stroke="#61dfff" stroke-miterlimit="10" stroke-width=".05"/><polygon points="51.53 12.33 51.53 12.03 51.78 11.89 52.03 12.03 52.03 12.33 51.78 12.47 51.53 12.33" fill="#61dfff" stroke="#61dfff" stroke-miterlimit="10" stroke-width=".05"/><polygon points="52.3 12.33 52.3 12.03 52.55 11.89 52.8 12.03 52.8 12.33 52.55 12.47 52.3 12.33" fill="#61dfff" stroke="#61dfff" stroke-miterlimit="10" stroke-width=".05"/><polygon points="41.52 12.33 41.52 12.03 41.77 11.89 42.03 12.03 42.03 12.33 41.77 12.47 41.52 12.33" fill="#61dfff" stroke="#61dfff" stroke-miterlimit="10" stroke-width=".05"/><polygon points="38.83 10.33 38.83 10.03 39.08 9.89 39.33 10.03 39.33 10.33 39.08 10.47 38.83 10.33" fill="#61dfff" stroke="#61dfff" stroke-miterlimit="10" stroke-width=".05"/><polygon points="28.43 12.33 28.43 12.03 28.69 11.89 28.94 12.03 28.94 12.33 28.69 12.47 28.43 12.33" fill="#61dfff" stroke="#61dfff" stroke-miterlimit="10" stroke-width=".05"/><polygon points="6.11 10.99 6.11 10.7 6.36 10.55 6.62 10.7 6.62 10.99 6.36 11.14 6.11 10.99" fill="#61dfff" stroke="#61dfff" stroke-miterlimit="10" stroke-width=".05"/><polygon points="8.42 12.33 8.42 12.03 8.67 11.89 8.92 12.03 8.92 12.33 8.67 12.47 8.42 12.33" fill="#61dfff" stroke="#61dfff" stroke-miterlimit="10" stroke-width=".05"/><polygon points="39.65 6.29 39.65 6.06 39.85 5.95 40.05 6.06 40.05 6.29 39.85 6.41 39.65 6.29" fill="#61dfff" stroke="#61dfff" stroke-miterlimit="10" stroke-width=".05"/><polygon points="30.06 8.27 30.06 8.08 30.23 7.99 30.39 8.08 30.39 8.27 30.23 8.37 30.06 8.27" fill="#61dfff" stroke="#61dfff" stroke-miterlimit="10" stroke-width=".05"/><polygon points="43.5 8.96 43.5 8.73 43.7 8.61 43.9 8.73 43.9 8.96 43.7 9.08 43.5 8.96" fill="#61dfff" stroke="#61dfff" stroke-miterlimit="10" stroke-width=".05"/><polygon points="15.85 8.92 15.85 8.77 15.98 8.69 16.12 8.77 16.12 8.92 15.98 9 15.85 8.92" fill="#61dfff" stroke="#61dfff" stroke-miterlimit="10" stroke-width=".05"/><polygon points="50.17 9.55 50.17 9.47 50.24 9.43 50.31 9.47 50.31 9.55 50.24 9.59 50.17 9.55" fill="#61dfff" stroke="#61dfff" stroke-miterlimit="10" stroke-width=".05"/><polygon points="9.25 9.62 9.25 9.4 9.44 9.29 9.63 9.4 9.63 9.62 9.44 9.73 9.25 9.62" fill="#61dfff" stroke="#61dfff" stroke-miterlimit="10" stroke-width=".05"/><polygon points="23.05 9.66 23.05 9.37 23.3 9.23 23.55 9.37 23.55 9.66 23.3 9.8 23.05 9.66" fill="#61dfff" stroke="#61dfff" stroke-miterlimit="10" stroke-width=".05"/><polygon points="31.91 10.32 31.91 10.04 32.15 9.9 32.4 10.04 32.4 10.32 32.15 10.46 31.91 10.32" fill="#61dfff" stroke="#61dfff" stroke-miterlimit="10" stroke-width=".05"/><polygon points="19.64 10.29 19.64 10.07 19.83 9.95 20.03 10.07 20.03 10.29 19.83 10.4 19.64 10.29" fill="#61dfff" stroke="#61dfff" stroke-miterlimit="10" stroke-width=".05"/><polygon points="29.64 11.63 29.64 11.4 29.84 11.28 30.04 11.4 30.04 11.63 29.84 11.74 29.64 11.63" fill="#61dfff" stroke="#61dfff" stroke-miterlimit="10" stroke-width=".05"/><polygon points="1.25 7.57 1.25 7.45 1.36 7.39 1.46 7.45 1.46 7.57 1.36 7.63 1.25 7.57" fill="#61dfff" stroke="#61dfff" stroke-miterlimit="10" stroke-width=".05"/><polygon points="54 8.23 54 8.13 54.09 8.08 54.18 8.13 54.18 8.23 54.09 8.28 54 8.23" fill="#61dfff" stroke="#61dfff" stroke-miterlimit="10" stroke-width=".05"/><polygon points="29.6 8.98 29.6 8.71 29.84 8.57 30.08 8.71 30.08 8.98 29.84 9.12 29.6 8.98" fill="#61dfff" stroke="#61dfff" stroke-miterlimit="10" stroke-width=".05"/><polygon points="23.1 10.96 23.1 10.73 23.3 10.62 23.49 10.73 23.49 10.96 23.3 11.07 23.1 10.96" fill="#61dfff" stroke="#61dfff" stroke-miterlimit="10" stroke-width=".05"/><polygon points="20.91 8.22 20.91 8.13 20.99 8.09 21.07 8.13 21.07 8.22 20.99 8.27 20.91 8.22" fill="#61dfff" stroke="#61dfff" stroke-miterlimit="10" stroke-width=".05"/></g></svg>