<?xml version="1.0" encoding="utf-8"?>
<!-- Generator: Adobe Illustrator 26.2.1, SVG Export Plug-In . SVG Version: 6.00 Build 0)  -->
<svg version="1.1" id="a" xmlns="http://www.w3.org/2000/svg" xmlns:xlink="http://www.w3.org/1999/xlink" x="0px" y="0px"
	 viewBox="0 0 328.7 75.4" style="enable-background:new 0 0 328.7 75.4;" xml:space="preserve">
<style type="text/css">
	.st0{fill:none;stroke:#61DFFF;stroke-width:0.25;stroke-miterlimit:10;}
	.st1{fill:#61DFFF;stroke:#61DFFF;stroke-width:5.000000e-02;stroke-miterlimit:10;}
</style>
<g>
	<g>
		<polygon class="st0" points="230.3,66.6 230.3,64.9 231.7,64 233.3,64.9 233.3,66.6 231.7,67.5 		"/>
		<polygon class="st0" points="271.4,66.6 271.4,64.9 272.9,64 274.4,64.9 274.4,66.6 272.9,67.5 		"/>
		<polygon class="st0" points="280.6,66.6 280.6,64.9 282,64 283.6,64.9 283.6,66.6 282,67.5 		"/>
		<polygon class="st0" points="298.9,66.6 298.9,64.9 300.3,64 301.8,64.9 301.8,66.6 300.3,67.5 		"/>
		<polygon class="st0" points="312.6,66.6 312.6,64.9 314.1,64 315.5,64.9 315.5,66.6 314.1,67.5 		"/>
		<polygon class="st0" points="326.3,66.6 326.3,64.9 327.8,64 329.3,64.9 329.3,66.6 327.8,67.5 		"/>
		<polygon class="st0" points="214.3,70.6 214.3,68.9 215.8,68 217.2,68.9 217.2,70.6 215.8,71.5 		"/>
		<polygon class="st0" points="228,70.6 228,68.9 229.5,68 231,68.9 231,70.6 229.5,71.5 		"/>
		<polygon class="st0" points="269.1,70.6 269.1,68.9 270.6,68 272.1,68.9 272.1,70.6 270.6,71.5 		"/>
		<polygon class="st0" points="282.8,70.6 282.8,68.9 284.4,68 285.8,68.9 285.8,70.6 284.4,71.5 		"/>
		<polygon class="st0" points="287.4,70.6 287.4,68.9 288.9,68 290.4,68.9 290.4,70.6 288.9,71.5 		"/>
		<polygon class="st0" points="292,70.6 292,68.9 293.5,68 295,68.9 295,70.6 293.5,71.5 		"/>
		<polygon class="st0" points="310.3,70.6 310.3,68.9 311.8,68 313.3,68.9 313.3,70.6 311.8,71.5 		"/>
		<polygon class="st0" points="319.4,70.6 319.4,68.9 320.9,68 322.4,68.9 322.4,70.6 320.9,71.5 		"/>
		<polygon class="st0" points="241.7,62.7 241.7,60.9 243.2,60.1 244.7,60.9 244.7,62.7 243.2,63.6 		"/>
		<polygon class="st0" points="246.2,62.7 246.2,60.9 247.8,60.1 249.3,60.9 249.3,62.7 247.8,63.6 		"/>
		<polygon class="st0" points="244,66.6 244,64.9 245.5,64 247,64.9 247,66.6 245.5,67.5 		"/>
		<polygon class="st0" points="248.5,66.6 248.5,64.9 250,64 251.6,64.9 251.6,66.6 250,67.5 		"/>
		<polygon class="st0" points="237.1,70.6 237.1,68.9 238.6,68 240.1,68.9 240.1,70.6 238.6,71.5 		"/>
		<polygon class="st0" points="250.8,70.6 250.8,68.9 252.3,68 253.8,68.9 253.8,70.6 252.3,71.5 		"/>
		<polygon class="st0" points="175.4,74.6 175.4,72.8 176.9,72 178.4,72.8 178.4,74.6 176.9,75.4 		"/>
		<polygon class="st0" points="184.5,74.6 184.5,72.8 186.1,72 187.6,72.8 187.6,74.6 186.1,75.4 		"/>
		<polygon class="st0" points="193.7,74.6 193.7,72.8 195.2,72 196.7,72.8 196.7,74.6 195.2,75.4 		"/>
		<polygon class="st0" points="207.4,74.6 207.4,72.8 208.9,72 210.4,72.8 210.4,74.6 208.9,75.4 		"/>
		<polygon class="st0" points="253.1,74.6 253.1,72.8 254.6,72 256.1,72.8 256.1,74.6 254.6,75.4 		"/>
		<polygon class="st0" points="264.5,62.7 264.5,60.9 266.1,60.1 267.6,60.9 267.6,62.7 266.1,63.6 		"/>
		<polygon class="st0" points="225.7,66.6 225.7,64.9 227.2,64 228.7,64.9 228.7,66.6 227.2,67.5 		"/>
		<polygon class="st0" points="321.7,66.6 321.7,64.9 323.2,64 324.7,64.9 324.7,66.6 323.2,67.5 		"/>
		<polygon class="st0" points="218.9,70.6 218.9,68.9 220.3,68 221.8,68.9 221.8,70.6 220.3,71.5 		"/>
		<polygon class="st0" points="314.8,70.6 314.8,68.9 316.3,68 317.9,68.9 317.9,70.6 316.3,71.5 		"/>
		<polygon class="st0" points="266.8,74.6 266.8,72.8 268.3,72 269.9,72.8 269.9,74.6 268.3,75.4 		"/>
		<polygon class="st0" points="161.7,74.6 161.7,72.8 163.2,72 164.7,72.8 164.7,74.6 163.2,75.4 		"/>
		<polygon class="st0" points="255.4,62.7 255.4,60.9 256.9,60.1 258.4,60.9 258.4,62.7 256.9,63.6 		"/>
		<polygon class="st0" points="239.4,66.6 239.4,64.9 240.9,64 242.4,64.9 242.4,66.6 240.9,67.5 		"/>
		<polygon class="st0" points="189.1,74.6 189.1,72.8 190.6,72 192.1,72.8 192.1,74.6 190.6,75.4 		"/>
		<polygon class="st0" points="230.3,74.6 230.3,72.8 231.7,72 233.3,72.8 233.3,74.6 231.7,75.4 		"/>
		<polygon class="st0" points="40.5,62.7 40.5,60.9 42.1,60.1 43.5,60.9 43.5,62.7 42.1,63.6 		"/>
		<polygon class="st0" points="24.5,66.6 24.5,64.9 26,64 27.6,64.9 27.6,66.6 26,67.5 		"/>
		<polygon class="st0" points="42.8,66.6 42.8,64.9 44.3,64 45.9,64.9 45.9,66.6 44.3,67.5 		"/>
		<polygon class="st0" points="47.4,66.6 47.4,64.9 48.9,64 50.4,64.9 50.4,66.6 48.9,67.5 		"/>
		<polygon class="st0" points="161.7,66.6 161.7,64.9 163.2,64 164.7,64.9 164.7,66.6 163.2,67.5 		"/>
		<polygon class="st0" points="-0.6,70.6 -0.6,68.9 0.9,68 2.4,68.9 2.4,70.6 0.9,71.5 		"/>
		<polygon class="st0" points="35.9,70.6 35.9,68.9 37.5,68 39,68.9 39,70.6 37.5,71.5 		"/>
		<polygon class="st0" points="40.5,70.6 40.5,68.9 42.1,68 43.5,68.9 43.5,70.6 42.1,71.5 		"/>
		<polygon class="st0" points="45.1,70.6 45.1,68.9 46.6,68 48.1,68.9 48.1,70.6 46.6,71.5 		"/>
		<polygon class="st0" points="86.2,70.6 86.2,68.9 87.7,68 89.3,68.9 89.3,70.6 87.7,71.5 		"/>
		<polygon class="st0" points="95.4,70.6 95.4,68.9 96.9,68 98.4,68.9 98.4,70.6 96.9,71.5 		"/>
		<polygon class="st0" points="113.7,70.6 113.7,68.9 115.2,68 116.7,68.9 116.7,70.6 115.2,71.5 		"/>
		<polygon class="st0" points="145.7,70.6 145.7,68.9 147.2,68 148.7,68.9 148.7,70.6 147.2,71.5 		"/>
		<polygon class="st0" points="38.3,74.6 38.3,72.8 39.7,72 41.3,72.8 41.3,74.6 39.7,75.4 		"/>
		<polygon class="st0" points="42.8,74.6 42.8,72.8 44.3,72 45.9,72.8 45.9,74.6 44.3,75.4 		"/>
		<polygon class="st0" points="65.7,74.6 65.7,72.8 67.2,72 68.7,72.8 68.7,74.6 67.2,75.4 		"/>
		<polygon class="st0" points="70.3,74.6 70.3,72.8 71.7,72 73.2,72.8 73.2,74.6 71.7,75.4 		"/>
		<polygon class="st0" points="93.1,74.6 93.1,72.8 94.6,72 96.1,72.8 96.1,74.6 94.6,75.4 		"/>
		<polygon class="st0" points="152.5,74.6 152.5,72.8 154.1,72 155.5,72.8 155.5,74.6 154.1,75.4 		"/>
		<polygon class="st0" points="10.8,74.6 10.8,72.8 12.3,72 13.8,72.8 13.8,74.6 12.3,75.4 		"/>
		<polygon class="st0" points="74.8,74.6 74.8,72.8 76.3,72 77.8,72.8 77.8,74.6 76.3,75.4 		"/>
		<polygon class="st0" points="84,74.6 84,72.8 85.5,72 86.9,72.8 86.9,74.6 85.5,75.4 		"/>
		<polygon class="st0" points="120.6,74.6 120.6,72.8 122,72 123.5,72.8 123.5,74.6 122,75.4 		"/>
		<polygon class="st0" points="125.1,74.6 125.1,72.8 126.6,72 128.1,72.8 128.1,74.6 126.6,75.4 		"/>
		<polygon class="st0" points="129.7,74.6 129.7,72.8 131.2,72 132.7,72.8 132.7,74.6 131.2,75.4 		"/>
		<polygon class="st0" points="134.3,74.6 134.3,72.8 135.8,72 137.3,72.8 137.3,74.6 135.8,75.4 		"/>
		<polygon class="st0" points="143.4,74.6 143.4,72.8 144.9,72 146.4,72.8 146.4,74.6 144.9,75.4 		"/>
		<polygon class="st0" points="35.9,62.7 35.9,60.9 37.5,60.1 39,60.9 39,62.7 37.5,63.6 		"/>
		<polygon class="st0" points="29.1,66.6 29.1,64.9 30.6,64 32.1,64.9 32.1,66.6 30.6,67.5 		"/>
		<polygon class="st0" points="157.1,66.6 157.1,64.9 158.6,64 160.1,64.9 160.1,66.6 158.6,67.5 		"/>
		<polygon class="st0" points="168.6,70.6 168.6,68.9 170,68 171.5,68.9 171.5,70.6 170,71.5 		"/>
		<polygon class="st0" points="49.7,70.6 49.7,68.9 51.2,68 52.7,68.9 52.7,70.6 51.2,71.5 		"/>
		<polygon class="st0" points="81.7,70.6 81.7,68.9 83.2,68 84.7,68.9 84.7,70.6 83.2,71.5 		"/>
		<polygon class="st0" points="104.5,70.6 104.5,68.9 106,68 107.6,68.9 107.6,70.6 106,71.5 		"/>
		<polygon class="st0" points="111.4,74.6 111.4,72.8 112.9,72 114.4,72.8 114.4,74.6 112.9,75.4 		"/>
		<polygon class="st0" points="17.7,70.6 17.7,68.9 19.2,68 20.7,68.9 20.7,70.6 19.2,71.5 		"/>
		<polygon class="st0" points="132,70.6 132,68.9 133.5,68 135,68.9 135,70.6 133.5,71.5 		"/>
		<polygon class="st0" points="141.1,70.6 141.1,68.9 142.6,68 144.1,68.9 144.1,70.6 142.6,71.5 		"/>
		<polygon class="st0" points="147.9,74.6 147.9,72.8 149.5,72 151,72.8 151,74.6 149.5,75.4 		"/>
		<polygon class="st0" points="183.2,38.4 183.2,37.8 183.8,37.5 184.3,37.8 184.3,38.4 183.8,38.7 		"/>
		<polygon class="st0" points="229.2,38.2 229.2,37.9 229.5,37.8 229.7,37.9 229.7,38.2 229.5,38.4 		"/>
		<polygon class="st0" points="8.8,38.8 8.8,37.4 10,36.7 11.2,37.4 11.2,38.8 10,39.5 		"/>
		<polygon class="st0" points="18.2,38.6 18.2,37.5 19.2,37 20.1,37.5 20.1,38.6 19.2,39.1 		"/>
		<polygon class="st0" points="28.1,38.2 28.1,38 28.3,37.8 28.5,38 28.5,38.2 28.3,38.3 		"/>
		<polygon class="st0" points="199.6,42.1 199.6,41.9 199.8,41.8 200,41.9 200,42.1 199.8,42.2 		"/>
		<polygon class="st0" points="217.4,42.4 217.4,41.6 218,41.2 218.7,41.6 218.7,42.4 218,42.8 		"/>
		<polygon class="st0" points="249.4,42.4 249.4,41.7 250,41.3 250.6,41.7 250.6,42.4 250,42.7 		"/>
		<polygon class="st0" points="254.2,42.2 254.2,41.8 254.6,41.6 255,41.8 255,42.2 254.6,42.5 		"/>
		<polygon class="st0" points="267.5,42.5 267.5,41.5 268.3,41 269.2,41.5 269.2,42.5 268.3,43 		"/>
		<polygon class="st0" points="178.6,46.3 178.6,45.7 179.2,45.4 179.7,45.7 179.7,46.3 179.2,46.6 		"/>
		<polygon class="st0" points="183.1,46.4 183.1,45.6 183.8,45.2 184.4,45.6 184.4,46.4 183.8,46.7 		"/>
		<polygon class="st0" points="187.4,46.5 187.4,45.5 188.3,45 189.2,45.5 189.2,46.5 188.3,47 		"/>
		<polygon class="st0" points="201.4,46.3 201.4,45.6 202,45.3 202.7,45.6 202.7,46.3 202,46.7 		"/>
		<polygon class="st0" points="209.9,46.7 209.9,45.2 211.2,44.4 212.5,45.2 212.5,46.7 211.2,47.5 		"/>
		<polygon class="st0" points="228.7,46.4 228.7,45.6 229.5,45.1 230.2,45.6 230.2,46.4 229.5,46.9 		"/>
		<polygon class="st0" points="-0.3,46.7 -0.3,45.3 0.9,44.7 2,45.3 2,46.7 0.9,47.3 		"/>
		<polygon class="st0" points="32.2,46.4 32.2,45.6 32.9,45.2 33.6,45.6 33.6,46.4 32.9,46.8 		"/>
		<polygon class="st0" points="45.3,46.7 45.3,45.2 46.6,44.4 47.9,45.2 47.9,46.7 46.6,47.5 		"/>
		<polygon class="st0" points="50.2,46.6 50.2,45.4 51.2,44.8 52.1,45.4 52.1,46.6 51.2,47.1 		"/>
		<polygon class="st0" points="190.2,50.3 190.2,49.7 190.6,49.4 191.1,49.7 191.1,50.3 190.6,50.5 		"/>
		<polygon class="st0" points="203.3,50.6 203.3,49.4 204.4,48.7 205.4,49.4 205.4,50.6 204.4,51.2 		"/>
		<polygon class="st0" points="226.3,50.4 226.3,49.5 227.2,48.9 228.1,49.5 228.1,50.4 227.2,51 		"/>
		<polygon class="st0" points="245,50.2 245,49.7 245.5,49.5 245.9,49.7 245.9,50.2 245.5,50.4 		"/>
		<polygon class="st0" points="248.8,50.7 248.8,49.2 250,48.5 251.3,49.2 251.3,50.7 250,51.4 		"/>
		<polygon class="st0" points="313.8,50.1 313.8,49.8 314.1,49.6 314.4,49.8 314.4,50.1 314.1,50.3 		"/>
		<polygon class="st0" points="318.3,50.1 318.3,49.8 318.6,49.6 318.9,49.8 318.9,50.1 318.6,50.3 		"/>
		<polygon class="st0" points="11,50.7 11,49.2 12.3,48.4 13.7,49.2 13.7,50.7 12.3,51.5 		"/>
		<polygon class="st0" points="57,50.6 57,49.4 58,48.8 59.1,49.4 59.1,50.6 58,51.1 		"/>
		<polygon class="st0" points="62.2,50.1 62.2,49.8 62.6,49.5 63,49.8 63,50.1 62.6,50.4 		"/>
		<polygon class="st0" points="79.9,50.5 79.9,49.4 80.9,48.8 81.8,49.4 81.8,50.5 80.9,51.1 		"/>
		<polygon class="st0" points="174.4,54 174.4,53.8 174.6,53.7 174.8,53.8 174.8,54 174.6,54.1 		"/>
		<polygon class="st0" points="192.1,54.4 192.1,53.4 192.9,52.9 193.7,53.4 193.7,54.4 192.9,54.9 		"/>
		<polygon class="st0" points="215.6,54 215.6,53.8 215.8,53.8 215.9,53.8 215.9,54 215.8,54.1 		"/>
		<polygon class="st0" points="220,54.1 220,53.8 220.3,53.6 220.6,53.8 220.6,54.1 220.3,54.2 		"/>
		<polygon class="st0" points="229.1,54.1 229.1,53.7 229.5,53.5 229.8,53.7 229.8,54.1 229.5,54.4 		"/>
		<polygon class="st0" points="241.8,54.7 241.8,53.1 243.2,52.3 244.6,53.1 244.6,54.7 243.2,55.5 		"/>
		<polygon class="st0" points="287.9,54.5 287.9,53.3 288.9,52.7 290,53.3 290,54.5 288.9,55.1 		"/>
		<polygon class="st0" points="306.3,54.4 306.3,53.4 307.2,52.9 308.1,53.4 308.1,54.4 307.2,54.9 		"/>
		<polygon class="st0" points="18.8,54.1 18.8,53.7 19.2,53.5 19.6,53.7 19.6,54.1 19.2,54.4 		"/>
		<polygon class="st0" points="36.4,54.6 36.4,53.2 37.5,52.6 38.6,53.2 38.6,54.6 37.5,55.2 		"/>
		<polygon class="st0" points="55.6,54 55.6,53.8 55.8,53.8 55.9,53.8 55.9,54 55.8,54.1 		"/>
		<polygon class="st0" points="59.5,54.4 59.5,53.5 60.3,53 61.1,53.5 61.1,54.4 60.3,54.8 		"/>
		<polygon class="st0" points="64.6,54.1 64.6,53.7 64.9,53.5 65.2,53.7 65.2,54.1 64.9,54.3 		"/>
		<polygon class="st0" points="72.7,54.6 72.7,53.2 74.1,52.4 75.4,53.2 75.4,54.6 74.1,55.4 		"/>
		<polygon class="st0" points="91.9,54.2 91.9,53.6 92.4,53.4 92.8,53.6 92.8,54.2 92.4,54.5 		"/>
		<polygon class="st0" points="142.4,54 142.4,53.8 142.6,53.7 142.8,53.8 142.8,54 142.6,54.1 		"/>
		<polygon class="st0" points="176.7,58 176.7,57.7 176.9,57.6 177.2,57.7 177.2,58 176.9,58.2 		"/>
		<polygon class="st0" points="180.7,58.3 180.7,57.4 181.5,57 182.2,57.4 182.2,58.3 181.5,58.7 		"/>
		<polygon class="st0" points="208,58.4 208,57.4 208.9,56.8 209.8,57.4 209.8,58.4 208.9,58.9 		"/>
		<polygon class="st0" points="217.9,58 217.9,57.8 218,57.7 218.2,57.8 218.2,58 218,58 		"/>
		<polygon class="st0" points="222,58.2 222,57.5 222.6,57.1 223.2,57.5 223.2,58.2 222.6,58.6 		"/>
		<polygon class="st0" points="262.4,58.6 262.4,57.1 263.8,56.3 265.1,57.1 265.1,58.6 263.8,59.4 		"/>
		<polygon class="st0" points="271.5,58.7 271.5,57 272.9,56.2 274.4,57 274.4,58.7 272.9,59.5 		"/>
		<polygon class="st0" points="276.5,58.4 276.5,57.3 277.5,56.7 278.5,57.3 278.5,58.4 277.5,59 		"/>
		<polygon class="st0" points="286,58.3 286,57.5 286.6,57.1 287.3,57.5 287.3,58.3 286.6,58.6 		"/>
		<polygon class="st0" points="304,58.4 304,57.3 304.9,56.8 305.8,57.3 305.8,58.4 304.9,58.9 		"/>
		<polygon class="st0" points="308.2,58.6 308.2,57.1 309.5,56.4 310.7,57.1 310.7,58.6 309.5,59.3 		"/>
		<polygon class="st0" points="313.7,58 313.7,57.7 314.1,57.5 314.4,57.7 314.4,58 314.1,58.3 		"/>
		<polygon class="st0" points="322.1,58.5 322.1,57.3 323.2,56.6 324.3,57.3 324.3,58.5 323.2,59.2 		"/>
		<polygon class="st0" points="11.3,58.4 11.3,57.3 12.3,56.7 13.3,57.3 13.3,58.4 12.3,59 		"/>
		<polygon class="st0" points="61.8,58.3 61.8,57.4 62.6,56.9 63.4,57.4 63.4,58.3 62.6,58.8 		"/>
		<polygon class="st0" points="66.7,58.2 66.7,57.6 67.2,57.3 67.6,57.6 67.6,58.2 67.2,58.4 		"/>
		<polygon class="st0" points="71,58.3 71,57.4 71.7,57 72.5,57.4 72.5,58.3 71.7,58.7 		"/>
		<polygon class="st0" points="80.6,58 80.6,57.7 80.9,57.6 81.2,57.7 81.2,58 80.9,58.2 		"/>
		<polygon class="st0" points="84.6,58.4 84.6,57.4 85.5,56.9 86.3,57.4 86.3,58.4 85.5,58.9 		"/>
		<polygon class="st0" points="94.4,58 94.4,57.7 94.6,57.6 94.8,57.7 94.8,58 94.6,58.2 		"/>
		<polygon class="st0" points="98.7,58.2 98.7,57.6 99.2,57.3 99.7,57.6 99.7,58.2 99.2,58.4 		"/>
		<polygon class="st0" points="126.1,58.2 126.1,57.6 126.6,57.3 127.2,57.6 127.2,58.2 126.6,58.5 		"/>
		<polygon class="st0" points="135.1,58.3 135.1,57.4 135.8,57.1 136.5,57.4 136.5,58.3 135.8,58.7 		"/>
		<polygon class="st0" points="143.7,58.6 143.7,57.1 144.9,56.4 146.2,57.1 146.2,58.6 144.9,59.3 		"/>
		<polygon class="st0" points="153.7,58 153.7,57.7 154.1,57.5 154.4,57.7 154.4,58 154.1,58.2 		"/>
		<polygon class="st0" points="173.7,62.4 173.7,61.2 174.6,60.7 175.6,61.2 175.6,62.4 174.6,63 		"/>
		<polygon class="st0" points="196.7,62.3 196.7,61.4 197.5,60.9 198.2,61.4 198.2,62.3 197.5,62.7 		"/>
		<polygon class="st0" points="200.8,62.5 200.8,61.1 202,60.4 203.3,61.1 203.3,62.5 202,63.3 		"/>
		<polygon class="st0" points="206.4,62 206.4,61.7 206.6,61.6 206.9,61.7 206.9,62 206.6,62.1 		"/>
		<polygon class="st0" points="214.9,62.4 214.9,61.3 215.8,60.8 216.7,61.3 216.7,62.4 215.8,62.8 		"/>
		<polygon class="st0" points="297.7,62 297.7,61.7 298.1,61.5 298.4,61.7 298.4,62 298.1,62.2 		"/>
		<polygon class="st0" points="305.9,62.6 305.9,61.1 307.2,60.2 308.5,61.1 308.5,62.6 307.2,63.4 		"/>
		<polygon class="st0" points="-0.4,62.5 -0.4,61.1 0.9,60.4 2.1,61.1 2.1,62.5 0.9,63.3 		"/>
		<polygon class="st0" points="14,62.2 14,61.5 14.6,61.1 15.2,61.5 15.2,62.2 14.6,62.5 		"/>
		<polygon class="st0" points="77.8,62.3 77.8,61.4 78.6,60.9 79.4,61.4 79.4,62.3 78.6,62.8 		"/>
		<polygon class="st0" points="82,62.5 82,61.1 83.2,60.4 84.4,61.1 84.4,62.5 83.2,63.2 		"/>
		<polygon class="st0" points="132.2,62.5 132.2,61.1 133.5,60.4 134.8,61.1 134.8,62.5 133.5,63.3 		"/>
		<polygon class="st0" points="137.4,62.2 137.4,61.5 138,61.1 138.7,61.5 138.7,62.2 138,62.5 		"/>
		<polygon class="st0" points="160.1,62.3 160.1,61.4 160.9,60.9 161.7,61.4 161.7,62.3 160.9,62.7 		"/>
		<polygon class="st0" points="171.9,66.1 171.9,65.5 172.4,65.3 172.8,65.5 172.8,66.1 172.4,66.3 		"/>
		<polygon class="st0" points="185.5,66.1 185.5,65.5 186.1,65.1 186.6,65.5 186.6,66.1 186.1,66.5 		"/>
		<polygon class="st0" points="207.9,66.3 207.9,65.2 208.9,64.7 209.9,65.2 209.9,66.3 208.9,66.9 		"/>
		<polygon class="st0" points="62.4,65.9 62.4,65.6 62.6,65.5 62.9,65.6 62.9,65.9 62.6,66.1 		"/>
		<polygon class="st0" points="76,66 76,65.6 76.3,65.4 76.7,65.6 76.7,66 76.3,66.2 		"/>
		<polygon class="st0" points="88.8,66.5 88.8,65.1 90,64.4 91.3,65.1 91.3,66.5 90,67.2 		"/>
		<polygon class="st0" points="111.8,66.4 111.8,65.2 112.9,64.5 114,65.2 114,66.4 112.9,67.1 		"/>
		<polygon class="st0" points="120.7,66.5 120.7,65 122,64.3 123.4,65 123.4,66.5 122,67.3 		"/>
		<polygon class="st0" points="126,66.2 126,65.4 126.6,65 127.3,65.4 127.3,66.2 126.6,66.5 		"/>
		<polygon class="st0" points="130.7,66.1 130.7,65.5 131.2,65.3 131.7,65.5 131.7,66.1 131.2,66.3 		"/>
		<polygon class="st0" points="68,70.6 68,68.9 69.5,68.1 70.9,68.9 70.9,70.6 69.5,71.4 		"/>
		<polygon class="st0" points="194,66.5 194,65.1 195.2,64.4 196.3,65.1 196.3,66.5 195.2,67.1 		"/>
		<polygon class="st0" points="198.2,66.6 198.2,64.9 199.8,64 201.3,64.9 201.3,66.6 199.8,67.5 		"/>
		<polygon class="st0" points="203.2,66.5 203.2,65.1 204.4,64.4 205.5,65.1 205.5,66.5 204.4,67.1 		"/>
		<polygon class="st0" points="187,70.5 187,69 188.3,68.2 189.7,69 189.7,70.5 188.3,71.3 		"/>
		<polygon class="st0" points="192.1,70.2 192.1,69.3 192.9,68.8 193.7,69.3 193.7,70.2 192.9,70.6 		"/>
		<polygon class="st0" points="201.5,70.1 201.5,69.4 202,69.1 202.6,69.4 202.6,70.1 202,70.4 		"/>
		<polygon class="st0" points="203.4,74.2 203.4,73.2 204.4,72.6 205.3,73.2 205.3,74.2 204.4,74.8 		"/>
		<polygon class="st0" points="188.1,38.1 188.1,38 188.3,37.9 188.5,38 188.5,38.1 188.3,38.3 		"/>
		<polygon class="st0" points="251.8,38.4 251.8,37.8 252.3,37.5 252.8,37.8 252.8,38.4 252.3,38.7 		"/>
		<polygon class="st0" points="256.3,38.4 256.3,37.7 256.9,37.4 257.6,37.7 257.6,38.4 256.9,38.8 		"/>
		<polygon class="st0" points="5.1,38.3 5.1,37.8 5.5,37.6 5.9,37.8 5.9,38.3 5.5,38.6 		"/>
		<polygon class="st0" points="184.6,42.8 184.6,41.2 186.1,40.5 187.4,41.2 187.4,42.8 186.1,43.6 		"/>
		<polygon class="st0" points="203.7,42.4 203.7,41.6 204.4,41.3 205,41.6 205,42.4 204.4,42.8 		"/>
		<polygon class="st0" points="219.1,46.7 219.1,45.3 220.3,44.6 221.6,45.3 221.6,46.7 220.3,47.5 		"/>
		<polygon class="st0" points="233.3,46.5 233.3,45.6 234.1,45.1 234.8,45.6 234.8,46.5 234.1,46.9 		"/>
		<polygon class="st0" points="264.8,46.7 264.8,45.3 266.1,44.6 267.3,45.3 267.3,46.7 266.1,47.4 		"/>
		<polygon class="st0" points="288.6,46.2 288.6,45.8 288.9,45.6 289.3,45.8 289.3,46.2 288.9,46.4 		"/>
		<polygon class="st0" points="176.7,50.1 176.7,49.8 176.9,49.8 177,49.8 177,50.1 176.9,50.1 		"/>
		<polygon class="st0" points="222,50.3 222,49.6 222.6,49.2 223.2,49.6 223.2,50.3 222.6,50.7 		"/>
		<polygon class="st0" points="231.4,50.1 231.4,49.8 231.7,49.5 232.1,49.8 232.1,50.1 231.7,50.4 		"/>
		<polygon class="st0" points="239.5,50.7 239.5,49.2 240.9,48.4 242.3,49.2 242.3,50.7 240.9,51.6 		"/>
		<polygon class="st0" points="15.6,50.7 15.6,49.2 16.9,48.5 18.2,49.2 18.2,50.7 16.9,51.4 		"/>
		<polygon class="st0" points="48.7,50.1 48.7,49.8 48.9,49.7 49.1,49.8 49.1,50.1 48.9,50.2 		"/>
		<polygon class="st0" points="187.4,54.4 187.4,53.4 188.3,52.9 189.3,53.4 189.3,54.4 188.3,54.9 		"/>
		<polygon class="st0" points="232.6,54.7 232.6,53.1 234.1,52.3 235.5,53.1 235.5,54.7 234.1,55.5 		"/>
		<polygon class="st0" points="250.9,54.8 250.9,53 252.3,52.2 253.8,53 253.8,54.8 252.3,55.6 		"/>
		<polygon class="st0" points="264.6,54.7 264.6,53.1 266.1,52.3 267.4,53.1 267.4,54.7 266.1,55.5 		"/>
		<polygon class="st0" points="310.8,54.5 310.8,53.3 311.8,52.8 312.7,53.3 312.7,54.5 311.8,55 		"/>
		<polygon class="st0" points="315.5,54.4 315.5,53.5 316.3,52.9 317.2,53.5 317.2,54.4 316.3,54.9 		"/>
		<polygon class="st0" points="4.5,54.5 4.5,53.3 5.5,52.7 6.5,53.3 6.5,54.5 5.5,55.1 		"/>
		<polygon class="st0" points="13.3,54.6 13.3,53.2 14.6,52.4 15.9,53.2 15.9,54.6 14.6,55.4 		"/>
		<polygon class="st0" points="41.3,54.4 41.3,53.5 42.1,53 42.8,53.5 42.8,54.4 42.1,54.8 		"/>
		<polygon class="st0" points="46.1,54.2 46.1,53.6 46.6,53.3 47.2,53.6 47.2,54.2 46.6,54.5 		"/>
		<polygon class="st0" points="87.5,54.1 87.5,53.8 87.7,53.6 88.1,53.8 88.1,54.1 87.7,54.2 		"/>
		<polygon class="st0" points="151.5,54.1 151.5,53.8 151.7,53.6 152,53.8 152,54.1 151.7,54.2 		"/>
		<polygon class="st0" points="185.1,58.4 185.1,57.3 186.1,56.7 187,57.3 187,58.4 186.1,59 		"/>
		<polygon class="st0" points="290.9,58 290.9,57.7 291.2,57.6 291.5,57.7 291.5,58 291.2,58.2 		"/>
		<polygon class="st0" points="295.5,58 295.5,57.7 295.8,57.6 296.1,57.7 296.1,58 295.8,58.2 		"/>
		<polygon class="st0" points="317.5,58.5 317.5,57.3 318.6,56.6 319.7,57.3 319.7,58.5 318.6,59.2 		"/>
		<polygon class="st0" points="34.5,58.3 34.5,57.5 35.2,57.1 35.8,57.5 35.8,58.3 35.2,58.6 		"/>
		<polygon class="st0" points="43.2,58.5 43.2,57.3 44.3,56.6 45.4,57.3 45.4,58.5 44.3,59.1 		"/>
		<polygon class="st0" points="107.9,58.2 107.9,57.6 108.3,57.3 108.8,57.6 108.8,58.2 108.3,58.4 		"/>
		<polygon class="st0" points="177.9,62.5 177.9,61.1 179.2,60.4 180.4,61.1 180.4,62.5 179.2,63.3 		"/>
		<polygon class="st0" points="186.9,62.7 186.9,61 188.3,60.2 189.8,61 189.8,62.7 188.3,63.5 		"/>
		<polygon class="st0" points="274.7,62.1 274.7,61.5 275.2,61.2 275.7,61.5 275.7,62.1 275.2,62.4 		"/>
		<polygon class="st0" points="288.4,62.1 288.4,61.5 288.9,61.2 289.4,61.5 289.4,62.1 288.9,62.4 		"/>
		<polygon class="st0" points="292.4,62.5 292.4,61.2 293.5,60.5 294.6,61.2 294.6,62.5 293.5,63.1 		"/>
		<polygon class="st0" points="302.4,62 302.4,61.7 302.7,61.5 302.9,61.7 302.9,62 302.7,62.1 		"/>
		<polygon class="st0" points="18.4,62.3 18.4,61.4 19.2,60.9 20,61.4 20,62.3 19.2,62.7 		"/>
		<polygon class="st0" points="23,62.3 23,61.4 23.8,61 24.5,61.4 24.5,62.3 23.8,62.7 		"/>
		<polygon class="st0" points="55.2,62.2 55.2,61.5 55.8,61.2 56.4,61.5 56.4,62.2 55.8,62.5 		"/>
		<polygon class="st0" points="68.8,62.2 68.8,61.5 69.5,61.1 70.1,61.5 70.1,62.2 69.5,62.5 		"/>
		<polygon class="st0" points="86.4,62.7 86.4,61 87.7,60.2 89.1,61 89.1,62.7 87.7,63.4 		"/>
		<polygon class="st0" points="95.9,62.4 95.9,61.2 96.9,60.7 97.9,61.2 97.9,62.4 96.9,63 		"/>
		<polygon class="st0" points="110.3,62 110.3,61.7 110.6,61.5 110.9,61.7 110.9,62 110.6,62.2 		"/>
		<polygon class="st0" points="166.7,66.4 166.7,65.2 167.8,64.6 168.8,65.2 168.8,66.4 167.8,67 		"/>
		<polygon class="st0" points="176.2,66.2 176.2,65.3 176.9,64.9 177.6,65.3 177.6,66.2 176.9,66.6 		"/>
		<polygon class="st0" points="213.3,65.9 213.3,65.6 213.4,65.5 213.7,65.6 213.7,65.9 213.4,66.1 		"/>
		<polygon class="st0" points="66.6,66.2 66.6,65.5 67.2,65 67.8,65.5 67.8,66.2 67.2,66.5 		"/>
		<polygon class="st0" points="144.5,66 144.5,65.6 144.9,65.3 145.3,65.6 145.3,66 144.9,66.2 		"/>
		<polygon class="st0" points="248.8,58.6 248.8,57.2 250,56.5 251.3,57.2 251.3,58.6 250,59.3 		"/>
		<polygon class="st0" points="122.9,70.6 122.9,69 124.3,68.1 125.7,69 125.7,70.6 124.3,71.3 		"/>
		<polygon class="st0" points="64.6,38.3 64.6,37.8 64.9,37.7 65.3,37.8 65.3,38.3 64.9,38.5 		"/>
		<polygon class="st0" points="78.5,38.1 78.5,38 78.6,37.9 78.8,38 78.8,38.1 78.6,38.3 		"/>
		<polygon class="st0" points="91.5,38.6 91.5,37.6 92.4,37.1 93.1,37.6 93.1,38.6 92.4,39 		"/>
		<polygon class="st0" points="133.1,38.3 133.1,37.8 133.5,37.7 133.8,37.8 133.8,38.3 133.5,38.5 		"/>
		<polygon class="st0" points="155.4,38.6 155.4,37.5 156.3,37 157.2,37.5 157.2,38.6 156.3,39.1 		"/>
		<polygon class="st0" points="43.9,42.3 43.9,41.8 44.3,41.5 44.8,41.8 44.8,42.3 44.3,42.5 		"/>
		<polygon class="st0" points="66.9,42.2 66.9,41.9 67.2,41.7 67.5,41.9 67.5,42.2 67.2,42.4 		"/>
		<polygon class="st0" points="71.6,42.1 71.6,41.9 71.7,41.9 71.9,41.9 71.9,42.1 71.7,42.2 		"/>
		<polygon class="st0" points="98.6,42.4 98.6,41.7 99.2,41.3 99.8,41.7 99.8,42.4 99.2,42.7 		"/>
		<polygon class="st0" points="153.5,42.4 153.5,41.7 154.1,41.4 154.6,41.7 154.6,42.4 154.1,42.7 		"/>
		<polygon class="st0" points="119.5,46.2 119.5,45.9 119.7,45.7 120,45.9 120,46.2 119.7,46.3 		"/>
		<polygon class="st0" points="133.1,46.2 133.1,45.8 133.5,45.6 133.9,45.8 133.9,46.2 133.5,46.5 		"/>
		<polygon class="st0" points="137.8,46.1 137.8,45.9 138,45.7 138.3,45.9 138.3,46.1 138,46.3 		"/>
		<polygon class="st0" points="155.8,46.3 155.8,45.7 156.3,45.4 156.8,45.7 156.8,46.3 156.3,46.5 		"/>
		<polygon class="st0" points="116.8,50.4 116.8,49.5 117.5,49.1 118.2,49.5 118.2,50.4 117.5,50.7 		"/>
		<polygon class="st0" points="130.9,50.1 130.9,49.8 131.2,49.7 131.4,49.8 131.4,50.1 131.2,50.3 		"/>
		<polygon class="st0" points="135.5,50.1 135.5,49.8 135.8,49.6 136.1,49.8 136.1,50.1 135.8,50.3 		"/>
		<polygon class="st0" points="153.6,50.2 153.6,49.7 154.1,49.5 154.5,49.7 154.5,50.2 154.1,50.4 		"/>
		<polygon class="st0" points="123.7,54.3 123.7,53.5 124.3,53.1 125,53.5 125,54.3 124.3,54.7 		"/>
		<polygon class="st0" points="128.4,54.2 128.4,53.6 128.9,53.3 129.4,53.6 129.4,54.2 128.9,54.5 		"/>
		<polygon class="st0" points="137.8,54.1 137.8,53.8 138,53.6 138.3,53.8 138.3,54.1 138,54.2 		"/>
		<polygon class="st0" points="53,42.3 53,41.8 53.5,41.5 53.9,41.8 53.9,42.3 53.5,42.6 		"/>
		<polygon class="st0" points="75.7,42.4 75.7,41.7 76.3,41.3 76.9,41.7 76.9,42.4 76.3,42.7 		"/>
		<polygon class="st0" points="128.6,46.2 128.6,45.9 128.9,45.7 129.1,45.9 129.1,46.2 128.9,46.3 		"/>
		<polygon class="st0" points="269.1,62.7 269.1,60.9 270.6,60.1 272.1,60.9 272.1,62.7 270.6,63.6 		"/>
		<polygon class="st0" points="266.8,66.6 266.8,64.9 268.3,64 269.9,64.9 269.9,66.6 268.3,67.5 		"/>
		<polygon class="st0" points="223.4,70.6 223.4,68.9 224.9,68 226.4,68.9 226.4,70.6 224.9,71.5 		"/>
		<polygon class="st0" points="296.5,70.6 296.5,68.9 298.1,68 299.6,68.9 299.6,70.6 298.1,71.5 		"/>
		<polygon class="st0" points="301.1,70.6 301.1,68.9 302.7,68 304.1,68.9 304.1,70.6 302.7,71.5 		"/>
		<polygon class="st0" points="166.2,74.6 166.2,72.8 167.8,72 169.3,72.8 169.3,74.6 167.8,75.4 		"/>
		<polygon class="st0" points="216.5,74.6 216.5,72.8 218,72 219.6,72.8 219.6,74.6 218,75.4 		"/>
		<polygon class="st0" points="221.1,74.6 221.1,72.8 222.6,72 224.1,72.8 224.1,74.6 222.6,75.4 		"/>
		<polygon class="st0" points="225.7,74.6 225.7,72.8 227.2,72 228.7,72.8 228.7,74.6 227.2,75.4 		"/>
		<polygon class="st0" points="271.4,74.6 271.4,72.8 272.9,72 274.4,72.8 274.4,74.6 272.9,75.4 		"/>
		<polygon class="st0" points="276,74.6 276,72.8 277.5,72 279,72.8 279,74.6 277.5,75.4 		"/>
		<polygon class="st0" points="280.6,74.6 280.6,72.8 282,72 283.6,72.8 283.6,74.6 282,75.4 		"/>
		<polygon class="st0" points="285.1,74.6 285.1,72.8 286.6,72 288.1,72.8 288.1,74.6 286.6,75.4 		"/>
		<polygon class="st0" points="294.3,74.6 294.3,72.8 295.8,72 297.2,72.8 297.2,74.6 295.8,75.4 		"/>
		<polygon class="st0" points="303.4,74.6 303.4,72.8 304.9,72 306.4,72.8 306.4,74.6 304.9,75.4 		"/>
		<polygon class="st0" points="317.1,74.6 317.1,72.8 318.6,72 320.1,72.8 320.1,74.6 318.6,75.4 		"/>
		<polygon class="st0" points="326.3,74.6 326.3,72.8 327.8,72 329.3,72.8 329.3,74.6 327.8,75.4 		"/>
		<polygon class="st0" points="250.8,62.7 250.8,60.9 252.3,60.1 253.8,60.9 253.8,62.7 252.3,63.6 		"/>
		<polygon class="st0" points="253.1,66.6 253.1,64.9 254.6,64 256.1,64.9 256.1,66.6 254.6,67.5 		"/>
		<polygon class="st0" points="262.3,66.6 262.3,64.9 263.8,64 265.3,64.9 265.3,66.6 263.8,67.5 		"/>
		<polygon class="st0" points="241.7,70.6 241.7,68.9 243.2,68 244.7,68.9 244.7,70.6 243.2,71.5 		"/>
		<polygon class="st0" points="246.2,70.6 246.2,68.9 247.8,68 249.3,68.9 249.3,70.6 247.8,71.5 		"/>
		<polygon class="st0" points="180,74.6 180,72.8 181.5,72 183,72.8 183,74.6 181.5,75.4 		"/>
		<polygon class="st0" points="234.8,74.6 234.8,72.8 236.3,72 237.9,72.8 237.9,74.6 236.3,75.4 		"/>
		<polygon class="st0" points="244,74.6 244,72.8 245.5,72 247,72.8 247,74.6 245.5,75.4 		"/>
		<polygon class="st0" points="257.7,74.6 257.7,72.8 259.2,72 260.7,72.8 260.7,74.6 259.2,75.4 		"/>
		<polygon class="st0" points="260,62.7 260,60.9 261.5,60.1 263,60.9 263,62.7 261.5,63.6 		"/>
		<polygon class="st0" points="294.3,66.6 294.3,64.9 295.8,64 297.2,64.9 297.2,66.6 295.8,67.5 		"/>
		<polygon class="st0" points="303.4,66.6 303.4,64.9 304.9,64 306.4,64.9 306.4,66.6 304.9,67.5 		"/>
		<polygon class="st0" points="308,66.6 308,64.9 309.5,64 311,64.9 311,66.6 309.5,67.5 		"/>
		<polygon class="st0" points="273.7,70.6 273.7,68.9 275.2,68 276.7,68.9 276.7,70.6 275.2,71.5 		"/>
		<polygon class="st0" points="305.7,70.6 305.7,68.9 307.2,68 308.7,68.9 308.7,70.6 307.2,71.5 		"/>
		<polygon class="st0" points="289.7,74.6 289.7,72.8 291.2,72 292.7,72.8 292.7,74.6 291.2,75.4 		"/>
		<polygon class="st0" points="298.9,74.6 298.9,72.8 300.3,72 301.8,72.8 301.8,74.6 300.3,75.4 		"/>
		<polygon class="st0" points="321.7,74.6 321.7,72.8 323.2,72 324.7,72.8 324.7,74.6 323.2,75.4 		"/>
		<polygon class="st0" points="232.6,70.6 232.6,68.9 234.1,68 235.5,68.9 235.5,70.6 234.1,71.5 		"/>
		<polygon class="st0" points="255.4,70.6 255.4,68.9 256.9,68 258.4,68.9 258.4,70.6 256.9,71.5 		"/>
		<polygon class="st0" points="260,70.6 260,68.9 261.5,68 263,68.9 263,70.6 261.5,71.5 		"/>
		<polygon class="st0" points="264.5,70.6 264.5,68.9 266.1,68 267.6,68.9 267.6,70.6 266.1,71.5 		"/>
		<polygon class="st0" points="239.4,74.6 239.4,72.8 240.9,72 242.4,72.8 242.4,74.6 240.9,75.4 		"/>
		<polygon class="st0" points="262.3,74.6 262.3,72.8 263.8,72 265.3,72.8 265.3,74.6 263.8,75.4 		"/>
		<polygon class="st0" points="45.1,62.7 45.1,60.9 46.6,60.1 48.1,60.9 48.1,62.7 46.6,63.6 		"/>
		<polygon class="st0" points="1.7,66.6 1.7,64.9 3.2,64 4.7,64.9 4.7,66.6 3.2,67.5 		"/>
		<polygon class="st0" points="6.2,66.6 6.2,64.9 7.7,64 9.3,64.9 9.3,66.6 7.7,67.5 		"/>
		<polygon class="st0" points="10.8,66.6 10.8,64.9 12.3,64 13.8,64.9 13.8,66.6 12.3,67.5 		"/>
		<polygon class="st0" points="20,66.6 20,64.9 21.4,64 23,64.9 23,66.6 21.4,67.5 		"/>
		<polygon class="st0" points="52,66.6 52,64.9 53.5,64 54.9,64.9 54.9,66.6 53.5,67.5 		"/>
		<polygon class="st0" points="93.1,66.6 93.1,64.9 94.6,64 96.1,64.9 96.1,66.6 94.6,67.5 		"/>
		<polygon class="st0" points="97.7,66.6 97.7,64.9 99.2,64 100.7,64.9 100.7,66.6 99.2,67.5 		"/>
		<polygon class="st0" points="147.9,66.6 147.9,64.9 149.5,64 151,64.9 151,66.6 149.5,67.5 		"/>
		<polygon class="st0" points="152.5,66.6 152.5,64.9 154.1,64 155.5,64.9 155.5,66.6 154.1,67.5 		"/>
		<polygon class="st0" points="22.3,70.6 22.3,68.9 23.8,68 25.2,68.9 25.2,70.6 23.8,71.5 		"/>
		<polygon class="st0" points="26.8,70.6 26.8,68.9 28.3,68 29.8,68.9 29.8,70.6 28.3,71.5 		"/>
		<polygon class="st0" points="31.4,70.6 31.4,68.9 32.9,68 34.4,68.9 34.4,70.6 32.9,71.5 		"/>
		<polygon class="st0" points="54.2,70.6 54.2,68.9 55.8,68 57.3,68.9 57.3,70.6 55.8,71.5 		"/>
		<polygon class="st0" points="77.1,70.6 77.1,68.9 78.6,68 80.1,68.9 80.1,70.6 78.6,71.5 		"/>
		<polygon class="st0" points="90.8,70.6 90.8,68.9 92.4,68 93.8,68.9 93.8,70.6 92.4,71.5 		"/>
		<polygon class="st0" points="109.1,70.6 109.1,68.9 110.6,68 112.1,68.9 112.1,70.6 110.6,71.5 		"/>
		<polygon class="st0" points="154.8,70.6 154.8,68.9 156.3,68 157.8,68.9 157.8,70.6 156.3,71.5 		"/>
		<polygon class="st0" points="159.4,70.6 159.4,68.9 160.9,68 162.4,68.9 162.4,70.6 160.9,71.5 		"/>
		<polygon class="st0" points="29.1,74.6 29.1,72.8 30.6,72 32.1,72.8 32.1,74.6 30.6,75.4 		"/>
		<polygon class="st0" points="33.7,74.6 33.7,72.8 35.2,72 36.7,72.8 36.7,74.6 35.2,75.4 		"/>
		<polygon class="st0" points="61.1,74.6 61.1,72.8 62.6,72 64.1,72.8 64.1,74.6 62.6,75.4 		"/>
		<polygon class="st0" points="88.6,74.6 88.6,72.8 90,72 91.5,72.8 91.5,74.6 90,75.4 		"/>
		<polygon class="st0" points="102.3,74.6 102.3,72.8 103.8,72 105.2,72.8 105.2,74.6 103.8,75.4 		"/>
		<polygon class="st0" points="106.8,74.6 106.8,72.8 108.3,72 109.8,72.8 109.8,74.6 108.3,75.4 		"/>
		<polygon class="st0" points="4,70.6 4,68.9 5.5,68 7,68.9 7,70.6 5.5,71.5 		"/>
		<polygon class="st0" points="136.5,70.6 136.5,68.9 138,68 139.6,68.9 139.6,70.6 138,71.5 		"/>
		<polygon class="st0" points="1.7,74.6 1.7,72.8 3.2,72 4.7,72.8 4.7,74.6 3.2,75.4 		"/>
		<polygon class="st0" points="6.2,74.6 6.2,72.8 7.7,72 9.3,72.8 9.3,74.6 7.7,75.4 		"/>
		<polygon class="st0" points="15.4,74.6 15.4,72.8 16.9,72 18.4,72.8 18.4,74.6 16.9,75.4 		"/>
		<polygon class="st0" points="79.4,74.6 79.4,72.8 80.9,72 82.4,72.8 82.4,74.6 80.9,75.4 		"/>
		<polygon class="st0" points="15.4,66.6 15.4,64.9 16.9,64 18.4,64.9 18.4,66.6 16.9,67.5 		"/>
		<polygon class="st0" points="33.7,66.6 33.7,64.9 35.2,64 36.7,64.9 36.7,66.6 35.2,67.5 		"/>
		<polygon class="st0" points="164,70.6 164,68.9 165.5,68 167,68.9 167,70.6 165.5,71.5 		"/>
		<polygon class="st0" points="47.4,74.6 47.4,72.8 48.9,72 50.4,72.8 50.4,74.6 48.9,75.4 		"/>
		<polygon class="st0" points="56.5,74.6 56.5,72.8 58,72 59.5,72.8 59.5,74.6 58,75.4 		"/>
		<polygon class="st0" points="97.7,74.6 97.7,72.8 99.2,72 100.7,72.8 100.7,74.6 99.2,75.4 		"/>
		<polygon class="st0" points="157.1,74.6 157.1,72.8 158.6,72 160.1,72.8 160.1,74.6 158.6,75.4 		"/>
		<polygon class="st0" points="13.1,70.6 13.1,68.9 14.6,68 16.1,68.9 16.1,70.6 14.6,71.5 		"/>
		<polygon class="st0" points="127.4,70.6 127.4,68.9 128.9,68 130.4,68.9 130.4,70.6 128.9,71.5 		"/>
		<polygon class="st0" points="116,74.6 116,72.8 117.5,72 119,72.8 119,74.6 117.5,75.4 		"/>
		<polygon class="st0" points="206.1,38.4 206.1,37.8 206.6,37.5 207.1,37.8 207.1,38.4 206.6,38.6 		"/>
		<polygon class="st0" points="215.2,38.4 215.2,37.7 215.8,37.4 216.4,37.7 216.4,38.4 215.8,38.7 		"/>
		<polygon class="st0" points="242.4,38.6 242.4,37.6 243.2,37.1 244,37.6 244,38.6 243.2,39 		"/>
		<polygon class="st0" points="270.2,38.3 270.2,37.8 270.6,37.6 271.1,37.8 271.1,38.3 270.6,38.6 		"/>
		<polygon class="st0" points="274.4,38.5 274.4,37.6 275.2,37.2 276,37.6 276,38.5 275.2,39 		"/>
		<polygon class="st0" points="208.4,42.4 208.4,41.8 208.9,41.5 209.4,41.8 209.4,42.4 208.9,42.7 		"/>
		<polygon class="st0" points="221.3,42.8 221.3,41.3 222.6,40.6 223.9,41.3 223.9,42.8 222.6,43.5 		"/>
		<polygon class="st0" points="304.2,42.4 304.2,41.6 304.9,41.2 305.6,41.6 305.6,42.4 304.9,42.8 		"/>
		<polygon class="st0" points="2.5,42.4 2.5,41.6 3.2,41.2 3.9,41.6 3.9,42.4 3.2,42.8 		"/>
		<polygon class="st0" points="12.1,42.2 12.1,41.9 12.3,41.8 12.5,41.9 12.5,42.2 12.3,42.3 		"/>
		<polygon class="st0" points="224.2,46.4 224.2,45.6 224.9,45.1 225.6,45.6 225.6,46.4 224.9,46.9 		"/>
		<polygon class="st0" points="242.5,46.4 242.5,45.6 243.2,45.3 243.9,45.6 243.9,46.4 243.2,46.7 		"/>
		<polygon class="st0" points="251.3,46.6 251.3,45.4 252.3,44.8 253.4,45.4 253.4,46.6 252.3,47.2 		"/>
		<polygon class="st0" points="270,46.3 270,45.6 270.6,45.3 271.2,45.6 271.2,46.3 270.6,46.7 		"/>
		<polygon class="st0" points="306.6,46.3 306.6,45.7 307.2,45.3 307.8,45.7 307.8,46.3 307.2,46.6 		"/>
		<polygon class="st0" points="311.4,46.2 311.4,45.7 311.8,45.5 312.2,45.7 312.2,46.2 311.8,46.5 		"/>
		<polygon class="st0" points="18.6,46.3 18.6,45.7 19.2,45.3 19.7,45.7 19.7,46.3 19.2,46.6 		"/>
		<polygon class="st0" points="207.7,50.6 207.7,49.3 208.9,48.7 210,49.3 210,50.6 208.9,51.3 		"/>
		<polygon class="st0" points="213.3,50.1 213.3,49.8 213.4,49.8 213.6,49.8 213.6,50.1 213.4,50.1 		"/>
		<polygon class="st0" points="217.2,50.4 217.2,49.5 218,49 218.9,49.5 218.9,50.4 218,50.9 		"/>
		<polygon class="st0" points="235.6,50.4 235.6,49.5 236.3,49.1 237.1,49.5 237.1,50.4 236.3,50.8 		"/>
		<polygon class="st0" points="258.8,50.2 258.8,49.7 259.2,49.4 259.7,49.7 259.7,50.2 259.2,50.4 		"/>
		<polygon class="st0" points="263.4,50.1 263.4,49.8 263.8,49.5 264.1,49.8 264.1,50.1 263.8,50.4 		"/>
		<polygon class="st0" points="267.1,50.7 267.1,49.2 268.3,48.5 269.6,49.2 269.6,50.7 268.3,51.4 		"/>
		<polygon class="st0" points="271.8,50.6 271.8,49.3 272.9,48.7 274.1,49.3 274.1,50.6 272.9,51.3 		"/>
		<polygon class="st0" points="303.9,50.6 303.9,49.4 304.9,48.8 305.9,49.4 305.9,50.6 304.9,51.1 		"/>
		<polygon class="st0" points="309.1,50.1 309.1,49.8 309.5,49.5 309.8,49.8 309.8,50.1 309.5,50.3 		"/>
		<polygon class="st0" points="326.5,50.7 326.5,49.2 327.8,48.5 329,49.2 329,50.7 327.8,51.4 		"/>
		<polygon class="st0" points="2,50.7 2,49.2 3.2,48.5 4.4,49.2 4.4,50.7 3.2,51.4 		"/>
		<polygon class="st0" points="34.9,50.1 34.9,49.8 35.2,49.6 35.5,49.8 35.5,50.1 35.2,50.3 		"/>
		<polygon class="st0" points="52.1,50.7 52.1,49.2 53.5,48.4 54.8,49.2 54.8,50.7 53.5,51.5 		"/>
		<polygon class="st0" points="70.5,50.7 70.5,49.2 71.7,48.5 73,49.2 73,50.7 71.7,51.4 		"/>
		<polygon class="st0" points="76.1,50.1 76.1,49.8 76.3,49.7 76.6,49.8 76.6,50.1 76.3,50.3 		"/>
		<polygon class="st0" points="206,54.3 206,53.5 206.6,53.2 207.3,53.5 207.3,54.3 206.6,54.6 		"/>
		<polygon class="st0" points="223.9,54.5 223.9,53.3 224.9,52.8 225.9,53.3 225.9,54.5 224.9,55.1 		"/>
		<polygon class="st0" points="256.7,54.1 256.7,53.8 256.9,53.7 257.1,53.8 257.1,54.1 256.9,54.1 		"/>
		<polygon class="st0" points="270.2,54.2 270.2,53.6 270.6,53.3 271.1,53.6 271.1,54.2 270.6,54.5 		"/>
		<polygon class="st0" points="278.4,54.7 278.4,53.1 279.8,52.3 281.1,53.1 281.1,54.7 279.8,55.5 		"/>
		<polygon class="st0" points="283.2,54.5 283.2,53.3 284.4,52.7 285.4,53.3 285.4,54.5 284.4,55.2 		"/>
		<polygon class="st0" points="320.4,54.2 320.4,53.6 320.9,53.3 321.4,53.6 321.4,54.2 320.9,54.5 		"/>
		<polygon class="st0" points="325.1,54.2 325.1,53.7 325.5,53.5 325.9,53.7 325.9,54.2 325.5,54.4 		"/>
		<polygon class="st0" points="50.1,54.5 50.1,53.3 51.2,52.7 52.3,53.3 52.3,54.5 51.2,55.2 		"/>
		<polygon class="st0" points="82.3,54.4 82.3,53.4 83.2,52.9 84,53.4 84,54.4 83.2,54.9 		"/>
		<polygon class="st0" points="155.9,54.2 155.9,53.6 156.3,53.4 156.8,53.6 156.8,54.2 156.3,54.4 		"/>
		<polygon class="st0" points="171,58.6 171,57.1 172.4,56.4 173.7,57.1 173.7,58.6 172.4,59.4 		"/>
		<polygon class="st0" points="193.7,58.7 193.7,57 195.2,56.1 196.7,57 196.7,58.7 195.2,59.6 		"/>
		<polygon class="st0" points="203.7,58.2 203.7,57.5 204.4,57.1 205,57.5 205,58.2 204.4,58.6 		"/>
		<polygon class="st0" points="212.8,58.3 212.8,57.5 213.4,57.1 214.2,57.5 214.2,58.3 213.4,58.7 		"/>
		<polygon class="st0" points="225.8,58.7 225.8,57.1 227.2,56.3 228.6,57.1 228.6,58.7 227.2,59.5 		"/>
		<polygon class="st0" points="231.3,58.2 231.3,57.6 231.7,57.3 232.3,57.6 232.3,58.2 231.7,58.4 		"/>
		<polygon class="st0" points="235.9,58.2 235.9,57.6 236.3,57.4 236.8,57.6 236.8,58.2 236.3,58.4 		"/>
		<polygon class="st0" points="258.2,58.4 258.2,57.3 259.2,56.8 260.1,57.3 260.1,58.4 259.2,59 		"/>
		<polygon class="st0" points="280.7,58.7 280.7,57.1 282,56.3 283.5,57.1 283.5,58.7 282,59.5 		"/>
		<polygon class="st0" points="1.8,58.7 1.8,57.1 3.2,56.3 4.6,57.1 4.6,58.7 3.2,59.5 		"/>
		<polygon class="st0" points="15.9,58.4 15.9,57.3 16.9,56.7 17.9,57.3 17.9,58.4 16.9,59 		"/>
		<polygon class="st0" points="21.3,58 21.3,57.7 21.4,57.7 21.6,57.7 21.6,58 21.4,58.1 		"/>
		<polygon class="st0" points="48.1,58.3 48.1,57.4 48.9,57 49.7,57.4 49.7,58.3 48.9,58.7 		"/>
		<polygon class="st0" points="52.9,58.2 52.9,57.6 53.5,57.2 54,57.6 54,58.2 53.5,58.5 		"/>
		<polygon class="st0" points="76,58.1 76,57.7 76.3,57.4 76.7,57.7 76.7,58.1 76.3,58.3 		"/>
		<polygon class="st0" points="88.7,58.6 88.7,57.1 90,56.4 91.3,57.1 91.3,58.6 90,59.3 		"/>
		<polygon class="st0" points="103.2,58.2 103.2,57.6 103.8,57.3 104.3,57.6 104.3,58.2 103.8,58.4 		"/>
		<polygon class="st0" points="120.8,58.6 120.8,57.1 122,56.4 123.3,57.1 123.3,58.6 122,59.3 		"/>
		<polygon class="st0" points="131,58 131,57.7 131.2,57.6 131.4,57.7 131.4,58 131.2,58.2 		"/>
		<polygon class="st0" points="148.5,58.4 148.5,57.3 149.5,56.8 150.4,57.3 150.4,58.4 149.5,58.9 		"/>
		<polygon class="st0" points="162.2,58.4 162.2,57.3 163.2,56.7 164.2,57.3 164.2,58.4 163.2,59 		"/>
		<polygon class="st0" points="183.6,61.9 183.6,61.7 183.8,61.7 183.9,61.7 183.9,61.9 183.8,62 		"/>
		<polygon class="st0" points="211,62 211,61.7 211.2,61.6 211.4,61.7 211.4,62 211.2,62.1 		"/>
		<polygon class="st0" points="219.3,62.4 219.3,61.2 220.3,60.7 221.3,61.2 221.3,62.4 220.3,63 		"/>
		<polygon class="st0" points="224.7,62 224.7,61.7 224.9,61.6 225.1,61.7 225.1,62 224.9,62.1 		"/>
		<polygon class="st0" points="228.8,62.2 228.8,61.5 229.5,61.1 230.1,61.5 230.1,62.2 229.5,62.5 		"/>
		<polygon class="st0" points="279.4,62.1 279.4,61.6 279.8,61.4 280.1,61.6 280.1,62.1 279.8,62.3 		"/>
		<polygon class="st0" points="283.8,62.1 283.8,61.5 284.4,61.2 284.9,61.5 284.9,62.1 284.4,62.4 		"/>
		<polygon class="st0" points="315.9,62.1 315.9,61.6 316.3,61.3 316.8,61.6 316.8,62.1 316.3,62.4 		"/>
		<polygon class="st0" points="324.1,62.6 324.1,61 325.5,60.2 326.9,61 326.9,62.6 325.5,63.4 		"/>
		<polygon class="st0" points="4.9,62.1 4.9,61.5 5.5,61.2 6,61.5 6,62.1 5.5,62.4 		"/>
		<polygon class="st0" points="28.1,62 28.1,61.7 28.3,61.6 28.5,61.7 28.5,62 28.3,62.1 		"/>
		<polygon class="st0" points="32.7,62 32.7,61.7 32.9,61.7 33.1,61.7 33.1,62 32.9,62 		"/>
		<polygon class="st0" points="49.9,62.6 49.9,61.1 51.2,60.3 52.5,61.1 52.5,62.6 51.2,63.3 		"/>
		<polygon class="st0" points="59.6,62.2 59.6,61.4 60.3,61.1 61,61.4 61,62.2 60.3,62.6 		"/>
		<polygon class="st0" points="72.7,62.6 72.7,61.1 74.1,60.3 75.4,61.1 75.4,62.6 74.1,63.4 		"/>
		<polygon class="st0" points="91.6,62.3 91.6,61.4 92.4,61 93,61.4 93,62.3 92.4,62.7 		"/>
		<polygon class="st0" points="105.9,62 105.9,61.7 106,61.7 106.2,61.7 106.2,62 106,62 		"/>
		<polygon class="st0" points="123.4,62.4 123.4,61.3 124.3,60.8 125.2,61.3 125.2,62.4 124.3,62.8 		"/>
		<polygon class="st0" points="128.2,62.3 128.2,61.4 128.9,60.9 129.7,61.4 129.7,62.3 128.9,62.7 		"/>
		<polygon class="st0" points="141.5,62.5 141.5,61.2 142.6,60.5 143.8,61.2 143.8,62.5 142.6,63.2 		"/>
		<polygon class="st0" points="146.9,62 146.9,61.7 147.2,61.5 147.5,61.7 147.5,62 147.2,62.1 		"/>
		<polygon class="st0" points="151.3,62.1 151.3,61.5 151.7,61.2 152.3,61.5 152.3,62.1 151.7,62.4 		"/>
		<polygon class="st0" points="217.8,65.9 217.8,65.6 218,65.5 218.3,65.6 218.3,65.9 218,66.1 		"/>
		<polygon class="st0" points="56.5,66.6 56.5,64.9 58,64.1 59.5,64.9 59.5,66.6 58,67.5 		"/>
		<polygon class="st0" points="70.6,66.5 70.6,65.1 71.7,64.4 72.9,65.1 72.9,66.5 71.7,67.2 		"/>
		<polygon class="st0" points="80.2,66.2 80.2,65.4 80.9,65 81.6,65.4 81.6,66.2 80.9,66.6 		"/>
		<polygon class="st0" points="84.5,66.3 84.5,65.2 85.5,64.7 86.4,65.2 86.4,66.3 85.5,66.9 		"/>
		<polygon class="st0" points="116.6,66.3 116.6,65.3 117.5,64.7 118.4,65.3 118.4,66.3 117.5,66.8 		"/>
		<polygon class="st0" points="173.3,70.5 173.3,69 174.6,68.2 176,69 176,70.5 174.6,71.3 		"/>
		<polygon class="st0" points="59.4,70.3 59.4,69.2 60.3,68.7 61.3,69.2 61.3,70.3 60.3,70.9 		"/>
		<polygon class="st0" points="64.4,70 64.4,69.5 64.9,69.3 65.3,69.5 65.3,70 64.9,70.3 		"/>
		<polygon class="st0" points="118.5,70.4 118.5,69 119.7,68.3 121,69 121,70.4 119.7,71.2 		"/>
		<polygon class="st0" points="240.4,58.2 240.4,57.6 240.9,57.3 241.5,57.6 241.5,58.2 240.9,58.5 		"/>
		<polygon class="st0" points="253.8,58.3 253.8,57.4 254.6,57 255.4,57.4 255.4,58.3 254.6,58.8 		"/>
		<polygon class="st0" points="190.3,65.9 190.3,65.6 190.6,65.5 190.9,65.6 190.9,65.9 190.6,66.1 		"/>
		<polygon class="st0" points="182.4,70.5 182.4,69 183.8,68.2 185.1,69 185.1,70.5 183.8,71.3 		"/>
		<polygon class="st0" points="197,70 197,69.4 197.5,69.2 197.9,69.4 197.9,70 197.5,70.3 		"/>
		<polygon class="st0" points="205.5,70.4 205.5,69.1 206.6,68.5 207.7,69.1 207.7,70.4 206.6,71 		"/>
		<polygon class="st0" points="198.5,74.4 198.5,73 199.8,72.3 201,73 201,74.4 199.8,75.1 		"/>
		<polygon class="st0" points="302.4,38.2 302.4,38 302.7,37.8 302.8,38 302.8,38.2 302.7,38.3 		"/>
		<polygon class="st0" points="180.8,42.5 180.8,41.6 181.5,41.2 182.2,41.6 182.2,42.5 181.5,42.8 		"/>
		<polygon class="st0" points="240.1,42.5 240.1,41.6 240.9,41.1 241.7,41.6 241.7,42.5 240.9,42.9 		"/>
		<polygon class="st0" points="205.7,46.6 205.7,45.4 206.6,44.9 207.6,45.4 207.6,46.6 206.6,47.1 		"/>
		<polygon class="st0" points="247.1,46.4 247.1,45.6 247.8,45.2 248.4,45.6 248.4,46.4 247.8,46.7 		"/>
		<polygon class="st0" points="283.8,46.3 283.8,45.6 284.4,45.3 285,45.6 285,46.3 284.4,46.7 		"/>
		<polygon class="st0" points="324,46.9 324,45.1 325.5,44.3 327,45.1 327,46.9 325.5,47.7 		"/>
		<polygon class="st0" points="13.9,46.4 13.9,45.6 14.6,45.2 15.3,45.6 15.3,46.4 14.6,46.8 		"/>
		<polygon class="st0" points="185.5,50.3 185.5,49.7 186.1,49.4 186.5,49.7 186.5,50.3 186.1,50.6 		"/>
		<polygon class="st0" points="281.3,50.4 281.3,49.5 282,49.1 282.8,49.5 282.8,50.4 282,50.8 		"/>
		<polygon class="st0" points="285.5,50.6 285.5,49.3 286.6,48.7 287.7,49.3 287.7,50.6 286.6,51.2 		"/>
		<polygon class="st0" points="290.2,50.5 290.2,49.4 291.2,48.9 292.1,49.4 292.1,50.5 291.2,51 		"/>
		<polygon class="st0" points="183.4,54.1 183.4,53.7 183.8,53.5 184.1,53.7 184.1,54.1 183.8,54.4 		"/>
		<polygon class="st0" points="238,54.2 238,53.6 238.6,53.3 239.2,53.6 239.2,54.2 238.6,54.5 		"/>
		<polygon class="st0" points="246.8,54.5 246.8,53.3 247.8,52.7 248.8,53.3 248.8,54.5 247.8,55.1 		"/>
		<polygon class="st0" points="293.1,54.1 293.1,53.8 293.5,53.6 293.8,53.8 293.8,54.1 293.5,54.3 		"/>
		<polygon class="st0" points="78.1,54.2 78.1,53.6 78.6,53.3 79.1,53.6 79.1,54.2 78.6,54.5 		"/>
		<polygon class="st0" points="159.8,54.5 159.8,53.3 160.9,52.6 162,53.3 162,54.5 160.9,55.2 		"/>
		<polygon class="st0" points="167.5,58 167.5,57.7 167.8,57.6 168,57.7 168,58 167.8,58.2 		"/>
		<polygon class="st0" points="190.3,58 190.3,57.7 190.6,57.6 190.9,57.7 190.9,58 190.6,58.2 		"/>
		<polygon class="st0" points="267.1,58.6 267.1,57.1 268.3,56.4 269.6,57.1 269.6,58.6 268.3,59.3 		"/>
		<polygon class="st0" points="6.4,58.6 6.4,57.1 7.7,56.3 9.1,57.1 9.1,58.6 7.7,59.4 		"/>
		<polygon class="st0" points="39.2,58.2 39.2,57.6 39.7,57.2 40.3,57.6 40.3,58.2 39.7,58.5 		"/>
		<polygon class="st0" points="157.4,58.6 157.4,57.2 158.6,56.5 159.8,57.2 159.8,58.6 158.6,59.2 		"/>
		<polygon class="st0" points="169.1,62.4 169.1,61.2 170,60.7 171,61.2 171,62.4 170,63 		"/>
		<polygon class="st0" points="311.3,62.1 311.3,61.5 311.8,61.3 312.3,61.5 312.3,62.1 311.8,62.4 		"/>
		<polygon class="st0" points="320,62.4 320,61.3 320.9,60.8 321.8,61.3 321.8,62.4 320.9,62.9 		"/>
		<polygon class="st0" points="9.2,62.3 9.2,61.4 10,60.8 10.9,61.4 10.9,62.3 10,62.8 		"/>
		<polygon class="st0" points="63.5,62.6 63.5,61 64.9,60.2 66.3,61 66.3,62.6 64.9,63.4 		"/>
		<polygon class="st0" points="100.3,62.5 100.3,61.1 101.4,60.4 102.7,61.1 102.7,62.5 101.4,63.2 		"/>
		<polygon class="st0" points="181,66.1 181,65.5 181.5,65.2 182,65.5 182,66.1 181.5,66.3 		"/>
		<polygon class="st0" points="221.8,66.2 221.8,65.3 222.6,64.9 223.4,65.3 223.4,66.2 222.6,66.7 		"/>
		<polygon class="st0" points="285.2,66.6 285.2,65 286.6,64.2 288,65 288,66.6 286.6,67.5 		"/>
		<polygon class="st0" points="108,65.9 108,65.6 108.3,65.5 108.6,65.6 108.6,65.9 108.3,66.1 		"/>
		<polygon class="st0" points="134.8,66.3 134.8,65.2 135.8,64.6 136.8,65.2 136.8,66.3 135.8,66.9 		"/>
		<polygon class="st0" points="210.6,70.1 210.6,69.4 211.2,69 211.8,69.4 211.8,70.1 211.2,70.4 		"/>
		<polygon class="st0" points="244,58.7 244,57 245.5,56.3 246.9,57 246.9,58.7 245.5,59.5 		"/>
		<polygon class="st0" points="41.9,38.1 41.9,38 42.1,38 42.2,38 42.2,38.1 42.1,38.2 		"/>
		<polygon class="st0" points="46.3,38.2 46.3,37.9 46.6,37.8 46.9,37.9 46.9,38.2 46.6,38.4 		"/>
		<polygon class="st0" points="50.8,38.3 50.8,37.8 51.2,37.6 51.6,37.8 51.6,38.3 51.2,38.5 		"/>
		<polygon class="st0" points="68.8,38.5 68.8,37.7 69.5,37.2 70.2,37.7 70.2,38.5 69.5,38.9 		"/>
		<polygon class="st0" points="137.5,38.4 137.5,37.8 138,37.4 138.6,37.8 138.6,38.4 138,38.7 		"/>
		<polygon class="st0" points="160.6,38.3 160.6,37.9 160.9,37.7 161.2,37.9 161.2,38.3 160.9,38.4 		"/>
		<polygon class="st0" points="48.6,42.2 48.6,41.9 48.9,41.8 49.1,41.9 49.1,42.2 48.9,42.3 		"/>
		<polygon class="st0" points="131,42.2 131,41.9 131.2,41.8 131.4,41.9 131.4,42.2 131.2,42.3 		"/>
		<polygon class="st0" points="134.8,42.6 134.8,41.5 135.8,40.9 136.7,41.5 136.7,42.6 135.8,43.1 		"/>
		<polygon class="st0" points="158.3,42.2 158.3,41.9 158.6,41.7 158.9,41.9 158.9,42.2 158.6,42.4 		"/>
		<polygon class="st0" points="55.3,46.3 55.3,45.7 55.8,45.4 56.2,45.7 56.2,46.3 55.8,46.5 		"/>
		<polygon class="st0" points="73.6,46.3 73.6,45.7 74.1,45.5 74.5,45.7 74.5,46.3 74.1,46.5 		"/>
		<polygon class="st0" points="82.8,46.2 82.8,45.8 83.2,45.6 83.6,45.8 83.6,46.2 83.2,46.4 		"/>
		<polygon class="st0" points="96.3,46.3 96.3,45.7 96.9,45.3 97.5,45.7 97.5,46.3 96.9,46.7 		"/>
		<polygon class="st0" points="151.5,46.2 151.5,45.9 151.7,45.7 152,45.9 152,46.2 151.7,46.3 		"/>
		<polygon class="st0" points="85,50.3 85,49.7 85.5,49.4 85.9,49.7 85.9,50.3 85.5,50.5 		"/>
		<polygon class="st0" points="158.5,50 158.5,49.8 158.6,49.8 158.8,49.8 158.8,50 158.6,50.1 		"/>
		<polygon class="st0" points="162.3,50.5 162.3,49.4 163.2,48.9 164.1,49.4 164.1,50.5 163.2,51 		"/>
		<polygon class="st0" points="132.6,54.4 132.6,53.4 133.5,52.9 134.4,53.4 134.4,54.4 133.5,54.9 		"/>
		<polygon class="st0" points="73.8,38.2 73.8,37.9 74.1,37.8 74.3,37.9 74.3,38.2 74.1,38.4 		"/>
		<polygon class="st0" points="128.7,38.2 128.7,38 128.9,37.8 129.1,38 129.1,38.2 128.9,38.3 		"/>
		<polygon class="st0" points="114.7,46.3 114.7,45.7 115.2,45.4 115.7,45.7 115.7,46.3 115.2,46.6 		"/>
		<polygon class="st0" points="148.7,50.4 148.7,49.5 149.5,49.1 150.3,49.5 150.3,50.4 149.5,50.8 		"/>
		<polygon class="st0" points="146.3,54.4 146.3,53.5 147.2,53 148,53.5 148,54.4 147.2,54.9 		"/>
	</g>
	<g>
		<polygon class="st1" points="234.8,66.6 234.8,64.9 236.3,64 237.9,64.9 237.9,66.6 236.3,67.5 		"/>
		<polygon class="st1" points="237.1,62.7 237.1,60.9 238.6,60.1 240.1,60.9 240.1,62.7 238.6,63.6 		"/>
		<polygon class="st1" points="257.7,66.6 257.7,64.9 259.2,64 260.7,64.9 260.7,66.6 259.2,67.5 		"/>
		<polygon class="st1" points="102.3,66.6 102.3,64.9 103.8,64 105.2,64.9 105.2,66.6 103.8,67.5 		"/>
		<polygon class="st1" points="72.5,70.6 72.5,68.9 74.1,68 75.5,68.9 75.5,70.6 74.1,71.5 		"/>
		<polygon class="st1" points="150.3,70.6 150.3,68.9 151.7,68 153.3,68.9 153.3,70.6 151.7,71.5 		"/>
		<polygon class="st1" points="8.6,70.6 8.6,68.9 10,68 11.5,68.9 11.5,70.6 10,71.5 		"/>
		<polygon class="st1" points="20,74.6 20,72.8 21.4,72 23,72.8 23,74.6 21.4,75.4 		"/>
		<polygon class="st1" points="138.9,74.6 138.9,72.8 140.3,72 141.8,72.8 141.8,74.6 140.3,75.4 		"/>
		<polygon class="st1" points="100,70.6 100,68.9 101.4,68 103,68.9 103,70.6 101.4,71.5 		"/>
		<polygon class="st1" points="24.5,74.6 24.5,72.8 26,72 27.6,72.8 27.6,74.6 26,75.4 		"/>
		<polygon class="st1" points="272.4,42.3 272.4,41.8 272.9,41.5 273.4,41.8 273.4,42.3 272.9,42.6 		"/>
		<polygon class="st1" points="210.1,54.6 210.1,53.3 211.2,52.6 212.3,53.3 212.3,54.6 211.2,55.2 		"/>
		<polygon class="st1" points="155.5,62.3 155.5,61.4 156.3,60.9 157.1,61.4 157.1,62.3 156.3,62.8 		"/>
		<polygon class="st1" points="290.4,66.2 290.4,65.3 291.2,64.9 292,65.3 292,66.2 291.2,66.6 		"/>
		<polygon class="st1" points="323,42.2 323,41.9 323.2,41.8 323.4,41.9 323.4,42.2 323.2,42.3 		"/>
		<polygon class="st1" points="164,62.7 164,61 165.5,60.2 166.9,61 166.9,62.7 165.5,63.5 		"/>
		<polygon class="st1" points="116.9,42.4 116.9,41.7 117.5,41.4 118,41.7 118,42.4 117.5,42.7 		"/>
		<polygon class="st1" points="276,66.6 276,64.9 277.5,64 279,64.9 279,66.6 277.5,67.5 		"/>
		<polygon class="st1" points="317.1,66.6 317.1,64.9 318.6,64 320.1,64.9 320.1,66.6 318.6,67.5 		"/>
		<polygon class="st1" points="278.2,70.6 278.2,68.9 279.8,68 281.3,68.9 281.3,70.6 279.8,71.5 		"/>
		<polygon class="st1" points="324,70.6 324,68.9 325.5,68 327,68.9 327,70.6 325.5,71.5 		"/>
		<polygon class="st1" points="212,74.6 212,72.8 213.4,72 215,72.8 215,74.6 213.4,75.4 		"/>
		<polygon class="st1" points="308,74.6 308,72.8 309.5,72 311,72.8 311,74.6 309.5,75.4 		"/>
		<polygon class="st1" points="312.6,74.6 312.6,72.8 314.1,72 315.5,72.8 315.5,74.6 314.1,75.4 		"/>
		<polygon class="st1" points="248.5,74.6 248.5,72.8 250,72 251.6,72.8 251.6,74.6 250,75.4 		"/>
		<polygon class="st1" points="232.6,62.7 232.6,60.9 234.1,60.1 235.5,60.9 235.5,62.7 234.1,63.6 		"/>
		<polygon class="st1" points="170.8,74.6 170.8,72.8 172.4,72 173.8,72.8 173.8,74.6 172.4,75.4 		"/>
		<polygon class="st1" points="38.3,66.6 38.3,64.9 39.7,64 41.3,64.9 41.3,66.6 39.7,67.5 		"/>
		<polygon class="st1" points="52,74.6 52,72.8 53.5,72 54.9,72.8 54.9,74.6 53.5,75.4 		"/>
		<polygon class="st1" points="237.4,38.7 237.4,37.4 238.6,36.7 239.8,37.4 239.8,38.7 238.6,39.4 		"/>
		<polygon class="st1" points="180.5,50.5 180.5,49.4 181.5,48.8 182.4,49.4 182.4,50.5 181.5,51.1 		"/>
		<polygon class="st1" points="260.3,54.6 260.3,53.2 261.5,52.5 262.7,53.2 262.7,54.6 261.5,55.3 		"/>
		<polygon class="st1" points="96.1,54.4 96.1,53.5 96.9,53 97.7,53.5 97.7,54.4 96.9,54.8 		"/>
		<polygon class="st1" points="299.9,58.1 299.9,57.6 300.3,57.4 300.8,57.6 300.8,58.1 300.3,58.3 		"/>
		<polygon class="st1" points="56.9,58.5 56.9,57.2 58,56.5 59.2,57.2 59.2,58.5 58,59.2 		"/>
		<polygon class="st1" points="138.9,58.7 138.9,57 140.3,56.2 141.8,57 141.8,58.7 140.3,59.6 		"/>
		<polygon class="st1" points="191.5,62.7 191.5,61 192.9,60.2 194.4,61 194.4,62.7 192.9,63.5 		"/>
		<polygon class="st1" points="118.6,62.5 118.6,61.2 119.7,60.5 120.9,61.2 120.9,62.5 119.7,63.1 		"/>
		<polygon class="st1" points="178,70.4 178,69.1 179.2,68.4 180.4,69.1 180.4,70.4 179.2,71.1 		"/>
		<polygon class="st1" points="9.4,46.3 9.4,45.6 10,45.3 10.6,45.6 10.6,46.3 10,46.7 		"/>
		<polygon class="st1" points="322.7,50.3 322.7,49.7 323.2,49.4 323.7,49.7 323.7,50.3 323.2,50.6 		"/>
		<polygon class="st1" points="177.8,54.7 177.8,53.1 179.2,52.3 180.6,53.1 180.6,54.7 179.2,55.5 		"/>
		<polygon class="st1" points="139.2,66.5 139.2,65.1 140.3,64.4 141.5,65.1 141.5,66.5 140.3,67.1 		"/>
		<polygon class="st1" points="126.1,50.2 126.1,49.7 126.6,49.4 127.1,49.7 127.1,50.2 126.6,50.5 		"/>
	</g>
</g>
</svg>
