<?xml version="1.0" encoding="UTF-8"?><svg id="a" xmlns="http://www.w3.org/2000/svg" viewBox="0 0 102.5 100"><path d="M37.3,75.31c0,.5-.4,.9-.9,.9h-11.1c-.5,0-.9-.4-.9-.9V39.61c0-.5,.4-.9,.9-.9h11.1c.5,0,.9,.4,.9,.9v35.7Z"/><circle cx="30.8" cy="28.21" r="7.3"/><path d="M79,75.31c0,.5-.4,.9-.9,.9h-11.1c-.5,0-.9-.4-.9-.9v-17.4c0-4.9-.4-8.6-4.9-8.6-4.2,0-5.8,2.3-5.8,8.3v17.6c0,.5-.4,.9-.9,.9h-11c-.5,0-.9-.4-.9-.9V39.51c0-.5,.4-.9,.9-.9h10.6c.5,0,.9,.4,.9,.9v2.3c2-2.2,5.3-4.2,9.8-4.2,12.6,0,14.2,9.1,14.2,18v19.7Z"/></svg>