<?xml version="1.0" encoding="utf-8"?>
<!-- Generator: Adobe Illustrator 26.2.1, SVG Export Plug-In . SVG Version: 6.00 Build 0)  -->
<svg version="1.1" id="a" xmlns="http://www.w3.org/2000/svg" xmlns:xlink="http://www.w3.org/1999/xlink" x="0px" y="0px"
	 viewBox="0 0 466.1 246" style="enable-background:new 0 0 466.1 246;" xml:space="preserve">
<style type="text/css">
	.st0{fill:#4A5656;}
	.st1{fill:#B2CADD;}
	.st2{fill:#3C7287;}
</style>
<path class="st0" d="M459.4,54c-4.5-10.2-10.5-19.5-18.2-27.5s-16.6-14.1-27.1-18.9c-10.5-4.5-21.7-7-33.9-7v17.3
	c9.3,0,18.2,1.9,26.5,5.4s15.7,8.6,21.7,14.7c6.1,6.1,11.2,13.4,14.7,21.7s5.4,17.2,5.4,26.5s-1.9,18.2-5.4,26.5
	s-8.6,15.7-14.7,21.7c-6.1,6.1-13.4,11.2-21.7,14.7c-8.3,3.5-17.2,5.4-26.5,5.4h-53.4V86c0-11.8-2.2-23-6.7-33.6
	s-10.5-19.8-18.2-27.5S285,11.2,274.4,6.7C263.9,2.2,252.7,0,240.9,0c-8.3,0-16.3,1.3-24,3.5c-7.7,2.6-15,5.8-21.7,10.2
	c-6.7,4.5-12.8,9.6-18.2,15.3c-5.4,5.8-9.9,12.1-13.1,19.2c-3.5-7-7.7-13.1-13.1-19.2c-0.9-1-1.9-1.9-2.9-2.9
	c-0.2-0.2-0.3-0.4-0.3-0.6l-0.3-0.3c-0.6-0.6-1.6-1.6-2.6-2.2c-7-6.7-15-12.1-24.3-16c-8.6-3.8-17.6-6.1-27.1-6.7h-0.6
	c-1.9,0-3.8-0.3-6.1-0.3h-4.5C71.9,0.6,62,2.9,52.7,6.7c-9.9,4.1-18.2,9.9-25.6,17.2l-0.9,0.9l-0.3,0.3l-0.3,0.3l-0.9,0.9
	c-7,7.4-12.8,16-17.2,25.6C3.2,61.3,1,71.2,0.6,81.5v90.4h17.2v-86c0-9.3,1.9-18.2,5.4-26.5C26.8,51.1,32,43.8,38,37.7
	c0.2-0.2,0.4-0.3,0.6-0.3C44.7,31.3,51.7,26.5,60,23s17.2-5.4,26.5-5.4s18.2,1.9,26.5,5.4s15.6,8.6,21.7,14.7
	c4.2,4.1,7.7,8.6,10.5,13.7c1.6,2.6,2.9,5.4,4.2,8.3c2.6,5.8,4.1,11.8,4.8,18.2h18.2c0.6-6.4,2.6-12.1,4.8-18.2
	c3.5-8.3,8.6-15.6,14.7-21.7c6.1-6.1,13.4-11.2,21.7-14.7s17.2-5.4,26.5-5.4s18.2,1.9,26.5,5.4s15.7,8.6,21.7,14.7
	c6.1,6.1,11.2,13.4,14.7,21.7s5.4,17.2,5.4,26.5v85.9H380c11.8,0,23-2.2,33.5-7c10.5-4.5,19.8-10.9,27.5-18.9s13.7-16.9,18.2-27.5
	c4.5-10.2,6.7-21.4,6.7-32.9C466.1,75.4,463.9,64.5,459.4,54"/>
<g>
	<path class="st0" d="M38.4,219.9c0,2.6-0.6,5.2-1.6,7.4c-1,2.3-2.3,4.2-4.2,6.1c-1.6,1.6-3.9,2.9-6.1,4.2c-2.3,1-4.8,1.6-7.4,1.6
		c-3.2,0-6.1-0.6-8.7-2.3c-2.6-1.6-4.8-3.2-6.4-5.5V246H0v-26.1c0-2.6,0.6-5.2,1.6-7.4c1-2.3,2.3-4.5,4.2-6.1
		c1.6-1.6,3.9-2.9,6.1-4.2c2.3-1,4.8-1.6,7.4-1.6s5.2,0.6,7.4,1.6c2.3,1,4.2,2.3,6.1,4.2c1.6,1.6,3.2,3.9,4.2,6.1
		C38,214.7,38.4,217,38.4,219.9 M34.5,219.9c0-1.9-0.3-4.2-1.3-5.8c-1-1.9-1.9-3.5-3.2-4.8c-1.3-1.3-2.9-2.6-4.8-3.2
		c-1.9-1-3.9-1.3-5.8-1.3s-4.2,0.3-5.8,1.3c-1.9,1-3.6,1.9-4.8,3.2c-1.3,1.3-2.6,2.9-3.2,4.8c-1,1.9-1.3,3.9-1.3,5.8
		s0.3,4.2,1.3,5.8c1,1.9,1.9,3.5,3.2,4.8s2.9,2.6,4.8,3.2c1.9,1,3.9,1.3,5.8,1.3s4.2-0.3,5.8-1.3c1.9-1,3.5-1.9,4.8-3.2
		s2.6-2.9,3.2-4.8C34.2,223.8,34.5,221.8,34.5,219.9"/>
	<path class="st0" d="M61.9,235c3.2,0,6.1-1,8.7-2.6s4.2-4.2,5.5-7.1h4.2c-0.6,1.9-1.6,3.9-2.9,5.5s-2.6,2.9-4.2,4.2
		s-3.2,2.3-5.2,2.9c-1.9,0.6-3.9,1-6.1,1c-2.6,0-5.2-0.6-7.4-1.6c-2.3-1-4.2-2.3-6.1-4.2c-1.6-1.6-2.9-3.9-4.2-6.1
		c-1-2.3-1.6-4.8-1.6-7.4s0.6-5.1,1.6-7.4c1-2.3,2.2-4.5,4.2-6.1c1.6-1.6,3.9-2.9,6.1-4.2c2.3-1,4.8-1.6,7.4-1.6
		c2.6,0,5.2,0.6,7.4,1.6c2.3,1,4.5,2.3,6.1,4.2c1.6,1.6,2.9,3.9,4.2,6.1c1,2.3,1.6,4.8,1.6,7.4v1.9H46.7c0.3,1.9,1,3.9,1.9,5.5
		c1,1.6,1.9,2.9,3.5,4.2c1.3,1.3,2.9,2.3,4.5,2.9C58.3,234.7,59.9,235.1,61.9,235 M61.9,204.4c-1.9,0-3.9,0.3-5.5,1
		c-1.6,0.6-3.2,1.6-4.5,2.9s-2.6,2.6-3.6,4.2c-1,1.6-1.6,3.5-1.9,5.1H77c-0.3-1.9-1-3.5-1.9-5.1c-1-1.6-1.9-3.2-3.5-4.2
		c-1.3-1.3-2.9-2.3-4.5-2.9C65.7,204.8,63.8,204.4,61.9,204.4"/>
	<path class="st0" d="M85.7,219.9c0-2.6,0.6-5.2,1.6-7.4c1-2.3,2.3-4.5,4.2-6.1c1.6-1.6,3.9-2.9,6.1-4.2c2.3-1,4.8-1.6,7.4-1.6
		c2.9,0,5.8,0.6,8.7,2.3c2.6,1.3,4.8,3.2,6.8,5.5v-14.5h3.9V220c0,2.6-0.6,5.2-1.6,7.4c-1,2.3-2.3,4.2-4.2,6.1
		c-1.6,1.6-3.9,2.9-6.1,4.2c-2.3,1-4.8,1.6-7.4,1.6s-5.2-0.6-7.4-1.6s-4.2-2.3-6.1-4.2c-1.6-1.6-2.9-3.9-4.2-6.1
		C86.1,225.1,85.7,222.5,85.7,219.9 M89.6,219.9c0,1.9,0.3,4.2,1.3,5.8c1,1.9,1.9,3.5,3.2,4.8c1.3,1.3,2.9,2.6,4.8,3.2
		c1.9,1,3.9,1.3,5.8,1.3s4.2-0.3,5.8-1.3c1.9-1,3.6-1.9,4.8-3.2s2.6-2.9,3.2-4.8c1-1.9,1.3-3.9,1.3-5.8s-0.3-4.2-1.3-5.8
		c-1-1.9-1.9-3.5-3.2-4.8c-1.3-1.3-2.9-2.6-4.8-3.2c-1.9-1-3.9-1.3-5.8-1.3s-4.2,0.3-5.8,1.3c-1.9,1-3.5,1.9-4.8,3.2
		s-2.6,2.9-3.2,4.8C89.9,215.7,89.6,217.6,89.6,219.9"/>
	<path class="st0" d="M147.6,200.6c2.6,0,5.2,0.6,7.4,1.6c2.3,1,4.2,2.3,6.1,4.2c1.6,1.6,3.2,3.9,4.2,6.1s1.6,4.8,1.6,7.4H163
		c0-1.9-0.3-4.2-1.3-5.8c-1-1.9-1.9-3.5-3.2-4.8s-2.9-2.6-4.8-3.2c-1.9-1-3.9-1.3-5.8-1.3s-4.2,0.3-5.8,1.3c-1.9,1-3.5,1.9-4.8,3.2
		s-2.6,2.9-3.2,4.8c-1,1.9-1.3,3.9-1.3,5.8v19h-3.9v-19c0-2.6,0.6-5.1,1.6-7.4s2.3-4.5,4.2-6.1c1.6-1.6,3.9-2.9,6.1-4.2
		C142.5,201.2,144.7,200.6,147.6,200.6"/>
	<path class="st0" d="M190.2,200.6c2.6,0,5.2,0.6,7.4,1.6c2.3,1,4.2,2.3,6.1,4.2c1.6,1.6,3.2,3.9,4.2,6.1c1,2.3,1.6,4.8,1.6,7.4
		s-0.6,5.1-1.6,7.4c-1,2.3-2.2,4.2-4.2,6.1c-1.6,1.6-3.9,2.9-6.1,4.2c-2.3,1-4.8,1.6-7.4,1.6s-5.2-0.6-7.4-1.6
		c-2.3-1-4.2-2.3-6.1-4.2c-1.6-1.6-2.9-3.9-4.2-6.1c-1-2.3-1.6-4.8-1.6-7.4s0.6-5.2,1.6-7.4s2.3-4.5,4.2-6.1
		c1.6-1.6,3.9-2.9,6.1-4.2C185,201.2,187.6,200.6,190.2,200.6 M190.2,235c1.9,0,4.2-0.3,5.8-1.3c1.9-1,3.5-1.9,4.8-3.2
		s2.6-2.9,3.2-4.8c1-1.9,1.3-3.9,1.3-5.8s-0.3-4.2-1.3-5.8c-1-1.9-1.9-3.5-3.2-4.8s-2.9-2.6-4.8-3.2c-1.9-1-3.9-1.3-5.8-1.3
		s-4.2,0.3-5.8,1.3c-1.9,1-3.6,1.9-4.8,3.2c-1.3,1.3-2.6,2.9-3.2,4.8c-1,1.9-1.3,3.9-1.3,5.8s0.3,4.2,1.3,5.8c1,1.9,1.9,3.5,3.2,4.8
		s2.9,2.6,4.8,3.2C186.3,234.7,188.3,235,190.2,235"/>
</g>
<g>
	<path class="st1" d="M267.2,200.6c2.6,0,5.2,0.6,7.4,1.6c2.3,1,4.5,2.3,6.1,4.2c1.6,1.6,2.9,3.9,4.2,6.1c1.3,2.3,1.6,4.8,1.6,7.4
		v19h-3.9v-19c0-1.9-0.3-4.2-1.3-5.8c-1-1.9-1.9-3.5-3.2-4.8c-1.3-1.3-2.9-2.6-4.8-3.2c-1.9-1-3.9-1.3-5.8-1.3s-4.2,0.3-5.8,1.3
		c-1.9,1-3.5,1.9-4.8,3.2c-1.3,1.3-2.6,2.9-3.2,4.8c-1,1.9-1.3,3.9-1.3,5.8v19h-4.2v-19c0-1.9-0.3-4.2-1.3-5.8
		c-1-1.9-1.9-3.5-3.2-4.8s-2.9-2.6-4.8-3.2c-1.9-1-3.9-1.3-5.8-1.3s-4.2,0.3-5.8,1.3c-1.9,1-3.5,1.9-4.8,3.2s-2.6,2.9-3.2,4.8
		c-1,1.9-1.3,3.9-1.3,5.8v19h-4v-19c0-2.6,0.6-5.1,1.6-7.4c1-2.3,2.3-4.5,4.2-6.1c1.6-1.6,3.9-2.9,6.1-4.2c2.3-1,4.8-1.6,7.4-1.6
		c1.9,0,3.5,0.3,5.5,0.6c1.6,0.6,3.2,1.3,4.8,2.3s2.9,2.3,3.9,3.5c1.3,1.3,2.3,2.6,2.9,4.2c0.6-1.6,1.6-2.9,2.9-4.2s2.6-2.6,4.2-3.5
		c1.6-1,3.2-1.6,4.8-2.3C263.7,200.9,265.6,200.6,267.2,200.6"/>
	<path class="st1" d="M310.1,235c3.2,0,6.1-1,8.7-2.6s4.2-4.2,5.5-7.1h4.2c-0.6,1.9-1.6,3.9-2.9,5.5s-2.6,2.9-4.2,4.2
		s-3.2,2.3-5.2,2.9c-1.9,0.6-3.9,1-6.1,1c-2.6,0-5.2-0.6-7.4-1.6c-2.3-1-4.2-2.3-6.1-4.2c-1.6-1.6-2.9-3.9-4.2-6.1
		c-1-2.3-1.6-4.8-1.6-7.4s0.6-5.1,1.6-7.4s2.3-4.5,4.2-6.1c1.6-1.6,3.9-2.9,6.1-4.2c2.3-1,4.8-1.6,7.4-1.6s5.2,0.6,7.4,1.6
		c2.3,1,4.5,2.3,6.1,4.2c1.6,1.6,2.9,3.9,4.2,6.1c1.3,2.3,1.6,4.8,1.6,7.4v1.9H295c0.3,1.9,1,3.9,1.9,5.5c1,1.6,1.9,2.9,3.5,4.2
		c1.3,1.3,2.9,2.3,4.5,2.9C306.2,234.7,308.2,235.1,310.1,235 M310.1,204.4c-1.9,0-3.9,0.3-5.5,1c-1.6,0.6-3.2,1.6-4.5,2.9
		c-1.3,1.3-2.6,2.6-3.5,4.2c-1,1.6-1.6,3.5-1.9,5.1h30.6c-0.3-1.9-1-3.5-1.9-5.1c-1-1.6-1.9-3.2-3.5-4.2c-1.3-1.3-2.9-2.3-4.5-2.9
		C313.6,204.8,312,204.4,310.1,204.4"/>
	<path class="st1" d="M353,200.6c2.6,0,5.2,0.6,7.4,1.6c2.3,1,4.5,2.3,6.1,4.2c1.6,1.6,2.9,3.9,4.2,6.1c1,2.3,1.6,4.8,1.6,7.4v19
		h-3.9v-7.7c-1.6,2.3-3.9,4.2-6.8,5.5c-2.6,1.3-5.5,2.3-8.7,2.3c-2.6,0-5.2-0.6-7.4-1.6c-2.3-1-4.2-2.3-6.1-4.2
		c-1.6-1.6-2.9-3.9-4.2-6.1c-1-2.3-1.6-4.8-1.6-7.4s0.6-5.2,1.6-7.4c1-2.3,2.3-4.5,4.2-6.1c1.6-1.6,3.9-2.9,6.1-4.2
		C347.8,201.2,350.1,200.5,353,200.6 M353,235c1.9,0,4.2-0.3,5.8-1.3c1.9-1,3.5-1.9,4.8-3.2s2.6-2.9,3.2-4.8c1-1.9,1.3-3.9,1.3-5.8
		s-0.3-4.2-1.3-5.8c-1-1.9-1.9-3.5-3.2-4.8c-1.3-1.3-2.9-2.6-4.8-3.2c-1.9-1-3.9-1.3-5.8-1.3s-4.2,0.3-5.8,1.3
		c-1.9,1-3.5,1.9-4.8,3.2s-2.6,2.9-3.2,4.8c-1,1.9-1.3,3.9-1.3,5.8s0.3,4.2,1.3,5.8c1,1.9,1.9,3.5,3.2,4.8c1.3,1.3,2.9,2.6,4.8,3.2
		C348.8,234.7,350.7,235,353,235"/>
	<rect x="376.5" y="193.8" class="st1" width="3.9" height="45.1"/>
	<path class="st1" d="M403.9,200.6c2.6,0,5.1,0.6,7.4,1.6s4.2,2.3,6.1,4.2c1.6,1.6,3.2,3.9,4.2,6.1c1,2.3,1.6,4.8,1.6,7.4v19h-3.9
		v-19c0-1.9-0.3-4.2-1.3-5.8c-1-1.9-1.9-3.5-3.2-4.8c-1.3-1.3-2.9-2.6-4.8-3.2c-1.9-1-3.9-1.3-5.8-1.3s-4.2,0.3-5.8,1.3
		c-1.9,1-3.5,1.9-4.8,3.2s-2.6,2.9-3.2,4.8c-1,1.9-1.3,3.9-1.3,5.8v19h-3.9v-45.1h3.9v14.5c1.6-2.3,3.9-4.2,6.5-5.5
		C397.8,201.5,400.7,200.5,403.9,200.6"/>
	<path class="st1" d="M446.8,200.6c2.6,0,5.2,0.6,7.4,1.6c2.3,1,4.5,2.3,6.1,4.2c1.6,1.6,2.9,3.9,4.2,6.1c1,2.3,1.6,4.8,1.6,7.4v19
		h-3.9v-7.7c-1.6,2.3-3.9,4.2-6.8,5.5c-2.6,1.3-5.5,2.3-8.7,2.3c-2.6,0-5.2-0.6-7.4-1.6c-2.3-1-4.2-2.3-6.1-4.2
		c-1.6-1.6-2.9-3.9-4.2-6.1c-1-2.3-1.6-4.8-1.6-7.4s0.6-5.2,1.6-7.4c1-2.3,2.2-4.5,4.2-6.1c1.6-1.6,3.9-2.9,6.1-4.2
		C441.6,201.2,444.2,200.5,446.8,200.6 M446.8,235c1.9,0,4.2-0.3,5.8-1.3c1.9-1,3.5-1.9,4.8-3.2s2.6-2.9,3.2-4.8
		c1-1.9,1.3-3.9,1.3-5.8s-0.3-4.2-1.3-5.8c-1-1.9-1.9-3.5-3.2-4.8c-1.3-1.3-2.9-2.6-4.8-3.2c-1.9-1-3.9-1.3-5.8-1.3
		s-4.2,0.3-5.8,1.3c-1.9,1-3.5,1.9-4.8,3.2s-2.6,2.9-3.2,4.8c-1,1.9-1.3,3.9-1.3,5.8s0.3,4.2,1.3,5.8c1,1.9,1.9,3.5,3.2,4.8
		c1.3,1.3,2.9,2.6,4.8,3.2C442.6,234.7,444.5,235,446.8,235"/>
</g>
<path class="st1" d="M85.9,74.1C93.2,74.1,99,80,99,87.2s-5.9,13.1-13.1,13.1s-13.1-5.9-13.1-13.1S78.7,74.1,85.9,74.1"/>
<path class="st2" d="M149.5,113.7c-3.5,8.3-8.6,15.7-14.7,21.7c-6.1,6.1-13.4,11.2-21.7,14.7s-17.2,5.4-26.5,5.4s-18.2-1.9-26.5-5.4
	s-15.7-8.6-21.7-14.7c-1-1-2.2-2.2-3.2-3.2v23.6c5.4,4.1,11.2,7.7,17.6,10.2c10.5,4.5,21.7,7,33.9,7s23-2.2,33.6-7
	c10.5-4.5,19.8-10.9,27.5-18.9s13.7-16.9,18.2-27.5c3.5-7.7,5.4-16,6.4-24.3h-17.2C153.7,101.9,152.1,108,149.5,113.7"/>
<path class="st1" d="M380.2,55.3c17.6,0,32,14.3,32,32s-14.3,32-32,32s-32-14.3-32-32S362.5,55.3,380.2,55.3"/>
</svg>
