<?xml version="1.0" encoding="UTF-8"?><svg id="a" xmlns="http://www.w3.org/2000/svg" viewBox="0 0 102.5 100"><path d="M45.94,33.59h35.81c2.47,0,4.48-2,4.48-4.48s-2-4.48-4.48-4.48H45.94c-2.47,0-4.48,2-4.48,4.48s2,4.48,4.48,4.48Z"/><path d="M81.75,45.52H45.94c-2.47,0-4.48,2-4.48,4.48s2,4.48,4.48,4.48h35.81c2.47,0,4.48-2,4.48-4.48s-2-4.48-4.48-4.48Z"/><path d="M81.75,66.41H45.94c-2.47,0-4.48,2-4.48,4.48s2,4.48,4.48,4.48h35.81c2.47,0,4.48-2,4.48-4.48s-2-4.48-4.48-4.48Z"/><path d="M31.35,46.44l-2.98-.43-1.33-2.7c-.38-.76-1.15-1.25-2.01-1.25s-1.63,.48-2.01,1.25l-1.33,2.7-2.98,.43c-.84,.12-1.54,.71-1.81,1.52-.26,.81-.04,1.7,.57,2.29l2.16,2.1-.51,2.97c-.14,.84,.2,1.69,.89,2.19,.39,.28,.85,.43,1.32,.43,.36,0,.71-.09,1.04-.26l2.67-1.4,2.67,1.4c.33,.17,.69,.26,1.04,.26h0c1.24,0,2.24-1,2.24-2.24,0-.19-.02-.37-.07-.54l-.48-2.8,2.16-2.1c.61-.59,.83-1.48,.57-2.29-.26-.81-.96-1.4-1.81-1.52Z"/><path d="M31.35,25.55l-2.98-.43-1.33-2.7c-.38-.76-1.15-1.25-2.01-1.25s-1.63,.48-2.01,1.25l-1.33,2.7-2.98,.43c-.84,.12-1.54,.71-1.81,1.52-.26,.81-.04,1.7,.57,2.29l2.16,2.1-.51,2.97c-.14,.84,.2,1.69,.89,2.19,.39,.28,.85,.43,1.32,.43,.36,0,.71-.09,1.04-.26l2.67-1.4,2.67,1.4c.33,.17,.69,.26,1.04,.26h0c1.24,0,2.24-1,2.24-2.24,0-.19-.02-.37-.07-.54l-.48-2.8,2.16-2.1c.61-.59,.83-1.48,.57-2.29-.26-.81-.96-1.4-1.81-1.52Z"/><path d="M31.35,67.33l-2.98-.43-1.33-2.7c-.38-.76-1.15-1.25-2.01-1.25s-1.63,.48-2.01,1.25l-1.33,2.7-2.98,.43c-.84,.12-1.54,.71-1.81,1.52-.26,.81-.04,1.7,.57,2.29l2.16,2.1-.51,2.97c-.14,.84,.2,1.69,.89,2.19,.39,.28,.85,.43,1.32,.43,.36,0,.71-.09,1.04-.26l2.67-1.4,2.67,1.4c.33,.17,.69,.26,1.04,.26h0c1.24,0,2.24-1,2.24-2.24,0-.19-.02-.37-.07-.54l-.48-2.8,2.16-2.1c.61-.59,.83-1.48,.57-2.29-.26-.81-.96-1.4-1.81-1.52Z"/></svg>