<?xml version="1.0" encoding="UTF-8"?><svg id="a" xmlns="http://www.w3.org/2000/svg" viewBox="0 0 102.5 100"><path d="M75.14,26.11V61.95h5.97V20.13H39.3v5.97h35.84Z"/><path d="M21.38,38.05v41.81H63.2V38.05H21.38Zm35.84,5.97H27.36v29.87h29.87v-29.87Z" fill-rule="evenodd"/><path d="M66.18,35.07H30.34v-5.97h41.81v41.81h-5.97V35.07Z"/><path d="M55.39,56.05h-1.56c-.29-1.13-.74-2.19-1.33-3.16l1.12-1.12c.3-.3,.47-.71,.47-1.14s-.17-.83-.47-1.13l-1.87-1.87c-.61-.61-1.67-.61-2.27,0l-1.17,1.16c-.96-.56-1.98-.99-3.11-1.26v-1.67c0-.89-.71-1.61-1.59-1.61h-2.64c-.89,0-1.58,.73-1.58,1.61v1.67c-1.13,.28-2.16,.71-3.12,1.27l-1.17-1.16c-.61-.61-1.67-.61-2.27,0l-1.87,1.87c-.3,.3-.47,.71-.47,1.13s.17,.83,.47,1.13l1.12,1.13c-.59,.97-1.04,2.03-1.33,3.16h-1.56c-.89,0-1.6,.71-1.6,1.59v2.64c0,.89,.71,1.58,1.6,1.58h1.56c.29,1.13,.74,2.19,1.33,3.16l-1.12,1.13c-.3,.3-.47,.71-.47,1.14s.17,.83,.47,1.14l1.87,1.87c.3,.3,.71,.47,1.13,.47s.83-.17,1.13-.47l1.17-1.16c.96,.56,1.99,.99,3.12,1.27v1.67c0,.89,.7,1.6,1.58,1.6h2.64c.89,0,1.59-.71,1.59-1.6v-1.67c1.13-.28,2.16-.71,3.12-1.27l1.16,1.16c.3,.3,.71,.47,1.14,.47s.83-.17,1.14-.47l1.87-1.87c.3-.3,.47-.71,.47-1.13,0-.43-.17-.83-.47-1.13l-1.12-1.13c.59-.97,1.04-2.03,1.33-3.16h1.56c.89,0,1.61-.7,1.61-1.58v-2.64c0-.88-.73-1.59-1.61-1.59Zm-13.1,7.94c-2.8,0-5.07-2.25-5.07-5.02s2.27-5.02,5.07-5.02,5.08,2.25,5.08,5.02c0,2.77-2.27,5.02-5.08,5.02Z"/></svg>