<?xml version="1.0" encoding="utf-8"?>
<!-- Generator: Adobe Illustrator 26.2.1, SVG Export Plug-In . SVG Version: 6.00 Build 0)  -->
<svg version="1.1" id="a" xmlns="http://www.w3.org/2000/svg" xmlns:xlink="http://www.w3.org/1999/xlink" x="0px" y="0px"
	 viewBox="0 0 102.5 100" style="enable-background:new 0 0 102.5 100;" xml:space="preserve">
<g>
	<g>
		<g>
			<path d="M51.3,12.5c-3.9,0-7.1,3.2-7.1,7.1s3.2,7.1,7.1,7.1c3.9,0,7.1-3.2,7.1-7.1S55.2,12.5,51.3,12.5z M51.3,21.6
				c-1.1,0-2-0.9-2-2s0.9-2,2-2c1.1,0,2,0.9,2,2C53.2,20.7,52.3,21.6,51.3,21.6z"/>
		</g>
	</g>
	<g>
		<g>
			<path d="M62.8,38.5l-3-9.1c-0.4-1.1-1.3-1.8-2.5-1.8H45.2c-1.1,0-2.1,0.7-2.5,1.8l-3,9.1c-0.6,1.7,0.7,3.4,2.5,3.4h18.2
				C62.1,42,63.4,40.2,62.8,38.5z M45.8,36.8l1.3-3.9h8.4l1.3,3.9H45.8z"/>
		</g>
	</g>
	<g>
		<g>
			<path d="M23.1,35.3c-3.9,0-7.1,3.2-7.1,7.1s3.2,7.1,7.1,7.1c3.9,0,7.1-3.2,7.1-7.1C30.3,38.5,27.1,35.3,23.1,35.3z M23.1,44.4
				c-1.1,0-2-0.9-2-2c0-1.1,0.9-2,2-2c1.1,0,2,0.9,2,2C25.1,43.5,24.2,44.4,23.1,44.4z"/>
		</g>
	</g>
	<g>
		<g>
			<path d="M34.7,61.3l-3-9.1c-0.4-1.1-1.3-1.8-2.5-1.8H17c-1.1,0-2.1,0.7-2.5,1.8l-3,9.1C11,63,12.2,64.7,14,64.7h18.2
				C34,64.7,35.2,63,34.7,61.3z M17.6,59.6l1.3-3.9h8.4l1.3,3.9L17.6,59.6L17.6,59.6z"/>
		</g>
	</g>
	<g>
		<g>
			<path d="M51.3,58c-3.9,0-7.1,3.2-7.1,7.1c0,3.9,3.2,7.1,7.1,7.1s7.1-3.2,7.1-7.1S55.2,58,51.3,58z M51.2,67.1c-1.1,0-2-0.9-2-2
				s0.9-2,2-2c1.1,0,2,0.9,2,2C53.2,66.3,52.3,67.1,51.2,67.1z"/>
		</g>
	</g>
	<g>
		<g>
			<path d="M62.8,84.1l-3-9.1c-0.4-1.1-1.3-1.8-2.5-1.8H45.2c-1.1,0-2.1,0.7-2.5,1.8l-3,9.1c-0.6,1.7,0.7,3.4,2.5,3.4h18.2
				C62.1,87.5,63.4,85.8,62.8,84.1z M45.8,82.3l1.3-3.9h8.4l1.3,3.9H45.8z"/>
		</g>
	</g>
	<g>
		<g>
			<path d="M40.9,22.6c-0.6-1.3-2.2-1.8-3.5-1.2c-4,1.9-7.7,4.8-10.6,8.2c-0.9,1.1-0.8,2.7,0.3,3.7c1.1,0.9,2.7,0.8,3.7-0.3
				c2.4-2.9,5.5-5.3,8.8-6.9C41,25.5,41.6,23.9,40.9,22.6z"/>
		</g>
	</g>
	<g>
		<g>
			<path d="M79.4,35.3c-3.9,0-7.1,3.2-7.1,7.1s3.2,7.1,7.1,7.1s7.1-3.2,7.1-7.1S83.3,35.3,79.4,35.3z M79.4,44.4c-1.1,0-2-0.9-2-2
				c0-1.1,0.9-2,2-2c1.1,0,2,0.9,2,2C81.3,43.5,80.5,44.4,79.4,44.4z"/>
		</g>
	</g>
	<g>
		<g>
			<path d="M91,61.3l-3-9.1c-0.4-1.1-1.3-1.8-2.5-1.8H73.3c-1.1,0-2.1,0.7-2.5,1.8l-3,9.1c-0.6,1.7,0.7,3.4,2.5,3.4h18.2
				C90.3,64.7,91.5,63,91,61.3z M73.9,59.6l1.3-3.9h8.4l1.3,3.9L73.9,59.6L73.9,59.6z"/>
		</g>
	</g>
	<g>
		<g>
			<path d="M75.6,29.7c-2.9-3.4-6.5-6.3-10.6-8.2c-1.3-0.6-2.8-0.1-3.5,1.2c-0.6,1.3-0.1,2.8,1.2,3.5c3.4,1.6,6.4,4,8.8,6.9
				c0.9,1.1,2.6,1.2,3.7,0.3C76.4,32.4,76.5,30.8,75.6,29.7z"/>
		</g>
	</g>
	<g>
		<g>
			<path d="M75.3,66.7c-1.1-0.9-2.7-0.8-3.7,0.3c-2.4,2.9-5.5,5.3-8.8,6.9c-1.3,0.6-1.8,2.2-1.2,3.5c0.6,1.3,2.2,1.8,3.5,1.2
				c4-1.9,7.7-4.8,10.6-8.2C76.5,69.2,76.4,67.6,75.3,66.7z"/>
		</g>
	</g>
	<g>
		<g>
			<path d="M39.7,73.9c-3.4-1.6-6.4-4-8.8-6.9c-0.9-1.1-2.6-1.2-3.7-0.3c-1.1,0.9-1.2,2.6-0.3,3.7c2.9,3.4,6.5,6.3,10.6,8.2
				c1.3,0.6,2.8,0.1,3.5-1.2C41.6,76.1,41,74.5,39.7,73.9z"/>
		</g>
	</g>
</g>
</svg>
